<svg width="1920" height="1920" viewBox="0 0 1920 1920" fill="none" xmlns="http://www.w3.org/2000/svg">
<g clip-path="url(#clip0_256_596)">
<rect width="1920" height="1920" fill="url(#paint0_linear_256_596)"/>
<path d="M964.6 2476.67L513.975 2403.08L959.691 975.691L964.6 2476.67ZM2024.5 2033.57L1653.82 2300.18L959.691 975.691L2024.5 2033.57ZM-98.2105 2040.51L-364.815 1669.84L959.691 975.691L-98.2105 2040.51ZM2387.08 1421.41L959.691 975.691L2460.67 970.782L2387.08 1421.41ZM959.69 975.69L959.691 975.691L-541.292 980.6L-467.703 529.975L959.69 975.69ZM1405.41 -451.703L959.691 975.691L954.782 -525.292L1405.41 -451.703ZM959.691 975.691L-105.152 -82.1963L265.523 -348.8L959.691 975.691ZM2284.16 281.537L959.691 975.691L2017.56 -89.138L2284.16 281.537Z" fill="#FEC8A8"/>
<path d="M1293.52 2439.08L837.727 2466.06L959.695 975.687L1293.52 2439.08ZM2230.5 1774.41L1927.29 2115.79L959.695 975.687L2230.5 1774.41ZM160.955 2246.51L-180.42 1943.3L959.695 975.687L160.955 2246.51ZM2450.07 1097.65L959.695 975.687L2423.09 641.86L2450.07 1097.65ZM959.695 975.687L-503.696 1309.51L-530.68 853.719L959.695 975.687ZM1081.66 -514.688L959.695 975.687L625.869 -487.704L1081.66 -514.688ZM959.695 975.687L-311.147 176.966L-7.9324 -164.41L959.695 975.687ZM2099.78 8.0785L959.695 975.687L1758.4 -295.136L2099.78 8.0785Z" fill="#FEF5A8"/>
<g style="mix-blend-mode:overlay">
<path d="M1293.52 2439.08L837.727 2466.06L959.695 975.687L1293.52 2439.08ZM2230.5 1774.41L1927.29 2115.79L959.695 975.687L2230.5 1774.41ZM160.955 2246.51L-180.42 1943.3L959.695 975.687L160.955 2246.51ZM2450.07 1097.65L959.695 975.687L2423.09 641.86L2450.07 1097.65ZM959.695 975.687L-503.696 1309.51L-530.68 853.719L959.695 975.687ZM1081.66 -514.688L959.695 975.687L625.869 -487.704L1081.66 -514.688ZM959.695 975.687L-311.147 176.966L-7.9324 -164.41L959.695 975.687ZM2099.78 8.0785L959.695 975.687L1758.4 -295.136L2099.78 8.0785Z" fill="url(#paint1_radial_256_596)"/>
</g>
</g>
<defs>
<linearGradient id="paint0_linear_256_596" x1="960" y1="0" x2="960" y2="1920" gradientUnits="userSpaceOnUse">
<stop stop-color="#670025"/>
<stop offset="1" stop-color="#E35F8E"/>
</linearGradient>
<radialGradient id="paint1_radial_256_596" cx="0" cy="0" r="1" gradientUnits="userSpaceOnUse" gradientTransform="translate(959.695 975.687) rotate(84.8782) scale(1487.35)">
<stop stop-color="white"/>
<stop offset="1" stop-color="white" stop-opacity="0"/>
</radialGradient>
<clipPath id="clip0_256_596">
<rect width="1920" height="1920" fill="white"/>
</clipPath>
</defs>
</svg>
