<svg width="305" height="35" viewBox="0 0 305 35" fill="none" xmlns="http://www.w3.org/2000/svg">
<mask id="path-1-outside-1_323_683" maskUnits="userSpaceOnUse" x="0" y="-0.000488281" width="61" height="35" fill="black">
<rect fill="white" y="-0.000488281" width="61" height="35"/>
<path d="M47.0586 1.1001C48.4588 0.878332 49.8824 0.998937 51.1367 1.72217C51.1433 1.72585 51.1497 1.73018 51.1562 1.73389C51.1626 1.73758 51.1694 1.74091 51.1758 1.74463C52.4497 2.47265 53.2596 3.64094 53.4902 5.09619C53.5901 5.72691 53.5736 6.34716 53.4434 6.94189L57.5273 7.65674L56.8135 9.97705C56.5566 10.8118 56.2592 11.6094 55.9219 12.3687L58.7598 14.5874L55.293 17.3745V28.0854L23.6348 33.0005V21.0542L1 24.5679V12.4858L41.8652 6.14209C41.9037 5.65144 42.0097 5.16711 42.1855 4.69482L42.1885 4.68604L42.1914 4.67822C42.563 3.70501 43.2108 2.92137 44.0166 2.31396C44.9021 1.6465 45.9543 1.27502 47.0586 1.1001Z"/>
</mask>
<path d="M47.0586 1.1001C48.4588 0.878332 49.8824 0.998937 51.1367 1.72217C51.1433 1.72585 51.1497 1.73018 51.1562 1.73389C51.1626 1.73758 51.1694 1.74091 51.1758 1.74463C52.4497 2.47265 53.2596 3.64094 53.4902 5.09619C53.5901 5.72691 53.5736 6.34716 53.4434 6.94189L57.5273 7.65674L56.8135 9.97705C56.5566 10.8118 56.2592 11.6094 55.9219 12.3687L58.7598 14.5874L55.293 17.3745V28.0854L23.6348 33.0005V21.0542L1 24.5679V12.4858L41.8652 6.14209C41.9037 5.65144 42.0097 5.16711 42.1855 4.69482L42.1885 4.68604L42.1914 4.67822C42.563 3.70501 43.2108 2.92137 44.0166 2.31396C44.9021 1.6465 45.9543 1.27502 47.0586 1.1001Z" fill="#FDDF12"/>
<path d="M47.0586 1.1001L46.9022 0.112409L46.9021 0.112411L47.0586 1.1001ZM51.1367 1.72217L50.6372 2.58854L50.6482 2.59469L51.1367 1.72217ZM51.1562 1.73389L51.6597 0.869753L51.6486 0.863462L51.1562 1.73389ZM51.1758 1.74463L50.6701 2.60742L50.6796 2.61285L51.1758 1.74463ZM53.4902 5.09619L54.4779 4.93976L54.4779 4.93968L53.4902 5.09619ZM53.4434 6.94189L52.4665 6.728L52.2434 7.74706L53.2709 7.92692L53.4434 6.94189ZM57.5273 7.65674L58.4831 7.9508L58.8165 6.86719L57.6998 6.67171L57.5273 7.65674ZM56.8135 9.97705L57.7692 10.2712L57.7693 10.2711L56.8135 9.97705ZM55.9219 12.3687L55.008 11.9627L54.6912 12.6758L55.3059 13.1565L55.9219 12.3687ZM58.7598 14.5874L59.3863 15.3668L60.3694 14.5765L59.3757 13.7996L58.7598 14.5874ZM55.293 17.3745L54.6664 16.5951L54.293 16.8954V17.3745H55.293ZM55.293 28.0854L55.4464 29.0736L56.293 28.9422V28.0854H55.293ZM23.6348 33.0005H22.6348V34.1677L23.7882 33.9887L23.6348 33.0005ZM23.6348 21.0542H24.6348V19.887L23.4814 20.066L23.6348 21.0542ZM1 24.5679H0V25.7351L1.1534 25.556L1 24.5679ZM1 12.4858L0.846601 11.4977L0 11.6291V12.4858H1ZM41.8652 6.14209L42.0186 7.13025L42.8003 7.00891L42.8622 6.22026L41.8652 6.14209ZM42.1855 4.69482L43.1227 5.0438L43.1287 5.02753L43.1342 5.01105L42.1855 4.69482ZM42.1885 4.68604L41.2521 4.33491L41.2456 4.35225L41.2398 4.36981L42.1885 4.68604ZM42.1914 4.67822L41.2572 4.32148L41.2551 4.3271L42.1914 4.67822ZM44.0166 2.31396L43.4147 1.5154L43.4147 1.51543L44.0166 2.31396ZM47.0586 1.1001L47.215 2.08779C48.462 1.89029 49.6369 2.01168 50.6372 2.58847L51.1367 1.72217L51.6362 0.855863C50.128 -0.0138021 48.4556 -0.133628 46.9022 0.112409L47.0586 1.1001ZM51.1367 1.72217L50.6482 2.59469C50.6375 2.58875 50.6294 2.5839 50.6251 2.5813C50.6212 2.57894 50.6183 2.57712 50.6202 2.57835C50.6207 2.57861 50.6225 2.57976 50.6244 2.58092C50.6265 2.58218 50.6294 2.58402 50.633 2.58617C50.6399 2.59036 50.6507 2.59683 50.6639 2.60431L51.1562 1.73389L51.6486 0.863462C51.6585 0.869089 51.666 0.873623 51.6697 0.875853C51.6729 0.877752 51.6755 0.879392 51.6727 0.87769C51.6715 0.876914 51.6653 0.873084 51.6582 0.868766C51.6506 0.864201 51.6392 0.857426 51.6253 0.849642L51.1367 1.72217ZM51.1562 1.73389L50.6529 2.59795C50.6653 2.6052 50.6758 2.61098 50.6826 2.61467C50.686 2.61656 50.689 2.61815 50.691 2.61926C50.693 2.62029 50.6948 2.62127 50.6953 2.62155C50.6975 2.62268 50.6948 2.62126 50.6913 2.61934C50.6874 2.61722 50.6798 2.61303 50.6701 2.60737L51.1758 1.74463L51.6814 0.881884C51.6686 0.874371 51.6578 0.868373 51.6506 0.864459C51.6439 0.860759 51.6379 0.857576 51.6367 0.856952C51.6341 0.85556 51.6366 0.856883 51.6396 0.858532C51.6431 0.860441 51.6504 0.864418 51.6596 0.869824L51.1562 1.73389ZM51.1758 1.74463L50.6796 2.61285C51.6908 3.19076 52.3195 4.09761 52.5026 5.2527L53.4902 5.09619L54.4779 4.93968C54.1997 3.18428 53.2085 1.75455 51.672 0.876409L51.1758 1.74463ZM53.4902 5.09619L52.5025 5.25263C52.5837 5.76508 52.5691 6.25959 52.4665 6.728L53.4434 6.94189L54.4202 7.15579C54.5781 6.43473 54.5965 5.68875 54.4779 4.93976L53.4902 5.09619ZM53.4434 6.94189L53.2709 7.92692L57.3549 8.64176L57.5273 7.65674L57.6998 6.67171L53.6158 5.95687L53.4434 6.94189ZM57.5273 7.65674L56.5716 7.36268L55.8577 9.68299L56.8135 9.97705L57.7693 10.2711L58.4831 7.9508L57.5273 7.65674ZM56.8135 9.97705L55.8577 9.68292C55.612 10.4814 55.3284 11.2416 55.008 11.9627L55.9219 12.3687L56.8358 12.7746C57.19 11.9772 57.5012 11.1421 57.7692 10.2712L56.8135 9.97705ZM55.9219 12.3687L55.3059 13.1565L58.1438 15.3752L58.7598 14.5874L59.3757 13.7996L56.5378 11.5808L55.9219 12.3687ZM58.7598 14.5874L58.1332 13.808L54.6664 16.5951L55.293 17.3745L55.9195 18.1539L59.3863 15.3668L58.7598 14.5874ZM55.293 17.3745H54.293V28.0854H55.293H56.293V17.3745H55.293ZM55.293 28.0854L55.1396 27.0973L23.4813 32.0123L23.6348 33.0005L23.7882 33.9887L55.4464 29.0736L55.293 28.0854ZM23.6348 33.0005H24.6348V21.0542H23.6348H22.6348V33.0005H23.6348ZM23.6348 21.0542L23.4814 20.066L0.846604 23.5797L1 24.5679L1.1534 25.556L23.7882 22.0424L23.6348 21.0542ZM1 24.5679H2V12.4858H1H0V24.5679H1ZM1 12.4858L1.1534 13.474L42.0186 7.13025L41.8652 6.14209L41.7118 5.15393L0.846601 11.4977L1 12.4858ZM41.8652 6.14209L42.8622 6.22026C42.8934 5.82201 42.9793 5.42883 43.1227 5.0438L42.1855 4.69482L41.2484 4.34585C41.0401 4.90539 40.914 5.48088 40.8683 6.06392L41.8652 6.14209ZM42.1855 4.69482L43.1342 5.01105L43.1372 5.00226L42.1885 4.68604L41.2398 4.36981L41.2369 4.3786L42.1855 4.69482ZM42.1885 4.68604L43.1248 5.03716L43.1277 5.02935L42.1914 4.67822L41.2551 4.3271L41.2521 4.33491L42.1885 4.68604ZM42.1914 4.67822L43.1256 5.03496C43.4202 4.26362 43.9386 3.62503 44.6185 3.1125L44.0166 2.31396L43.4147 1.51543C42.483 2.2177 41.7059 3.14639 41.2572 4.32149L42.1914 4.67822ZM44.0166 2.31396L44.6185 3.11253C45.3404 2.56843 46.2262 2.24442 47.215 2.08778L47.0586 1.1001L46.9021 0.112411C45.6824 0.305615 44.4639 0.724575 43.4147 1.5154L44.0166 2.31396Z" fill="black" mask="url(#path-1-outside-1_323_683)"/>
<path d="M47.3936 3.21483C48.4748 3.04358 49.3737 3.16875 50.0902 3.59033C50.8172 3.99752 51.2456 4.61124 51.3755 5.43149C51.4916 6.16475 51.3435 6.83794 50.931 7.45108C50.5185 8.06422 49.8438 8.75076 48.9067 9.51068L51.7985 11.8427C52.1906 10.9397 52.492 9.98748 52.7028 8.98587L54.7666 9.34696C54.3544 10.6862 53.8389 11.8953 53.2199 12.9743L55.3137 14.611L53.5677 16.015L51.9402 14.6676C51.4015 15.288 50.811 15.7828 50.1688 16.152C49.539 16.5193 48.8202 16.7669 48.0124 16.8949C47.2294 17.0189 46.5171 16.9852 45.8752 16.7939C45.2458 16.6005 44.7302 16.2809 44.3284 15.835C43.9389 15.387 43.695 14.8524 43.5966 14.231C43.4667 13.4107 43.5638 12.6564 43.8879 11.9681C44.2245 11.2778 44.8832 10.5301 45.864 9.72506C45.3071 9.26545 44.8823 8.83588 44.5898 8.43633C44.2952 8.02435 44.1085 7.5698 44.0298 7.07268C43.9412 6.51342 43.9953 5.96979 44.1919 5.44179C44.399 4.8994 44.77 4.4266 45.3049 4.02338C45.8398 3.62017 46.536 3.35065 47.3936 3.21483ZM47.6289 4.82099C47.1317 4.89973 46.7639 5.11087 46.5253 5.45442C46.2847 5.78553 46.2028 6.19344 46.2796 6.67813C46.3308 7.00126 46.4545 7.30015 46.6509 7.5748C46.8473 7.84945 47.1284 8.13617 47.4942 8.43494C48.1272 7.92701 48.5777 7.47347 48.8457 7.07431C49.1137 6.67514 49.2123 6.25186 49.1414 5.80445C49.0824 5.43161 48.9118 5.15923 48.6298 4.98733C48.3602 4.81345 48.0266 4.75801 47.6289 4.82099ZM47.251 10.8813C46.6697 11.3938 46.2997 11.8728 46.141 12.3183C45.9927 12.7495 45.9579 13.2136 46.0366 13.7107C46.1193 14.2327 46.3386 14.612 46.6946 14.8487C47.0506 15.0853 47.5206 15.1574 48.1047 15.0648C49.0368 14.9172 49.8641 14.4295 50.5866 13.6016L47.251 10.8813Z" fill="black"/>
<path d="M31.9611 21.391L30.0333 29.8753L27.3814 30.2953L25.05 22.4856L27.2312 22.1401L28.6839 28.4885L29.8028 21.7328L31.9611 21.391Z" fill="black"/>
<path d="M34.2164 21.0338L34.3666 29.189L32.2772 29.5199L32.127 21.3647L34.2164 21.0338Z" fill="black"/>
<path d="M41.5766 28.047L38.9362 28.4652L36.7337 22.4356C36.8185 22.8223 36.8949 23.23 36.9627 23.6586C37.0912 24.4699 37.1611 25.2826 37.1724 26.0967L37.2141 28.738L35.3773 29.0289L35.2271 20.8737L37.8332 20.461L40.07 26.4851C39.9728 26.069 39.8865 25.6237 39.8114 25.1492C39.7047 24.4757 39.6435 23.7675 39.6279 23.0246L39.5897 20.1828L41.4265 19.8918L41.5766 28.047Z" fill="black"/>
<path d="M45.6353 19.0134C46.6685 18.8498 47.5319 19.0504 48.2255 19.6152L47.2828 20.8707C47.0572 20.7339 46.8343 20.6397 46.6144 20.5883C46.3932 20.5292 46.1563 20.5196 45.9037 20.5596C45.4215 20.636 45.0577 20.8897 44.8122 21.3209C44.5743 21.7509 44.4295 22.2484 44.3778 22.8137C44.3325 23.37 44.3499 23.9008 44.4299 24.4059C44.5208 24.9799 44.6997 25.3909 44.9665 25.639C45.2321 25.8793 45.5715 25.9668 45.9848 25.9013C46.2603 25.8577 46.5077 25.7597 46.7267 25.6073C46.9535 25.4537 47.1953 25.2467 47.4522 24.9864L48.4389 26.0893C48.1441 26.4576 47.7829 26.7777 47.3553 27.0494C46.9276 27.3211 46.442 27.5 45.8986 27.5861C45.2787 27.6843 44.7153 27.644 44.2084 27.4654C43.7003 27.2791 43.2768 26.9579 42.9378 26.5016C42.6064 26.0441 42.385 25.4633 42.2734 24.7592C42.145 23.9479 42.1611 23.1334 42.3218 22.3155C42.489 21.4888 42.842 20.7699 43.3807 20.159C43.9271 19.5468 44.6786 19.1649 45.6353 19.0134Z" fill="black"/>
<path d="M53.7198 17.9448L53.5218 19.5178L50.8469 19.9414L50.8731 21.6672L53.215 21.2963L53.2526 22.7967L50.9106 23.1676L50.9454 25.0215L53.804 24.5687L53.8355 26.1054L48.876 26.8909L48.7259 18.7357L53.7198 17.9448Z" fill="black"/>
<path d="M8.72173 15.3008C8.80901 15.8519 8.7591 16.354 8.57199 16.8073C8.39254 17.2594 7.9909 17.6957 7.36709 18.1161L9.34512 21.1686L7.07203 21.5286L5.48148 18.7678L4.86154 18.866L4.91374 21.8704L2.82432 22.2014L2.67419 14.0462L5.4065 13.6135C6.37084 13.4607 7.13649 13.5395 7.70345 13.8498C8.27684 14.1513 8.61627 14.635 8.72173 15.3008ZM4.8276 17.3886L5.53938 17.2759C5.97563 17.2068 6.27325 17.0302 6.43224 16.7461C6.59001 16.4544 6.64042 16.1286 6.58344 15.7689C6.5398 15.4934 6.41966 15.3045 6.22303 15.2023C6.02639 15.1001 5.74821 15.0774 5.3885 15.1344L4.79152 15.229L4.8276 17.3886Z" fill="black"/>
<path d="M12.5567 12.2691C13.5594 12.1103 14.374 12.2755 15.0007 12.7647C15.6261 13.2462 16.0213 14.0074 16.1861 15.0483C16.3146 15.8595 16.3029 16.6773 16.151 17.5016C16.0056 18.317 15.6571 19.0391 15.1055 19.6678C14.5539 20.2965 13.7729 20.6909 12.7627 20.8509C11.7677 21.0085 10.9569 20.8427 10.3302 20.3535C9.70237 19.8567 9.30661 19.0917 9.14297 18.0585C9.01447 17.2472 9.02295 16.4338 9.16839 15.6184C9.32027 14.7941 9.66879 14.072 10.214 13.4522C10.7656 12.8235 11.5465 12.4291 12.5567 12.2691ZM12.6493 13.8197C12.1595 13.8972 11.8031 14.1734 11.5802 14.648C11.3637 15.1138 11.2435 15.6428 11.2196 16.235C11.2021 16.8183 11.234 17.3664 11.3152 17.8792C11.4037 18.4379 11.5598 18.829 11.7835 19.0524C12.006 19.2683 12.3047 19.3465 12.6797 19.2871C13.1696 19.2095 13.5227 18.9378 13.7392 18.472C13.9634 18.005 14.0842 17.4798 14.1017 16.8965C14.1179 16.3055 14.0842 15.746 14.0006 15.2179C13.9121 14.6592 13.7566 14.2719 13.5341 14.0561C13.3193 13.8391 13.0244 13.7603 12.6493 13.8197Z" fill="black"/>
<path d="M22.625 10.8863L20.6486 14.977L22.9474 19.0142L20.7087 19.3688L19.4342 16.5227L18.3323 19.7452L16.0936 20.0997L18.155 15.4307L16.1042 11.9191L18.3314 11.5663L19.361 13.9805L20.3864 11.2409L22.625 10.8863Z" fill="black"/>
<path d="M27.3674 18.3141L26.9829 16.7039L24.905 17.0331L24.6006 18.7524L22.4194 19.0978L24.5883 10.5754L27.1139 10.1753L29.5716 17.965L27.3674 18.3141ZM25.1816 15.4358L26.6395 15.2049L25.8282 11.7912L25.1816 15.4358Z" fill="black"/>
<path d="M35.9427 16.9559L33.3022 17.3742L31.0998 11.3446C31.1846 11.7313 31.2609 12.1389 31.3288 12.5675C31.4573 13.3788 31.5272 14.1915 31.5384 15.0056L31.5802 17.6469L29.7433 17.9378L29.5932 9.78265L32.1992 9.3699L34.4361 15.394C34.3388 14.9779 34.2526 14.5326 34.1774 14.0581C34.0708 13.3846 34.0096 12.6764 33.9939 11.9336L33.9557 9.0917L35.7926 8.80077L35.9427 16.9559Z" fill="black"/>
<path d="M41.7906 7.85078L41.5925 9.4238L38.9176 9.84746L38.9438 11.5732L41.2858 11.2023L41.3234 12.7027L38.9814 13.0736L39.0161 14.9275L41.8747 14.4748L41.9062 16.0114L36.9468 16.7969L36.7966 8.64174L41.7906 7.85078Z" fill="black"/>
<path d="M70.8519 9.39868V24.6016" stroke="white" stroke-opacity="0.3" stroke-width="0.889736" stroke-linecap="round"/>
<path d="M93.8312 3.42263C94.7995 2.85937 95.9957 2.85937 96.9639 3.42262L106.302 8.8549C107.261 9.41268 107.851 10.4383 107.851 11.5475V22.4528C107.851 23.5621 107.261 24.5877 106.302 25.1455L96.9639 30.5777C95.9957 31.141 94.7995 31.141 93.8312 30.5777L84.4928 25.1455C83.534 24.5877 82.9441 23.5621 82.9441 22.4528V11.5475C82.9441 10.4383 83.534 9.41268 84.4928 8.8549L93.8312 3.42263Z" fill="#A23294"/>
<path d="M86.9579 17.0002V11.4945H92.5361" stroke="white" stroke-width="2.89774" stroke-linecap="round" stroke-linejoin="round"/>
<path d="M103.837 17.0002V22.506H98.2591" stroke="white" stroke-width="2.89774" stroke-linecap="round" stroke-linejoin="round"/>
<path d="M93.9125 17.0364C93.9125 16.2162 94.5774 15.5513 95.3976 15.5513C96.2178 15.5513 96.8827 16.2162 96.8827 17.0364C96.8827 17.8566 96.2178 18.5215 95.3976 18.5215C94.5774 18.5215 93.9125 17.8566 93.9125 17.0364Z" fill="white"/>
<path d="M89.8557 17.0364C89.8557 16.2162 90.5206 15.5513 91.3407 15.5513C92.1609 15.5513 92.8258 16.2162 92.8258 17.0364C92.8258 17.8566 92.1609 18.5215 91.3407 18.5215C90.5206 18.5215 89.8557 17.8566 89.8557 17.0364Z" fill="white"/>
<path d="M97.9694 17.0364C97.9694 16.2162 98.6343 15.5513 99.4545 15.5513C100.275 15.5513 100.94 16.2162 100.94 17.0364C100.94 17.8566 100.275 18.5215 99.4545 18.5215C98.6343 18.5215 97.9694 17.8566 97.9694 17.0364Z" fill="white"/>
<path d="M119.943 9.39868V24.6016" stroke="white" stroke-opacity="0.3" stroke-width="0.889736" stroke-linecap="round"/>
<path d="M144.287 19.1014L150.62 25.4009L149.557 26.4495L143.225 20.15L144.287 19.1014Z" fill="white"/>
<path d="M146.395 17.0042L152.728 23.3038L151.674 24.3524L145.341 18.0528L146.395 17.0042Z" fill="white"/>
<path d="M134.784 9.65608L141.117 15.9556L140.063 17.0042L133.73 10.7047L134.784 9.65608Z" fill="white"/>
<path d="M136.892 7.55085L143.225 13.8504L142.171 14.9071L135.838 8.6075L136.892 7.55085Z" fill="white"/>
<path d="M150.62 8.6075L144.287 14.899L143.225 13.8504L149.557 7.55085L150.62 8.6075Z" fill="white"/>
<path d="M152.728 10.7047L146.395 17.0042L145.341 15.9556L151.674 9.65608L152.728 10.7047Z" fill="white"/>
<path d="M141.117 18.0528L134.784 24.3524L133.73 23.3038L140.063 17.0042L141.117 18.0528Z" fill="white"/>
<path d="M143.225 20.15L136.892 26.4495L135.838 25.4009L142.171 19.1014L143.225 20.15Z" fill="white"/>
<path d="M140.987 5.86505H142.479V10.3175H140.987V5.86505Z" fill="white"/>
<path d="M143.971 5.86505H145.471V10.3175H143.971V5.86505Z" fill="white"/>
<path d="M140.987 23.6829H142.479V28.1353H140.987V23.6829Z" fill="white"/>
<path d="M143.971 23.6829H145.471V28.1353H143.971V23.6829Z" fill="white"/>
<path d="M154.422 16.2621H149.947V14.778H154.422V16.2621Z" fill="white"/>
<path d="M154.422 19.2304H149.947V17.7463H154.422V19.2304Z" fill="white"/>
<path d="M132.035 14.778H136.511V16.2621H132.035V14.778Z" fill="white"/>
<path d="M132.035 17.7463H136.511V19.2304H132.035V17.7463Z" fill="white"/>
<path fill-rule="evenodd" clip-rule="evenodd" d="M202.407 23.4732C202.602 23.8523 202.991 24.1507 203.518 24.1507C203.948 24.1507 204.232 23.9975 204.232 23.7151C204.232 23.4732 204.11 23.3844 203.332 23.1989L203.202 23.1667C202.034 22.9005 201.402 22.4649 201.402 21.5534C201.402 20.7388 202.099 19.9806 203.421 19.9806C204.556 19.9806 205.318 20.4242 205.586 21.2953L205.002 21.5293L204.418 21.739C204.297 21.3518 203.924 21.0614 203.405 21.0614C202.935 21.0614 202.675 21.2711 202.675 21.4889C202.675 21.7551 202.87 21.868 203.616 22.0293L203.705 22.0535C205.035 22.3439 205.529 22.8198 205.529 23.6748C205.529 24.5298 204.783 25.2477 203.543 25.2477C202.367 25.2477 201.637 24.7153 201.24 23.9571L201.84 23.7151L202.407 23.4732ZM203.137 21.5051C203.113 21.5051 203.121 21.5051 203.121 21.4889C203.121 21.497 203.121 21.5051 203.137 21.5051ZM200.534 23.0376H196.934C197.072 23.6748 197.542 24.0539 198.191 24.0539C198.743 24.0539 199.115 23.8361 199.456 23.4086L200.445 24.1184C199.878 24.8202 199.237 25.2477 198.11 25.2477C196.537 25.2477 195.588 24.07 195.588 22.594C195.588 21.1743 196.537 19.9806 198.11 19.9806C199.618 19.9806 200.567 21.0614 200.567 22.481C200.567 22.6585 200.567 22.844 200.534 23.0376ZM199.237 22.1181C199.115 21.5131 198.67 21.2066 198.151 21.2066C197.526 21.2066 197.097 21.5373 196.951 22.1181H199.237ZM189.904 20.0935H191.242V20.2871C191.559 20.0854 191.94 19.9886 192.345 19.9886C193.869 19.9886 194.656 20.9727 194.656 22.2794V25.1348H193.342V22.2794C193.342 21.6906 192.953 21.2227 192.296 21.2227C191.656 21.2227 191.356 21.6099 191.242 21.7954V25.1348H189.904V20.0935ZM183.977 20.0935H185.323V20.2871C185.631 20.0854 186.021 19.9967 186.426 19.9967C187.942 19.9967 188.737 20.9727 188.737 22.2875V25.1428H187.415V22.2875C187.415 21.6906 187.034 21.2227 186.377 21.2227C185.737 21.2227 185.429 21.6099 185.323 21.8035V25.1428H183.977V20.0935ZM182.964 23.0376H179.364C179.51 23.6667 179.98 24.0539 180.629 24.0539C181.172 24.0539 181.545 23.8281 181.893 23.4086L182.875 24.1104C182.307 24.8202 181.666 25.2477 180.547 25.2477C178.974 25.2477 178.018 24.062 178.018 22.594C178.018 21.1663 178.974 19.9806 180.547 19.9806C182.056 19.9806 182.996 21.0614 182.996 22.481C182.996 22.6504 182.996 22.844 182.964 23.0376ZM181.666 22.1181C181.545 21.5131 181.099 21.1985 180.588 21.1985C179.956 21.1985 179.526 21.5293 179.388 22.1181H181.666ZM172.95 18.3916H175.139C176.234 18.3916 177.32 19.2385 177.32 20.5129V20.521C177.32 21.2711 176.923 22.0455 176.169 22.4326L177.466 25.1348H176.072L174.904 22.6585H174.288V25.1348H172.95V18.3916ZM174.92 21.3921C175.569 21.3921 175.991 21.1098 175.999 20.521C175.991 19.9967 175.561 19.6499 174.92 19.6499H174.288V21.3921H174.92Z" fill="white"/>
<path fill-rule="evenodd" clip-rule="evenodd" d="M203.34 7.33307H204.783L203.77 9.00273H202.432L203.34 7.33307ZM205.545 12.6486H201.945C202.091 13.2858 202.562 13.6649 203.21 13.6649C203.753 13.6649 204.126 13.4471 204.475 13.0196L205.456 13.7294C204.889 14.4392 204.248 14.8587 203.129 14.8587C201.556 14.8587 200.599 13.681 200.599 12.2049C200.599 10.7853 201.556 9.59155 203.129 9.59155C204.637 9.59155 205.578 10.6724 205.578 12.092C205.578 12.2695 205.578 12.455 205.545 12.6486ZM204.248 11.729C204.126 11.1241 203.68 10.8176 203.17 10.8176C202.537 10.8176 202.116 11.1483 201.97 11.729H204.248ZM197.478 10.9224H196.464V9.70447H197.478V8.17193H198.775V9.70447H200.186V10.9224H198.775V14.7457H197.478V10.9224ZM194.291 7.3734H195.629V8.74462H194.291V7.3734ZM194.307 9.70447H195.613V14.7457H194.307V9.70447ZM190.107 13.0841C190.294 13.4713 190.683 13.7617 191.21 13.7617C191.648 13.7617 191.932 13.6084 191.932 13.3261C191.932 13.0841 191.81 12.9954 191.023 12.8099L190.894 12.7857C189.726 12.5114 189.102 12.0759 189.102 11.1725C189.102 10.3498 189.791 9.59962 191.121 9.59962C192.256 9.59962 193.01 10.0432 193.278 10.9063L192.702 11.1402L192.11 11.3499C191.988 10.9708 191.615 10.6724 191.096 10.6724C190.634 10.6724 190.367 10.8902 190.367 11.0999C190.367 11.3741 190.561 11.479 191.307 11.6403L191.404 11.6645C192.726 11.9549 193.229 12.4308 193.229 13.2858C193.229 14.1488 192.475 14.8587 191.242 14.8587C190.067 14.8587 189.329 14.3263 188.94 13.5681L189.531 13.3261L190.107 13.0841ZM190.845 11.116C190.813 11.116 190.821 11.116 190.821 11.0999C190.821 11.108 190.821 11.116 190.845 11.116ZM185.477 9.70447H186.84V10.0836L188.396 9.48669V10.7934L186.84 11.3983V14.7538H185.477V9.70447ZM184.439 12.6486H180.839C180.985 13.2858 181.447 13.6649 182.104 13.6649C182.648 13.6649 183.02 13.4471 183.369 13.0196L184.35 13.7294C183.783 14.4312 183.142 14.8587 182.023 14.8587C180.45 14.8587 179.493 13.673 179.493 12.2049C179.493 10.7773 180.45 9.59155 182.023 9.59155C183.531 9.59155 184.472 10.6724 184.472 12.092C184.472 12.2614 184.472 12.455 184.439 12.6486ZM183.142 11.729C183.02 11.1241 182.575 10.8095 182.064 10.8095C181.431 10.8095 181.002 11.1402 180.864 11.729H183.142ZM175.78 14.7457L173.72 9.70447H175.115L176.437 13.0035L177.685 9.70447H179.08L177.166 14.7457H175.78ZM171.612 7.3734H172.958V8.74462H171.612V7.3734ZM171.636 9.70447H172.934V14.7457H171.636V9.70447ZM165.677 9.70447H167.015V9.89806C167.323 9.69641 167.712 9.59962 168.117 9.59962C169.642 9.59962 170.428 10.5837 170.428 11.8904V14.7457H169.115V11.8904C169.115 11.3015 168.726 10.8337 168.069 10.8337C167.428 10.8337 167.12 11.2209 167.015 11.4064V14.7457H165.677V9.70447ZM160.236 8.01061V12.0759C160.236 12.9873 160.755 13.5358 161.647 13.5358C162.539 13.5358 163.066 12.9873 163.066 12.0759V8.01061H164.404V12.0759C164.404 13.7294 163.342 14.8506 161.647 14.8506C159.952 14.8506 158.898 13.7294 158.898 12.0759V8.01061H160.236Z" fill="white"/>
<path fill-rule="evenodd" clip-rule="evenodd" d="M169.788 23.0376H166.188C166.334 23.6748 166.796 24.0539 167.444 24.0539C167.996 24.0539 168.369 23.8361 168.717 23.4086L169.699 24.1184C169.131 24.8202 168.49 25.2477 167.363 25.2477C165.798 25.2477 164.842 24.07 164.842 22.594C164.842 21.1743 165.798 19.9806 167.363 19.9806C168.88 19.9806 169.82 21.0614 169.82 22.481C169.82 22.6585 169.82 22.844 169.788 23.0376ZM168.49 22.1181C168.369 21.5131 167.923 21.2066 167.404 21.2066C166.78 21.2066 166.35 21.5373 166.212 22.1181H168.49ZM162.669 24.925C162.255 25.1751 161.858 25.2477 161.493 25.2477C159.928 25.2477 158.898 24.1507 158.898 22.6182C158.898 21.0614 160.033 19.9806 161.493 19.9806C161.898 19.9806 162.288 20.0693 162.669 20.2306V17.7221H164.031V25.1348H162.669V24.925ZM161.623 24.0216C162.101 24.0216 162.409 23.8603 162.669 23.6183V21.5373C162.369 21.3437 162.004 21.2147 161.647 21.2147C160.877 21.2147 160.236 21.7228 160.236 22.6182C160.236 23.5135 160.885 24.0216 161.623 24.0216Z" fill="white"/>
<path d="M217.678 9.39868V24.6016" stroke="white" stroke-opacity="0.3" stroke-width="0.889736" stroke-linecap="round"/>
<path d="M259.327 22.5495V21.6201H260.383V12.3536H259.327V11.4242H262.574V12.3536H261.518V21.6201H264.701V19.7913H265.726V22.5495H259.327Z" fill="white"/>
<path d="M270.846 19.3977H268.72C267.82 19.3977 267.789 19.429 267.789 20.2481V20.9271C267.774 21.6511 267.869 21.6511 268.641 21.6511H270.846V19.3977ZM272.784 21.6511V22.5491H267.789C266.766 22.5491 266.766 22.1083 266.766 21.1476V19.9025C266.749 18.7037 266.986 18.5949 268.356 18.5949H270.846V17.0967C270.846 16.2925 270.784 16.2775 269.807 16.2775H268.797C267.962 16.2775 267.884 16.2775 267.899 17.0967V17.4287H266.938V16.9715C266.938 16.1673 266.938 15.9142 267.19 15.6638C267.442 15.3958 267.662 15.3958 268.672 15.3795H269.948C270.799 15.3795 271.256 15.3958 271.572 15.6938C271.871 15.9782 271.871 16.3728 271.871 17.1294V21.6511H272.784Z" fill="white"/>
<path d="M273.179 22.5498V21.6517H274.108V16.2782H273.179V15.3788H277.402C279.056 15.3652 279.087 15.7734 279.087 17.0021V21.6517H280.016V22.5498H277.119V21.6517H278.031V17.2865C278.031 16.4034 278.031 16.2782 277.055 16.2782H275.133V21.6517H276.046V22.5498H273.179Z" fill="white"/>
<path d="M280.395 22.5498V21.6517H281.325V16.2782H280.395V15.3788H284.619C286.272 15.3652 286.305 15.7734 286.305 17.0021V21.6517H287.233V22.5498H284.335V21.6517H285.249V17.2865C285.249 16.4034 285.249 16.2782 284.272 16.2782H282.349V21.6517H283.264V22.5498H280.395Z" fill="white"/>
<path d="M288.984 12.9688C289.377 12.9688 289.693 13.2831 289.693 13.6777C289.693 14.0723 289.377 14.3867 288.984 14.3867C288.589 14.3867 288.275 14.0723 288.275 13.6777C288.275 13.2831 288.589 12.9688 288.984 12.9688ZM287.612 22.5497V21.6516H288.543V16.2781H287.612V15.3786H289.583V21.6516H290.512V22.5497H287.612Z" fill="white"/>
<path d="M295.744 17.3494C295.744 16.3098 295.633 16.3098 294.704 16.2772H293.504C292.53 16.2772 292.482 16.2772 292.466 17.3494V20.5648C292.466 21.2737 292.497 21.384 292.623 21.5255C292.719 21.6357 292.734 21.6357 293.428 21.652H294.752C295.586 21.652 295.775 21.652 295.744 20.6587V17.3494ZM296.752 20.6587C296.721 21.7772 296.721 21.9187 296.484 22.2195C296.185 22.5501 295.823 22.5501 295.066 22.5501H293.081C292.387 22.5501 292.056 22.5338 291.773 22.2657C291.459 21.9364 291.442 21.4629 291.442 20.675V17.3494C291.459 16.2935 291.459 15.9792 291.725 15.6784C292.025 15.3655 292.355 15.3791 293.285 15.3791H294.939C295.997 15.4117 296.265 15.4117 296.515 15.7097C296.752 15.9792 296.752 16.3561 296.752 17.2555V20.6587Z" fill="white"/>
<path d="M297.793 22.5498V21.6517H298.722V16.2782H297.793V15.3788H302.016C303.67 15.3652 303.702 15.7734 303.702 17.0021V21.6517H304.632V22.5498H301.732V21.6517H302.645V17.2865C302.645 16.4034 302.645 16.2782 301.669 16.2782H299.747V21.6517H300.658V22.5498H297.793Z" fill="white"/>
<path d="M252.858 5.91233L252.975 5.79554C252.484 5.30403 251.804 5.00024 251.055 5.00024H241.769H232.485C231.736 5.00096 231.056 5.30403 230.566 5.79554C230.075 6.28633 229.77 6.96556 229.77 7.715V16.9999V26.2855C229.77 27.0342 230.075 27.7142 230.566 28.2049C231.056 28.6965 231.736 29.0002 232.485 29.0002H241.769H251.055C251.804 29.0002 252.484 28.6965 252.975 28.2049C253.466 27.7142 253.77 27.0342 253.77 26.2855V16.9999V7.715C253.77 6.96627 253.466 6.28633 252.975 5.79554L252.858 5.91233L252.74 6.02912C253.172 6.46187 253.439 7.05583 253.439 7.715V16.9999V26.2855C253.439 26.9439 253.171 27.5393 252.74 27.9707C252.309 28.4027 251.714 28.6692 251.055 28.6692H241.769H232.485C231.826 28.6692 231.231 28.4027 230.8 27.9714C230.368 27.5393 230.101 26.9439 230.101 26.2855V16.9999V7.715C230.101 7.05583 230.368 6.46187 230.8 6.02912C231.231 5.59779 231.826 5.33126 232.485 5.33054H241.769H251.055C251.714 5.33126 252.309 5.59779 252.74 6.02912L252.858 5.91233Z" fill="white"/>
<path d="M252.975 5.79554L252.858 5.91233L252.74 6.02912M252.975 5.79554C252.484 5.30403 251.804 5.00024 251.055 5.00024H241.769H232.485C231.736 5.00096 231.056 5.30403 230.566 5.79554C230.075 6.28633 229.77 6.96556 229.77 7.715V16.9999V26.2855C229.77 27.0342 230.075 27.7142 230.566 28.2049C231.056 28.6965 231.736 29.0002 232.485 29.0002H241.769H251.055C251.804 29.0002 252.484 28.6965 252.975 28.2049C253.466 27.7142 253.77 27.0342 253.77 26.2855V16.9999V7.715C253.77 6.96627 253.466 6.28633 252.975 5.79554ZM252.74 6.02912C253.172 6.46187 253.439 7.05583 253.439 7.715V16.9999V26.2855C253.439 26.9439 253.171 27.5393 252.74 27.9707C252.309 28.4027 251.714 28.6692 251.055 28.6692H241.769H232.485C231.826 28.6692 231.231 28.4027 230.8 27.9714C230.368 27.5393 230.101 26.9439 230.101 26.2855V16.9999V7.715C230.101 7.05583 230.368 6.46187 230.8 6.02912C231.231 5.59779 231.826 5.33126 232.485 5.33054H241.769H251.055C251.714 5.33126 252.309 5.59779 252.74 6.02912Z" stroke="white" stroke-width="0.880171"/>
<path d="M233.515 22.4553C233.117 22.4553 232.755 22.2943 232.495 22.0331C232.235 21.7731 232.073 21.4122 232.073 21.0149V16.9646V14.9161C232.073 14.5195 232.235 14.1581 232.495 13.8979C232.755 13.6365 233.118 13.4764 233.515 13.4764C233.91 13.4764 234.272 13.6365 234.532 13.8976C234.793 14.158 234.954 14.5198 234.954 14.9161V16.9646V21.0149C234.954 21.4119 234.793 21.7732 234.532 22.0334C234.272 22.2944 233.91 22.4553 233.515 22.4553Z" fill="white"/>
<path d="M233.514 12.4422C233.116 12.4422 232.755 12.2809 232.495 12.0199C232.235 11.7597 232.074 11.3983 232.074 11.0017C232.074 10.6051 232.235 10.2438 232.495 9.98425C232.495 9.98421 232.495 9.98419 232.495 9.98413C232.495 9.9841 232.495 9.98408 232.495 9.98402C232.755 9.72324 233.116 9.56123 233.514 9.56123C233.911 9.56123 234.272 9.7232 234.533 9.98425C234.793 10.2438 234.955 10.6052 234.955 11.0017C234.955 11.3981 234.793 11.7601 234.533 12.0199C234.272 12.281 233.91 12.4422 233.514 12.4422Z" fill="white"/>
<path d="M237.665 22.3641C236.872 22.3641 236.225 21.7173 236.225 20.9242V14.9159C236.225 14.1229 236.872 13.476 237.665 13.476C238.459 13.476 239.106 14.123 239.106 14.9159V19.4821L240.591 19.4804V14.9109C240.591 14.1172 241.239 13.4703 242.032 13.4703C242.824 13.4703 243.472 14.1172 243.472 14.9109V20.9178C243.472 21.712 242.824 22.3581 242.032 22.3583H242.031L237.665 22.3641H237.665Z" fill="white"/>
<path d="M246.224 22.4158C245.431 22.4158 244.784 21.7688 244.784 20.9747L244.783 14.9362V14.9355V14.9204V14.0143L244.787 14.0165L244.792 12.9678L244.801 11.002C244.801 10.606 244.962 10.2443 245.223 9.98401C245.223 9.98398 245.223 9.98396 245.223 9.9839C245.483 9.72254 245.845 9.56145 246.241 9.56145C246.638 9.56145 247 9.72261 247.26 9.98356C247.521 10.2437 247.682 10.605 247.682 11.002V11.0022L247.675 13.4636L250.393 13.4764C250.789 13.4764 251.15 13.6376 251.411 13.8976L251.453 13.9392L251.454 13.9503C251.688 14.2061 251.833 14.5442 251.833 14.9161C251.833 15.3131 251.672 15.6743 251.411 15.9345C251.15 16.1953 250.789 16.3566 250.393 16.3566L248.309 16.3659L247.647 16.3693L247.664 20.9744V20.9747C247.664 21.7689 247.017 22.4158 246.224 22.4158Z" fill="white"/>
<path d="M238.364 26.0913C238.136 26.3184 237.822 26.4589 237.475 26.4589C237.128 26.4589 236.814 26.3184 236.587 26.0913C236.36 25.8642 236.218 25.5489 236.218 25.2022C236.218 24.8561 236.36 24.5408 236.587 24.3144C236.813 24.0866 237.128 23.9462 237.475 23.9462C237.822 23.9462 238.136 24.0866 238.364 24.3144C238.591 24.5408 238.732 24.8561 238.732 25.2022C238.732 25.5496 238.591 25.8642 238.364 26.0913Z" fill="#B5DC17"/>
<path d="M242.696 26.0913C242.47 26.3184 242.156 26.4589 241.809 26.4589C241.462 26.4589 241.147 26.3184 240.92 26.0913C240.692 25.8642 240.552 25.5489 240.552 25.2022C240.552 24.8561 240.692 24.5408 240.92 24.3144C241.147 24.0866 241.462 23.9462 241.809 23.9462C242.156 23.9462 242.47 24.0866 242.696 24.3144C242.924 24.5408 243.065 24.8561 243.065 25.2022C243.065 25.5496 242.924 25.8642 242.696 26.0913Z" fill="#F78D11"/>
<path d="M247.018 26.0913C246.79 26.3184 246.476 26.4589 246.129 26.4589C245.782 26.4589 245.468 26.3184 245.242 26.0913C245.013 25.8642 244.872 25.5496 244.872 25.2022C244.872 24.8561 245.013 24.5408 245.242 24.3144C245.468 24.0866 245.782 23.9462 246.129 23.9462C246.476 23.9462 246.79 24.0866 247.018 24.3144C247.246 24.5408 247.386 24.8561 247.386 25.2022C247.386 25.5496 247.246 25.8642 247.018 26.0913Z" fill="#2D9EDF"/>
<path d="M234.051 26.0913C233.823 26.3184 233.509 26.4589 233.163 26.4589C232.815 26.4589 232.501 26.3184 232.274 26.0913C232.047 25.8642 231.906 25.5489 231.906 25.2022C231.906 24.8561 232.047 24.5408 232.274 24.3144C232.501 24.0866 232.815 23.9462 233.163 23.9462C233.509 23.9462 233.823 24.0866 234.051 24.3144C234.278 24.5408 234.419 24.8561 234.419 25.2022C234.419 25.5496 234.278 25.8642 234.051 26.0913Z" fill="#FDDF12"/>
<path d="M251.344 26.0913C251.116 26.3184 250.802 26.4589 250.456 26.4589C250.108 26.4589 249.795 26.3184 249.568 26.0913C249.339 25.8642 249.199 25.5489 249.199 25.2022C249.199 24.8561 249.339 24.5408 249.568 24.3144C249.795 24.0866 250.108 23.9462 250.456 23.9462C250.802 23.9462 251.116 24.0866 251.344 24.3144C251.572 24.5408 251.712 24.8561 251.712 25.2022C251.712 25.5489 251.572 25.8642 251.344 26.0913Z" fill="#A62A86"/>
</svg>
