<svg width="40" height="40" viewBox="0 0 40 40" fill="none" xmlns="http://www.w3.org/2000/svg">
<path d="M18.0167 12.4844L24.8709 0.734375C27.841 1.51771 30.4769 2.95382 32.7786 5.04271C35.0803 7.1316 36.7527 9.61215 37.7959 12.4844H18.0167ZM12.5823 17.3802L5.87502 5.63021C7.63752 3.90035 9.68594 2.52951 12.0203 1.51771C14.3546 0.505903 16.8756 0 19.5834 0C20.0077 0 20.4972 0.0248058 21.0521 0.0744169C21.607 0.124028 22.1129 0.180819 22.5698 0.244792L12.5823 17.3802ZM0.63648 24.4792C0.440647 23.6958 0.285286 22.8962 0.170397 22.0802C0.0555079 21.2642 -0.00128355 20.4319 2.20038e-05 19.5833C2.20038e-05 17.266 0.375369 15.0792 1.12606 13.0229C1.87676 10.9667 2.93752 9.08993 4.30835 7.39271L14.1979 24.4792H0.63648ZM14.3448 38.4323C11.3747 37.649 8.73092 36.2128 6.41356 34.124C4.0962 32.0351 2.4153 29.5545 1.37086 26.6823H21.1011L14.3448 38.4323ZM19.5834 39.1667C19.0938 39.1667 18.5957 39.134 18.0891 39.0688C17.5826 39.0035 17.1015 38.9382 16.6459 38.8729L26.5844 21.7865L33.2917 33.5365C31.5292 35.2663 29.4814 36.6372 27.1484 37.649C24.8154 38.6608 22.2937 39.1667 19.5834 39.1667ZM34.8584 31.774L24.9688 14.6875H38.5302C38.7261 15.4708 38.8814 16.2705 38.9963 17.0865C39.1112 17.9024 39.168 18.7347 39.1667 19.5833C39.1667 21.8681 38.7672 24.0549 37.9682 26.1438C37.1692 28.2326 36.1326 30.1094 34.8584 31.774Z" />
</svg>
