<svg width="25" height="32" viewBox="0 0 25 32"  xmlns="http://www.w3.org/2000/svg">
<path d="M1.5625 32V28.8H10.9375V22.4H7.8125C5.65104 22.4 3.80885 21.6197 2.28594 20.0592C0.763021 18.4987 0.00104167 16.6123 0 14.4C0 12.8 0.429687 11.3269 1.28906 9.9808C2.14844 8.63467 3.30729 7.6544 4.76563 7.04C5 5.04 5.85312 3.36693 7.325 2.0208C8.79688 0.674668 10.5219 0.00106793 12.5 1.26482e-06C14.4781 -0.0010654 16.2036 0.672535 17.6766 2.0208C19.1495 3.36907 20.0021 5.04214 20.2344 7.04C21.6927 7.65334 22.8516 8.6336 23.7109 9.9808C24.5703 11.328 25 12.8011 25 14.4C25 16.6133 24.238 18.5003 22.7141 20.0608C21.1901 21.6213 19.3479 22.4011 17.1875 22.4H14.0625V28.8H23.4375V32H1.5625Z" />
</svg>
