<svg width="42" height="42" viewBox="0 0 42 42"  xmlns="http://www.w3.org/2000/svg">
<path d="M20.5615 4.76262e-06C23.9534 -0.00230517 27.293 0.835678 30.2819 2.43908C33.2709 4.04248 35.8161 6.36135 37.6901 9.1885C37.4229 8.9485 37.077 8.81473 36.7178 8.8125H33.7803C33.3907 8.8125 33.0172 8.96725 32.7417 9.24269C32.4663 9.51814 32.3115 9.89172 32.3115 10.2813C32.3115 10.6708 32.4663 11.0444 32.7417 11.3198C33.0172 11.5953 33.3907 11.75 33.7803 11.75H36.7178C36.9468 11.749 37.1724 11.6944 37.3766 11.5907C37.5808 11.487 37.7579 11.3369 37.8937 11.1525C38.0296 10.9682 38.1204 10.7546 38.159 10.5288C38.1976 10.3031 38.1829 10.0714 38.116 9.85238C40.761 14.1937 41.704 19.3609 40.7631 24.3567C39.8222 29.3525 37.0641 33.8226 33.0211 36.9044C28.9781 39.9861 23.9368 41.4609 18.8703 41.0442C13.8038 40.6275 9.07129 38.3487 5.58615 34.6478C5.77174 34.3969 5.87258 34.0934 5.87403 33.7813V30.8438C5.87403 30.4542 5.71928 30.0806 5.44384 29.8052C5.1684 29.5297 4.79481 29.375 4.40528 29.375C4.01574 29.375 3.64216 29.5297 3.36671 29.8052C3.09127 30.0806 2.93653 30.4542 2.93653 30.8438V31.1522C1.06206 28.0322 0.0493209 24.4706 0.00175632 20.8312C-0.0458083 17.1918 0.873506 13.6049 2.6658 10.4371C4.45809 7.2692 7.05912 4.63382 10.2032 2.80014C13.3473 0.966456 16.9218 0.000176993 20.5615 4.76262e-06ZM10.2803 32.3125C9.89074 32.3125 9.51716 32.4672 9.24171 32.7427C8.96627 33.0181 8.81153 33.3917 8.81153 33.7813C8.81153 34.1708 8.96627 34.5444 9.24171 34.8198C9.51716 35.0953 9.89074 35.25 10.2803 35.25H13.2178C13.6073 35.25 13.9809 35.0953 14.2563 34.8198C14.5318 34.5444 14.6865 34.1708 14.6865 33.7813C14.6865 33.3917 14.5318 33.0181 14.2563 32.7427C13.9809 32.4672 13.6073 32.3125 13.2178 32.3125H10.2803ZM10.2803 23.5C9.89074 23.5 9.51716 23.6547 9.24171 23.9302C8.96627 24.2056 8.81153 24.5792 8.81153 24.9688V27.9063C8.81153 28.2958 8.96627 28.6694 9.24171 28.9448C9.51716 29.2203 9.89074 29.375 10.2803 29.375C10.6698 29.375 11.0434 29.2203 11.3188 28.9448C11.5943 28.6694 11.749 28.2958 11.749 27.9063V24.9688C11.749 24.5792 11.5943 24.2056 11.3188 23.9302C11.0434 23.6547 10.6698 23.5 10.2803 23.5ZM16.1553 26.4375C15.7657 26.4375 15.3922 26.5922 15.1167 26.8677C14.8413 27.1431 14.6865 27.5167 14.6865 27.9063C14.6865 28.2958 14.8413 28.6694 15.1167 28.9448C15.3922 29.2203 15.7657 29.375 16.1553 29.375H19.0928C19.4823 29.375 19.8559 29.2203 20.1313 28.9448C20.4068 28.6694 20.5615 28.2958 20.5615 27.9063C20.5615 27.5167 20.4068 27.1431 20.1313 26.8677C19.8559 26.5922 19.4823 26.4375 19.0928 26.4375H16.1553ZM16.1553 17.625C15.7657 17.625 15.3922 17.7797 15.1167 18.0552C14.8413 18.3306 14.6865 18.7042 14.6865 19.0938V22.0313C14.6865 22.4208 14.8413 22.7944 15.1167 23.0698C15.3922 23.3453 15.7657 23.5 16.1553 23.5C16.5448 23.5 16.9184 23.3453 17.1938 23.0698C17.4693 22.7944 17.624 22.4208 17.624 22.0313V19.0938C17.624 18.7042 17.4693 18.3306 17.1938 18.0552C16.9184 17.7797 16.5448 17.625 16.1553 17.625ZM22.0303 20.5625C21.6407 20.5625 21.2672 20.7172 20.9917 20.9927C20.7163 21.2681 20.5615 21.6417 20.5615 22.0313C20.5615 22.4208 20.7163 22.7944 20.9917 23.0698C21.2672 23.3453 21.6407 23.5 22.0303 23.5H24.9678C25.3573 23.5 25.7309 23.3453 26.0063 23.0698C26.2818 22.7944 26.4365 22.4208 26.4365 22.0313C26.4365 21.6417 26.2818 21.2681 26.0063 20.9927C25.7309 20.7172 25.3573 20.5625 24.9678 20.5625H22.0303ZM22.0303 11.75C21.6407 11.75 21.2672 11.9047 20.9917 12.1802C20.7163 12.4556 20.5615 12.8292 20.5615 13.2188V16.1563C20.5615 16.5458 20.7163 16.9194 20.9917 17.1948C21.2672 17.4703 21.6407 17.625 22.0303 17.625C22.4198 17.625 22.7934 17.4703 23.0688 17.1948C23.3443 16.9194 23.499 16.5458 23.499 16.1563V13.2188C23.499 12.8292 23.3443 12.4556 23.0688 12.1802C22.7934 11.9047 22.4198 11.75 22.0303 11.75ZM27.9053 14.6875C27.5157 14.6875 27.1422 14.8422 26.8667 15.1177C26.5913 15.3931 26.4365 15.7667 26.4365 16.1563C26.4365 16.5458 26.5913 16.9194 26.8667 17.1948C27.1422 17.4703 27.5157 17.625 27.9053 17.625H30.8428C31.2323 17.625 31.6059 17.4703 31.8813 17.1948C32.1568 16.9194 32.3115 16.5458 32.3115 16.1563C32.3115 15.7667 32.1568 15.3931 31.8813 15.1177C31.6059 14.8422 31.2323 14.6875 30.8428 14.6875H27.9053ZM27.9053 5.875C27.5157 5.875 27.1422 6.02975 26.8667 6.30519C26.5913 6.58064 26.4365 6.95422 26.4365 7.34375V10.2813C26.4365 10.6708 26.5913 11.0444 26.8667 11.3198C27.1422 11.5953 27.5157 11.75 27.9053 11.75C28.2948 11.75 28.6684 11.5953 28.9438 11.3198C29.2193 11.0444 29.374 10.6708 29.374 10.2813V7.34375C29.374 6.95422 29.2193 6.58064 28.9438 6.30519C28.6684 6.02975 28.2948 5.875 27.9053 5.875Z" />
</svg>
