<svg width="38" height="38" viewBox="0 0 38 38"  xmlns="http://www.w3.org/2000/svg">
<path d="M6.36381 4.70001C9.19266 2.19804 12.7118 0.609689 16.4594 0.143357C16.6051 1.15386 16.7884 2.27951 17.0234 3.45216C17.4464 5.56716 18.0339 7.87016 18.847 9.97811C19.4956 11.6678 20.3111 13.2893 21.3427 14.5959L18.8 17.1386L6.36381 4.70001ZM4.70001 6.36616C2.19719 9.19471 0.608004 12.7139 0.141007 16.4618C1.15151 16.6075 2.27481 16.7908 3.44746 17.0258C5.56246 17.4488 7.86546 18.0363 9.97341 18.8494C11.6631 19.498 13.2869 20.3134 14.5912 21.3451L17.1386 18.8L4.70001 6.36616ZM12.9156 23.023C11.9051 22.271 10.6079 21.6106 9.13211 21.0419C7.18866 20.2946 5.02666 19.74 2.98686 19.3311C1.99587 19.1323 0.999925 18.9592 6.91517e-06 18.8118C-0.00392379 23.3884 1.66798 27.8081 4.70001 31.2362L12.9156 23.023ZM6.35911 32.9L14.5771 24.6844C15.3291 25.6949 15.9871 26.9921 16.5558 28.4679C17.3031 30.409 17.8577 32.5734 18.2666 34.6108C18.4781 35.6636 18.6473 36.6788 18.7836 37.6024C14.2077 37.6057 9.78901 35.9338 6.36146 32.9024M16.255 23.0089L18.8 20.4638L31.2362 32.9C28.4077 35.4028 24.8885 36.992 21.1406 37.459C20.9926 36.4485 20.8069 35.3229 20.5743 34.1502C20.1513 32.0352 19.5638 29.7322 18.753 27.6243C18.1021 25.937 17.289 24.3155 16.255 23.0089ZM32.9 31.2386C35.4028 28.41 36.992 24.8909 37.459 21.143C36.4485 20.9973 35.3229 20.814 34.1502 20.579C32.0352 20.156 29.7322 19.5685 27.6243 18.7577C25.937 18.1068 24.3131 17.2937 23.0065 16.2597L20.4615 18.8L32.9 31.2386ZM24.6821 14.5841C25.6926 15.3361 26.9921 15.9941 28.4656 16.5628C30.409 17.3101 32.5734 17.8647 34.6108 18.2736C35.6636 18.4851 36.6788 18.6543 37.6024 18.7906C37.6063 14.214 35.9344 9.79431 32.9024 6.36616L24.6821 14.5841ZM31.2362 4.70001C27.8081 1.66798 23.3884 -0.00392379 18.8118 6.91517e-06C18.9481 0.923557 19.1173 1.93876 19.3288 2.99156C19.7377 5.03136 20.2923 7.19336 21.0396 9.13446C21.6083 10.6103 22.2663 11.9075 23.0183 12.918L31.2362 4.70001Z" />
</svg>
