<svg width="11" height="15" viewBox="0 0 11 15"  xmlns="http://www.w3.org/2000/svg">
<path d="M9.18 4.11C9.02 4.04 8.85 3.98 8.67 3.92L10.58 0.62L9.5 0L7.4 3.62C6.77185 3.51797 6.13638 3.4678 5.5 3.47C4.89066 3.47039 4.28223 3.51719 3.68 3.61L1.6 0L0.5 0.62L2.41 3.9C2.20869 3.95621 2.01155 4.02638 1.82 4.11C0.24 4.75 0 5.63 0 6.11V12.01C0 12.47 0.24 13.35 1.82 14.01C2.99693 14.4447 4.24576 14.6517 5.5 14.62C6.75552 14.6453 8.00439 14.4315 9.18 13.99C10.76 13.34 11 12.46 11 11.99V6.1C11 5.63 10.76 4.75 9.18 4.11ZM2.29 5.31C2.53836 5.21225 2.79211 5.12878 3.05 5.06L3.84 6.43L4.92 5.8L4.36 4.8C4.73836 4.7536 5.11887 4.7269 5.5 4.72C5.91093 4.72226 6.32147 4.74562 6.73 4.79L6.17 5.79L7.25 6.42L8.03 5.08C9.13 5.38 9.75 5.84 9.75 6.14C9.75 6.44 9.43 6.68 8.75 6.97C7.7083 7.34174 6.60527 7.51144 5.5 7.47C2.86 7.47 1.25 6.58 1.25 6.1C1.25 5.89 1.57 5.56 2.29 5.31ZM8.71 12.88C7.68023 13.2433 6.59127 13.4096 5.5 13.37C2.86 13.37 1.25 12.48 1.25 12V10.77C1.43514 10.8699 1.6254 10.9601 1.82 11.04C2.99561 11.4815 4.24448 11.6953 5.5 11.67C6.75552 11.6953 8.00439 11.4815 9.18 11.04C9.3746 10.9601 9.56487 10.8699 9.75 10.77V12C9.75 12.2 9.43 12.54 8.71 12.83V12.88ZM8.71 9.93C7.68023 10.2933 6.59127 10.4596 5.5 10.42C2.86 10.42 1.25 9.53 1.25 9.05V7.82C1.43514 7.91993 1.6254 8.01006 1.82 8.09C2.99561 8.5315 4.24448 8.7453 5.5 8.72C6.75552 8.7453 8.00439 8.5315 9.18 8.09C9.3746 8.01006 9.56487 7.91993 9.75 7.82V9.05C9.75 9.25 9.43 9.59 8.71 9.88V9.93Z" />
</svg>
