<svg width="44" height="43" viewBox="0 0 44 43" fill="none" xmlns="http://www.w3.org/2000/svg">
<path d="M25.053 1.95833C25.6885 1.95833 26.307 2.16448 26.8155 2.54583C25.7673 3.05346 24.8937 3.86114 24.3055 4.86631C23.7174 5.87148 23.4412 7.02877 23.5121 8.19121C23.5831 9.35365 23.9979 10.4688 24.7039 11.395C25.4099 12.3212 26.3753 13.0166 27.4774 13.393L28.2176 13.6476C28.5004 13.7441 28.7574 13.9041 28.9689 14.1152C29.1804 14.3263 29.3407 14.583 29.4377 14.8657L29.6903 15.606C30.0037 16.5241 30.5396 17.3503 31.2501 18.0108C31.9606 18.6713 32.8237 19.1457 33.7622 19.3914C34.7007 19.6371 35.6854 19.6466 36.6285 19.419C37.5715 19.1914 38.4435 18.7339 39.1667 18.0872V33.2917C39.1667 34.3304 38.754 35.3266 38.0195 36.0612C37.285 36.7957 36.2888 37.2083 35.25 37.2083H3.91667C2.8779 37.2083 1.88168 36.7957 1.14716 36.0612C0.412647 35.3266 0 34.3304 0 33.2917V9.79167C0 8.7529 0.412647 7.75668 1.14716 7.02216C1.88168 6.28765 2.8779 5.875 3.91667 5.875H8.98092L12.0359 2.82C12.3087 2.54692 12.6326 2.33026 12.9891 2.18241C13.3456 2.03456 13.7277 1.95842 14.1137 1.95833H25.053ZM19.5833 10.7708C16.9864 10.7708 14.4959 11.8025 12.6596 13.6387C10.8233 15.475 9.79167 17.9656 9.79167 20.5625C9.79167 23.1594 10.8233 25.65 12.6596 27.4863C14.4959 29.3225 16.9864 30.3542 19.5833 30.3542C22.1802 30.3542 24.6708 29.3225 26.5071 27.4863C28.3434 25.65 29.375 23.1594 29.375 20.5625C29.375 17.9656 28.3434 15.475 26.5071 13.6387C24.6708 11.8025 22.1802 10.7708 19.5833 10.7708ZM19.5833 14.6875C20.3548 14.6875 21.1188 14.8395 21.8316 15.1347C22.5444 15.43 23.192 15.8627 23.7376 16.4082C24.2831 16.9538 24.7159 17.6014 25.0111 18.3142C25.3064 19.027 25.4583 19.791 25.4583 20.5625C25.4583 21.334 25.3064 22.098 25.0111 22.8108C24.7159 23.5236 24.2831 24.1712 23.7376 24.7168C23.192 25.2623 22.5444 25.695 21.8316 25.9903C21.1188 26.2855 20.3548 26.4375 19.5833 26.4375C18.0252 26.4375 16.5309 25.8185 15.4291 24.7168C14.3273 23.615 13.7083 22.1206 13.7083 20.5625C13.7083 19.0044 14.3273 17.51 15.4291 16.4082C16.5309 15.3065 18.0252 14.6875 19.5833 14.6875ZM35.25 0C35.6164 -8.15953e-07 35.9754 0.10277 36.2863 0.296631C36.5971 0.490493 36.8474 0.767671 37.0086 1.09667L37.1026 1.32579L37.3572 2.06604C37.6259 2.85365 38.0588 3.57519 38.6273 4.18289C39.1959 4.79058 39.887 5.27056 40.655 5.59104L41.0173 5.72813L41.7575 5.98075C42.1241 6.10581 42.4454 6.33677 42.6807 6.64442C42.916 6.95207 43.0548 7.32259 43.0796 7.70913C43.1043 8.09567 43.0138 8.48086 42.8197 8.81599C42.6255 9.15112 42.3363 9.42115 41.9886 9.59192L41.7575 9.68592L41.0173 9.9405C40.2297 10.2092 39.5081 10.6421 38.9004 11.2107C38.2928 11.7792 37.8128 12.4703 37.4923 13.2383L37.3552 13.6006L37.1026 14.3409C36.9773 14.7074 36.7462 15.0285 36.4384 15.2636C36.1306 15.4987 35.7601 15.6373 35.3735 15.6618C34.987 15.6863 34.6019 15.5957 34.2669 15.4014C33.9319 15.207 33.662 14.9177 33.4914 14.57L33.3974 14.3409L33.1428 13.6006C32.8741 12.813 32.4412 12.0915 31.8727 11.4838C31.3041 10.8761 30.613 10.3961 29.845 10.0756L29.4827 9.93854L28.7425 9.68592C28.3759 9.56085 28.0546 9.32989 27.8193 9.02224C27.584 8.71459 27.4452 8.34407 27.4204 7.95754C27.3957 7.571 27.4862 7.18581 27.6803 6.85068C27.8745 6.51554 28.1637 6.24552 28.5114 6.07475L28.7425 5.98075L29.4827 5.72617C30.2703 5.45748 30.9919 5.02454 31.5996 4.45601C32.2072 3.88747 32.6872 3.19633 33.0077 2.42833L33.1448 2.06604L33.3974 1.32579C33.5294 0.939191 33.7789 0.603529 34.1111 0.365796C34.4433 0.128064 34.8415 0.000162987 35.25 0Z" />
</svg>
