<svg width="40" height="36" viewBox="0 0 40 36" fill="none" xmlns="http://www.w3.org/2000/svg">
<path fill-rule="evenodd" clip-rule="evenodd" d="M10.9157 2.61633C11.4522 1.81159 12.179 1.15173 13.0317 0.695318C13.8844 0.238909 14.8366 7.02622e-05 15.8038 0H23.3629C24.3301 7.02622e-05 25.2823 0.238909 26.1349 0.695318C26.9876 1.15173 27.7145 1.81159 28.2509 2.61633L29.8411 5.00354C30.02 5.27167 30.2623 5.4915 30.5465 5.64352C30.8307 5.79554 31.1481 5.87505 31.4704 5.875H33.2917C34.8498 5.875 36.3441 6.49397 37.4459 7.59575C38.5477 8.69752 39.1667 10.1919 39.1667 11.75V29.375C39.1667 30.9331 38.5477 32.4275 37.4459 33.5293C36.3441 34.631 34.8498 35.25 33.2917 35.25H5.875C4.31685 35.25 2.82252 34.631 1.72075 33.5293C0.618972 32.4275 0 30.9331 0 29.375V11.75C0 10.1919 0.618972 8.69752 1.72075 7.59575C2.82252 6.49397 4.31685 5.875 5.875 5.875H7.69625C8.01858 5.87505 8.33593 5.79554 8.62016 5.64352C8.90438 5.4915 9.14669 5.27167 9.32558 5.00354L10.9157 2.61633ZM15.6667 19.5833C15.6667 18.5446 16.0793 17.5484 16.8138 16.8138C17.5484 16.0793 18.5446 15.6667 19.5833 15.6667C20.6221 15.6667 21.6183 16.0793 22.3528 16.8138C23.0874 17.5484 23.5 18.5446 23.5 19.5833C23.5 20.6221 23.0874 21.6183 22.3528 22.3528C21.6183 23.0874 20.6221 23.5 19.5833 23.5C18.5446 23.5 17.5484 23.0874 16.8138 22.3528C16.0793 21.6183 15.6667 20.6221 15.6667 19.5833ZM19.5833 11.75C17.5058 11.75 15.5134 12.5753 14.0443 14.0443C12.5753 15.5134 11.75 17.5058 11.75 19.5833C11.75 21.6609 12.5753 23.6533 14.0443 25.1223C15.5134 26.5914 17.5058 27.4167 19.5833 27.4167C21.6609 27.4167 23.6533 26.5914 25.1223 25.1223C26.5914 23.6533 27.4167 21.6609 27.4167 19.5833C27.4167 17.5058 26.5914 15.5134 25.1223 14.0443C23.6533 12.5753 21.6609 11.75 19.5833 11.75Z" />
</svg>
