<svg width="20" height="21" viewBox="0 0 20 21"  xmlns="http://www.w3.org/2000/svg">
<path d="M11.2166 8.81307C11.4654 8.81307 11.7107 8.87099 11.9332 8.98224C12.1557 9.09349 12.3493 9.25501 12.4985 9.45402L14.5336 12.1684L17.9386 12.8511C18.302 12.9233 18.6292 13.1193 18.8643 13.4056C19.0995 13.6919 19.2282 14.0509 19.2285 14.4214V16.8282C19.2291 17.249 19.1467 17.6659 18.9858 18.0548C18.8249 18.4437 18.5888 18.7971 18.2911 19.0945C17.9933 19.392 17.6398 19.6277 17.2507 19.7882C16.8616 19.9487 16.4446 20.0308 16.0238 20.0297C15.3129 20.031 14.6218 19.7954 14.0597 19.3601C13.4977 18.9249 13.0966 18.3147 12.92 17.6261H6.30855C6.1319 18.3147 5.73086 18.9249 5.16879 19.3601C4.60672 19.7954 3.91565 20.031 3.20475 20.0297C1.42932 20.0297 0 18.6036 0 16.8282V13.6202C0 13.4888 0.0160237 13.3595 0.0480712 13.2324L0.849259 10.0277C0.935757 9.68086 1.13573 9.37293 1.41736 9.15285C1.699 8.93277 2.04613 8.81317 2.40356 8.81307H11.2166ZM16.0238 15.2226C15.136 15.2226 14.4214 15.9372 14.4214 16.8249C14.4214 17.7127 15.136 18.4273 16.0238 18.4273C16.9115 18.4273 17.6261 17.7127 17.6261 16.8249C17.6261 15.9372 16.9115 15.2226 16.0238 15.2226ZM3.20475 15.2226C2.31704 15.2226 1.60238 15.9372 1.60238 16.8249C1.60238 17.7127 2.31704 18.4273 3.20475 18.4273C4.09247 18.4273 4.80713 17.7127 4.80713 16.8249C4.80713 15.9372 4.09247 15.2226 3.20475 15.2226ZM14.4214 0C15.3962 0.000622004 16.3374 0.35669 17.0685 1.00149C17.1905 1.10906 17.2768 1.25121 17.3161 1.40905C17.3553 1.56688 17.3456 1.73292 17.2882 1.8851C17.2308 2.03728 17.1285 2.16838 16.9948 2.26099C16.8611 2.3536 16.7024 2.40333 16.5397 2.40356H14.0496L12.9825 4.00594L14.0496 5.60832H16.5397C16.7024 5.60855 16.8611 5.65828 16.9948 5.75089C17.1285 5.8435 17.2308 5.9746 17.2882 6.12678C17.3456 6.27896 17.3553 6.445 17.3161 6.60283C17.2768 6.76067 17.1905 6.90282 17.0685 7.0104L17.0413 7.03603C16.5669 7.44757 16.0023 7.74161 15.3931 7.89435C14.784 8.0471 14.1474 8.05424 13.535 7.91522C12.9225 7.77619 12.3515 7.4949 11.868 7.09412C11.3845 6.69334 11.0021 6.18434 10.7519 5.60832H0.801188C0.5887 5.60832 0.384915 5.52391 0.234663 5.37365C0.0844108 5.2234 0 5.01962 0 4.80713V3.20475C0 2.99226 0.0844108 2.78848 0.234663 2.63823C0.384915 2.48797 0.5887 2.40356 0.801188 2.40356H10.7519C11.3769 0.993473 12.787 0 14.4214 0Z" />
</svg>
