<svg width="17" height="21" viewBox="0 0 17 21"  xmlns="http://www.w3.org/2000/svg">
<path d="M0.452105 9.15481L7.64211 0.366814C7.7359 0.252164 7.85399 0.159782 7.98784 0.0963447C8.1217 0.0329076 8.26798 0 8.41611 0C8.56423 0 8.71051 0.0329076 8.84437 0.0963447C8.97822 0.159782 9.09631 0.252164 9.19011 0.366814L16.3801 9.15381C16.6727 9.51122 16.8326 9.9589 16.8326 10.4208C16.8326 10.8827 16.6727 11.3304 16.3801 11.6878L9.19011 20.4748C9.09631 20.5895 8.97822 20.6818 8.84437 20.7453C8.71051 20.8087 8.56423 20.8416 8.41611 20.8416C8.26798 20.8416 8.1217 20.8087 7.98784 20.7453C7.85399 20.6818 7.7359 20.5895 7.64211 20.4748L0.452105 11.6878C0.159736 11.3305 0 10.883 0 10.4213C0 9.95962 0.159736 9.51214 0.452105 9.15481Z" />
</svg>
