<svg width="26" height="31" viewBox="0 0 26 31"  xmlns="http://www.w3.org/2000/svg">
<path d="M19.0124 17.5865H18.2202C17.1112 15.5268 16.319 12.8334 15.5268 10.1399L16.9527 11.5659C21.2305 14.893 25.033 14.2593 25.033 14.2593C25.033 14.2593 26.142 8.23871 21.8643 5.06997C18.2202 2.21811 14.893 2.21811 13.9424 2.37655C13.784 1.42593 13.784 0.633747 13.6256 0L11.4074 0.158437C11.4074 5.22841 7.12965 14.5762 5.70372 17.5865C2.53499 17.9033 0 20.5968 0 23.9239C0 27.4095 2.85186 30.2614 6.33747 30.2614C8.08027 30.2614 9.5062 29.6277 10.6153 28.5186C9.98151 27.0927 9.5062 25.5083 9.5062 23.9239C9.5062 22.3396 9.98151 20.7552 10.6153 19.3293C9.98151 18.6955 9.03089 18.2202 8.23871 17.9033C9.34776 15.5268 11.249 11.249 12.5165 7.12965C13.1502 10.7737 14.4177 15.0515 16.0021 18.3787C14.1009 19.4877 12.6749 21.5474 12.6749 23.9239C12.6749 27.4095 15.5268 30.2614 19.0124 30.2614C22.498 30.2614 25.3499 27.4095 25.3499 23.9239C25.3499 20.4383 22.498 17.5865 19.0124 17.5865ZM6.33747 21.5474C5.06997 21.5474 3.96092 22.6564 3.96092 23.9239H2.37655C2.37655 21.7058 4.11935 19.963 6.33747 19.963V21.5474ZM19.0124 21.5474C17.7449 21.5474 16.6358 22.6564 16.6358 23.9239H15.0515C15.0515 21.7058 16.7943 19.963 19.0124 19.963V21.5474Z" />
</svg>
