<svg width="33" height="32" viewBox="0 0 33 32"  xmlns="http://www.w3.org/2000/svg">
<path fill-rule="evenodd" clip-rule="evenodd" d="M3.09375 17.5312C3.09375 18.9709 3.32063 20.3569 3.74137 21.6562H0V24.75H5.20163C5.445 25.1322 5.70762 25.5001 5.9895 25.8534L2.0625 29.7825L4.24875 31.9688L8.17781 28.0417C10.4631 29.8547 13.3547 30.9375 16.5 30.9375C19.6453 30.9375 22.5369 29.8547 24.8222 28.0417L28.7512 31.9688L30.9375 29.7825L27.0105 25.8534C27.2903 25.4982 27.5532 25.1299 27.7984 24.75H33V21.6562H29.2607C29.69 20.3234 29.9078 18.9315 29.9062 17.5312V3.50894e-07C27.7113 -0.00057206 25.5735 0.699195 23.8037 1.9975C22.0339 3.29581 20.7245 5.12492 20.0661 7.21875H12.9319C12.2735 5.12526 10.9644 3.29639 9.19508 1.99811C7.42572 0.699837 5.28833 -0.000133075 3.09375 3.50894e-07V17.5312ZM16.5 25.7812L12.375 21.6562H20.625L16.5 25.7812Z" />
</svg>
