<svg width="33" height="29" viewBox="0 0 33 29" fill="none" xmlns="http://www.w3.org/2000/svg">
<path fill-rule="evenodd" clip-rule="evenodd" d="M19.2605 2.8822C19.687 2.01658 20.3428 1.28848 21.1543 0.779439C21.9658 0.270394 22.9011 0.000505613 23.8553 0H25.5914C25.7484 0 25.899 0.0632624 26.0101 0.17587C26.1211 0.288478 26.1835 0.441206 26.1835 0.600457V5.93252L32.5974 8.09897C32.7148 8.13919 32.8168 8.21575 32.889 8.31787C32.9613 8.41999 33.0001 8.54253 33 8.6682V10.974C32.9987 12.3546 32.4574 13.6783 31.4946 14.6546C30.5319 15.6308 29.2266 16.1799 27.8651 16.1811H23.9098V16.1859C21.4845 15.6647 19.6844 14.2789 18.3818 12.6456C17.4946 11.5209 16.788 10.2613 16.288 8.91319L19.2605 2.8822ZM13.2587 9.22062H9.46444C7.53445 9.21814 5.66238 8.55175 4.15431 7.33038L0.963971 4.74121C0.876748 4.67058 0.771614 4.62639 0.660693 4.61373C0.549772 4.60107 0.437583 4.62047 0.337063 4.66968C0.236543 4.71889 0.151786 4.79591 0.0925676 4.89186C0.0333491 4.98781 0.00208082 5.09878 0.00236861 5.21197V24.7989C-0.0161101 25.3434 0.0736846 25.886 0.266402 26.3946C0.459119 26.9031 0.750815 27.3671 1.12411 27.7589C1.4974 28.1507 1.94465 28.4623 2.4392 28.6751C2.93375 28.8879 3.46549 28.9976 4.00273 28.9976C4.53996 28.9976 5.0717 28.8879 5.56625 28.6751C6.06081 28.4623 6.50806 28.1507 6.88135 27.7589C7.25464 27.3671 7.54634 26.9031 7.73905 26.3946C7.93177 25.886 8.02156 25.3434 8.00309 24.7989V23.646C8.00371 23.1942 8.18116 22.761 8.49646 22.4417C8.81175 22.1224 9.23912 21.9431 9.6847 21.9431H14.2298C14.4506 21.9431 14.6693 21.9872 14.8733 22.0729C15.0774 22.1586 15.2627 22.2842 15.4189 22.4426C15.5751 22.6009 15.6989 22.7889 15.7834 22.9958C15.8679 23.2027 15.9114 23.4245 15.9114 23.6484V24.8013C15.893 25.3458 15.9827 25.8884 16.1755 26.397C16.3682 26.9055 16.6599 27.3695 17.0332 27.7613C17.4065 28.1531 17.8537 28.4647 18.3483 28.6775C18.8428 28.8903 19.3746 29 19.9118 29C20.449 29 20.9808 28.8903 21.4753 28.6775C21.9699 28.4647 22.4171 28.1531 22.7904 27.7613C23.1637 27.3695 23.4554 26.9055 23.6481 26.397C23.8408 25.8884 23.9306 25.3458 23.9122 24.8013V19.2363C20.3831 18.6622 17.8252 16.7143 16.0796 14.5335C14.8272 12.9516 13.8719 11.15 13.2611 9.21822" />
</svg>
