<svg width="32" height="32" viewBox="0 0 32 32"  xmlns="http://www.w3.org/2000/svg">
<path d="M11.1157 22.011C7.78849 21.6942 4.93663 20.4267 3.19383 18.367C1.92633 18.367 0.65884 17.5748 0.18353 16.3073C-0.29178 15.0398 0.183531 13.7723 1.29259 12.9801C1.45102 8.22705 5.72881 3.31551 12.2247 1.0974C18.7206 -1.12072 25.375 0.146775 28.5437 3.79082C29.8112 3.79082 31.0787 4.583 31.554 5.8505C32.0293 7.11799 31.554 8.38548 30.4449 9.17767C30.4449 10.4452 30.1281 11.7127 29.4943 12.9801C27.5931 11.8711 25.375 11.0789 22.9984 11.0789C16.8194 11.0789 11.591 15.832 11.1157 22.011ZM31.7124 22.9617C31.7124 27.7148 27.7515 31.6757 22.9984 31.6757C18.2453 31.6757 14.2844 27.7148 14.2844 22.9617C14.2844 18.2086 18.2453 14.2476 22.9984 14.2476C27.7515 14.2476 31.7124 18.2086 31.7124 22.9617ZM17.9284 25.3382L21.5725 22.9617L17.9284 20.5851C17.6116 21.3773 17.4531 22.1695 17.4531 22.9617C17.4531 24.1499 17.6116 24.546 17.9284 25.3382ZM22.2062 24.3876L18.8791 26.6057C19.6712 27.5563 20.9387 28.1901 22.2062 28.5069V24.3876ZM22.2062 17.5748C20.9387 17.7332 19.6712 18.367 18.8791 19.476L22.2062 21.6942V17.5748ZM23.7906 21.5357L27.1178 19.3176C26.3256 18.367 25.0581 17.7332 23.7906 17.4164V21.5357ZM27.1178 26.6057L23.7906 24.3876V28.3485C25.0581 28.1901 26.3256 27.5563 27.1178 26.6057ZM28.5437 22.9617C28.5437 22.1695 28.3853 21.3773 28.0684 20.5851L24.4243 22.9617L28.0684 25.3382C28.3853 24.546 28.5437 23.7538 28.5437 22.9617Z" />
</svg>
