<svg width="30" height="30" viewBox="0 0 30 30"  xmlns="http://www.w3.org/2000/svg">
<path d="M23.9551 10.5L22.7573 11.55C22.408 11.875 21.9963 12.0375 21.5221 12.0375C21.048 12.0375 20.6363 11.9 20.287 11.625C19.9376 11.35 19.7006 11 19.5758 10.575C19.451 10.15 19.4635 9.7 19.6132 9.225L20.2121 7.35L18.9395 6.6C18.5402 6.375 18.2598 6.05 18.0981 5.625C17.9364 5.2 17.9174 4.775 18.0412 4.35C18.1649 3.925 18.4145 3.5935 18.7898 3.3555C19.1651 3.1175 19.5893 2.999 20.0624 3H21.5596L22.0087 1.575C22.1585 1.1 22.4145 0.718505 22.7768 0.430505C23.1391 0.142505 23.5319 -0.00099481 23.9551 5.19031e-06C24.3783 0.00100519 24.7716 0.145005 25.1349 0.432005C25.4982 0.719005 25.7537 1.1 25.9014 1.575L26.3506 3H27.8478C28.3219 3 28.7401 3.119 29.1024 3.357C29.4648 3.595 29.7203 3.926 29.869 4.35C30.0437 4.8 30.0437 5.2375 29.869 5.6625C29.6943 6.0875 29.4198 6.4 29.0455 6.6L27.6981 7.35L28.2969 9.225C28.4467 9.7 28.4591 10.1565 28.3344 10.5945C28.2096 11.0325 27.9726 11.376 27.6232 11.625C27.2489 11.9 26.8312 12.0375 26.3701 12.0375C25.9089 12.0375 25.5032 11.875 25.1528 11.55L23.9551 10.5ZM23.9551 7.5C24.3793 7.5 24.7351 7.356 25.0226 7.068C25.31 6.78 25.4533 6.424 25.4523 6C25.4513 5.576 25.3075 5.22 25.0211 4.932C24.7346 4.644 24.3793 4.5 23.9551 4.5C23.5309 4.5 23.1755 4.644 22.8891 4.932C22.6026 5.22 22.4589 5.576 22.4579 6C22.4569 6.424 22.6006 6.7805 22.8891 7.0695C23.1775 7.3585 23.5329 7.502 23.9551 7.5ZM17.6669 23.85C18.2408 25.35 18.0536 26.75 17.1054 28.05C16.1572 29.35 14.8222 30 13.1004 30C12.277 30 11.4974 29.7875 10.7618 29.3625C10.0262 28.9375 9.48322 28.375 9.13288 27.675C7.06176 27.975 5.34648 27.444 3.98702 26.082C2.62757 24.72 2.07211 22.976 2.32065 20.85C1.57205 20.425 0.998129 19.844 0.598877 19.107C0.199626 18.37 0 17.526 0 16.575C0 15.05 0.692701 13.8185 2.0781 12.8805C3.46351 11.9425 4.81697 11.749 6.13849 12.3L8.45914 13.275C8.9582 12.5 9.61946 11.869 10.4429 11.382C11.2664 10.895 12.1522 10.626 13.1004 10.575V7.5H15.3462V10.875C16.2695 11.15 17.0306 11.5815 17.6294 12.1695C18.2283 12.7575 18.7399 13.576 19.1641 14.625H22.4579V16.875H19.3886C19.3387 17.825 19.0832 18.7125 18.6221 19.5375C18.1609 20.3625 17.5431 21.025 16.7686 21.525L17.6669 23.85ZM5.61447 18.6C6.41298 18.6 7.11815 18.5 7.73001 18.3C8.34186 18.1 9.13387 17.7 10.1061 17.1L5.61447 15.225C4.89083 14.925 4.27349 14.9315 3.76245 15.2445C3.2514 15.5575 2.99538 16.051 2.99439 16.725C2.99439 17.375 3.20649 17.85 3.63069 18.15C4.0549 18.45 4.71616 18.6 5.61447 18.6ZM13.1004 27C13.7243 27 14.2298 26.7815 14.6171 26.3445C15.0044 25.9075 15.0977 25.451 14.8971 24.975L12.8759 19.875C12.4017 20.675 12.0339 21.475 11.7724 22.275C11.5109 23.075 11.3797 23.8 11.3787 24.45C11.3787 25.275 11.5224 25.9065 11.8099 26.3445C12.0973 26.7825 12.5275 27.001 13.1004 27ZM15.5708 18.675C15.8203 18.425 16.02 18.0935 16.1697 17.6805C16.3194 17.2675 16.3943 16.8365 16.3943 16.3875C16.3943 15.5875 16.1323 14.9125 15.6082 14.3625C15.0842 13.8125 14.4354 13.5375 13.6619 13.5375C13.2127 13.5375 12.7885 13.6125 12.3893 13.7625C11.99 13.9125 11.6532 14.125 11.3787 14.4L14.2982 15.75L15.5708 18.675Z" />
</svg>
