<svg width="34" height="35" viewBox="0 0 34 35"  xmlns="http://www.w3.org/2000/svg">
<path d="M7.11539 14.1127C7.23897 15.4198 6.54145 16.5535 5.56707 16.6319C4.59268 16.7091 3.70148 15.7133 3.57909 14.4062C3.4555 13.098 4.15302 11.9655 5.12741 11.8871C6.10179 11.8004 6.993 12.7949 7.11539 14.1127ZM12.6979 28.5134C13.6723 28.4362 14.3686 27.3038 14.245 25.9955C14.1226 24.6777 13.2303 23.6831 12.2571 23.771C11.2827 23.8483 10.5852 24.9807 10.7087 26.289C10.8311 27.5961 11.7247 28.5919 12.6979 28.5134ZM28.1455 11.8871C29.1199 11.9643 29.8162 13.0968 29.6926 14.4051C29.5702 15.7229 28.6778 16.7174 27.7034 16.6307C26.7291 16.5523 26.0327 15.4198 26.1563 14.1116C26.2787 12.8045 27.1711 11.8087 28.1455 11.8871ZM26.1278 20.3464C26.2514 19.0393 25.5539 17.9057 24.5807 17.8273C23.6063 17.7501 22.7151 18.7458 22.5915 20.0529C22.4679 21.36 23.1654 22.4936 24.1386 22.5721C25.113 22.6588 26.0042 21.6642 26.1278 20.3464ZM21.0158 23.7699C21.9902 23.8471 22.6865 24.9795 22.563 26.2878C22.4406 27.6056 21.5482 28.6002 20.5738 28.5123C19.5994 28.435 18.9031 27.3026 19.0267 25.9943C19.1491 24.6872 20.0414 23.6914 21.0158 23.7699Z" />
<path d="M14.1203 0.535513L2.96356 5.35159C2.70293 5.46883 2.46924 5.62331 2.26248 5.81502C1.61655 5.97358 1.04252 6.34431 0.632312 6.86784C0.222103 7.39138 -0.000552908 8.03743 1.0311e-06 8.70253V25.5404C8.36253e-05 26.2328 0.201839 26.9103 0.580621 27.49C0.959403 28.0696 1.49881 28.5264 2.13295 28.8046L13.6604 33.8583C14.0133 34.0128 14.3734 34.0936 14.7299 34.1078C15.9577 34.5765 17.3152 34.5765 18.543 34.1078C18.8971 34.0936 19.2584 34.0128 19.6113 33.8583L31.1376 28.8046C31.7721 28.5265 32.3119 28.0696 32.6909 27.4897C33.0699 26.9098 33.2717 26.232 33.2717 25.5392V8.70134C33.272 8.06212 33.0662 7.43983 32.6847 6.92692C32.3032 6.414 31.7665 6.03782 31.1542 5.85423C30.9461 5.64292 30.7002 5.47244 30.4293 5.35159L19.1526 0.535513C18.3608 0.182458 17.5034 0 16.6364 0C15.7694 0 14.9121 0.182458 14.1203 0.535513ZM15.4476 15.2214V31.1395C15.4473 31.2381 15.4226 31.335 15.3756 31.4216C15.3285 31.5081 15.2607 31.5817 15.1782 31.6355C15.0957 31.6894 15.0011 31.7219 14.903 31.7301C14.8048 31.7383 14.7061 31.722 14.6158 31.6826L3.08595 26.6288C2.87462 26.5358 2.69498 26.3832 2.56899 26.1897C2.44301 25.9961 2.37614 25.7701 2.37655 25.5392V8.70134C2.37667 8.60209 2.40165 8.50444 2.44921 8.41733C2.49677 8.33021 2.5654 8.2564 2.64883 8.20263C2.73226 8.14887 2.82783 8.11686 2.92681 8.10953C3.02579 8.1022 3.12504 8.11978 3.21547 8.16067L14.049 13.054C14.466 13.2423 14.8198 13.547 15.0679 13.9314C15.316 14.3159 15.4478 14.7638 15.4476 15.2214ZM17.8241 31.1395V15.219C17.8241 14.7617 17.956 14.314 18.2041 13.9297C18.4522 13.5455 18.8059 13.241 19.2227 13.0528L30.0562 8.15948C30.1468 8.11855 30.2461 8.10097 30.3452 8.10836C30.4443 8.11575 30.5399 8.14786 30.6234 8.20177C30.7068 8.25567 30.7754 8.32965 30.8229 8.41692C30.8704 8.5042 30.8952 8.60198 30.8951 8.70134V25.5392C30.895 25.7698 30.8277 25.9954 30.7016 26.1885C30.5754 26.3816 30.3957 26.5338 30.1846 26.6265L18.6559 31.6814C18.5656 31.7211 18.4667 31.7376 18.3684 31.7295C18.2701 31.7214 18.1753 31.689 18.0926 31.6351C18.0099 31.5812 17.942 31.5076 17.8949 31.4208C17.8478 31.3341 17.8231 31.237 17.8229 31.1383M16.6359 6.53511C14.6669 6.53511 13.071 6.00277 13.071 5.34684C13.071 4.69091 14.6669 4.15856 16.6359 4.15856C18.6048 4.15856 20.2007 4.69091 20.2007 5.34684C20.2007 6.00277 18.6048 6.53511 16.6359 6.53511Z" />
</svg>
