<svg width="23" height="31" viewBox="0 0 23 31"  xmlns="http://www.w3.org/2000/svg">
<path d="M0 31H0.638905L11.9098 14.0333C12.0573 13.7333 11.9754 13.5833 11.6641 13.5833H7.01157L11.9098 4.5C12.0573 4.2 11.9426 4.05 11.5822 4.05H5.34059C5.16038 4.05 5.01294 4.15 4.8655 4.35L0.31126 16.6833C0.278496 16.9833 0.37679 17.1333 0.622522 17.1333H5.12762L0 31ZM13.9248 20.45H14.3672L22.9186 7.66667C23.0006 7.53333 23.0169 7.41667 22.9842 7.33333C22.9514 7.25 22.8531 7.21667 22.7057 7.21667H19.2654L22.8367 0.5C23.0333 0.166667 22.935 0 22.5419 0H18.0531C17.8402 0 17.6764 0.1 17.5617 0.316667L14.1542 9.45C14.105 9.6 14.105 9.71667 14.1706 9.8C14.2361 9.88333 14.3344 9.91667 14.4818 9.91667H17.8238L13.9248 20.45Z" />
</svg>
