<svg width="24" height="22" viewBox="0 0 24 22" fill="none" xmlns="http://www.w3.org/2000/svg">
<path d="M23.945 5.615L21.98 21.04H15.335L13.375 5.54H21.49L23.095 0L24.005 0.275L22.465 5.605L23.95 5.615H23.945ZM12.435 14.54C12.435 14.54 12.685 12.54 9.24 12.54H3.75C0.31 12.54 0.555 14.54 0.555 14.54H12.44H12.435ZM0.55 19.04C0.55 19.04 0.305 21.04 3.75 21.04H9.24C12.685 21.04 12.44 19.04 12.44 19.04H0.55ZM11.92 18.04C12.485 18.04 12.94 17.485 12.94 16.79C12.94 16.095 12.485 15.54 11.92 15.54H1.02C0.46 15.54 0 16.095 0 16.79C0 17.485 0.46 18.04 1.02 18.04H11.92Z" fill="white"/>
</svg>
