<svg width="23" height="26" viewBox="0 0 23 26"  xmlns="http://www.w3.org/2000/svg">
<path d="M0.001031 24.3433C0.001031 23.8955 0.152035 23.5224 0.438943 23.209C0.725851 22.8955 1.08826 22.7463 1.49597 22.7463V22.7164L21.3681 22.7761C21.4587 22.7612 21.5191 22.7463 21.5191 22.7463C21.9268 22.7612 22.2892 22.9254 22.5762 23.2388C22.8631 23.5522 23.0141 23.9403 22.999 24.3881C22.999 24.8358 22.848 25.209 22.5611 25.5224C22.2741 25.8358 21.9117 25.9851 21.504 25.9851V26L1.82818 25.9403C1.67718 25.9552 1.57147 25.9701 1.49597 25.9701C1.29566 25.9688 1.09792 25.9255 0.915734 25.8432C0.733552 25.7609 0.571061 25.6414 0.438943 25.4925C0.136935 25.1791 -0.0140694 24.791 0.001031 24.3433ZM1.23926 16.194C1.22416 15.5522 1.29967 14.806 1.48087 13.9254C1.57147 13.4776 1.78288 12.791 2.14529 11.8806C2.17549 11.806 2.25099 11.6716 2.3416 11.4627C2.3567 11.4925 2.3869 11.5075 2.402 11.5373C2.4171 11.5672 2.4322 11.5672 2.4322 11.5821C2.5983 12.2388 2.83991 12.8358 3.17212 13.3731C3.48923 13.8507 3.89694 14.209 4.41035 14.403C4.80296 14.5672 5.36168 14.6567 6.0714 14.6716H6.31301C5.81469 14.1791 5.42208 13.6716 5.12007 13.1791C4.66706 12.403 4.38015 11.5075 4.25935 10.4776C4.16875 9.67164 4.21405 8.70149 4.39525 7.55224C4.42545 7.32836 4.57646 6.8209 4.83316 6.04478C5.05967 5.34328 5.37678 4.70149 5.79959 4.13433C6.28281 3.40298 6.97742 2.65672 7.89855 1.8806C8.45726 1.41791 9.24249 0.880597 10.2542 0.283582C10.3599 0.223881 10.526 0.119403 10.7827 0V0.164179C10.4203 1.01493 10.1636 1.8806 10.0428 2.74627C9.95221 3.53731 10.073 4.26866 10.4052 4.95522C10.6619 5.49254 11.13 6.07463 11.7945 6.67164C11.9304 6.80597 12.2324 7.10448 12.7005 7.53731C13.1535 7.97015 13.5159 8.31343 13.7575 8.55224L14.135 8.92537C14.5276 8.35821 14.7541 7.68657 14.7994 6.91045C14.8598 6.08955 14.7994 5.19403 14.588 4.22388C14.588 4.20896 14.588 4.16418 14.6031 4.0597C14.6333 4.08955 14.7994 4.20895 15.0561 4.41791C15.9018 5.16418 16.536 5.83582 16.989 6.41791C17.7138 7.34328 18.2423 8.22388 18.5896 9.01493C18.8766 9.70149 19.0578 10.3881 19.1635 11.1045C19.2541 11.7313 19.2843 12.2537 19.2692 12.6716C19.2541 13.8358 19.1182 14.806 18.8917 15.597C18.7859 15.9104 18.6954 16.1642 18.6047 16.3731C18.9823 16.2687 19.3145 16.1343 19.5863 15.9851C19.9638 15.7463 20.2658 15.4328 20.4923 15C20.7339 14.5672 20.9302 14.0746 21.0661 13.5373C21.0661 13.5224 21.0812 13.4925 21.1114 13.4627C21.1265 13.4925 21.1416 13.5373 21.1869 13.597C21.2171 13.6567 21.2473 13.7015 21.2624 13.7463C21.4587 14.209 21.5946 14.6866 21.6701 15.194C21.7909 15.7612 21.8211 16.3134 21.7909 16.8806C21.7607 17.3134 21.6852 17.7164 21.5493 18.0896C21.4285 18.4478 21.3077 18.7313 21.2171 18.9552C20.9302 19.5224 20.6282 20.0149 20.2809 20.4179C20.1903 20.5224 20.1148 20.6119 20.0695 20.6567H3.45903C3.44393 20.6418 3.41373 20.6119 3.35332 20.5672C3.29292 20.5224 3.26272 20.4925 3.23252 20.4627C2.83991 20.0896 2.4171 19.5224 1.99429 18.7761C1.87348 18.5522 1.72248 18.209 1.55637 17.7463C1.37517 17.2836 1.26947 16.7612 1.23926 16.194Z" />
</svg>
