<svg width="40" height="40" viewBox="0 0 40 40" fill="none" xmlns="http://www.w3.org/2000/svg">
<path d="M37.26 0L29.8077 1.92308L33.5585 4.13385L27.6446 5.67231L23.8462 3.50923L16.4415 5.43231L20.1923 7.64308L14.2308 9.18154L10.48 7.01846L3.02923 8.94154L8.65385 12.2585L38.4138 4.47231L37.26 0.00153846V0ZM3.07692 12.2108C2.26087 12.2108 1.47824 12.5349 0.90121 13.112C0.324175 13.689 0 14.4716 0 15.2877C0 16.1037 0.324175 16.8864 0.90121 17.4634C1.47824 18.0404 2.26087 18.3646 3.07692 18.3646C3.89297 18.3646 4.6756 18.0404 5.25264 17.4634C5.82967 16.8864 6.15385 16.1037 6.15385 15.2877C6.15385 14.4716 5.82967 13.689 5.25264 13.112C4.6756 12.5349 3.89297 12.2108 3.07692 12.2108ZM9.23077 16.8262L4.61538 21.4415H12.3077L16.9231 16.8262H9.23077ZM23.0769 16.8262L18.4615 21.4415H26.1538L30.7692 16.8262H23.0769ZM36.9231 16.8262L32.3077 21.4415H40V16.8262H36.9231ZM0 22.98V35.2877C0 36.5118 0.486262 37.6857 1.35181 38.5513C2.21737 39.4168 3.39131 39.9031 4.61538 39.9031H35.3846C36.6087 39.9031 37.7826 39.4168 38.6482 38.5513C39.5137 37.6857 40 36.5118 40 35.2877V22.98H0Z" />
</svg>
