<svg width="30" height="35" viewBox="0 0 30 35" fill="none" xmlns="http://www.w3.org/2000/svg">
<path d="M0 20C0 23.9782 1.58035 27.7936 4.3934 30.6066C7.20644 33.4196 11.0218 35 15 35C15 26.6667 8.28333 20 0 20ZM15 7.5C16.1051 7.5 17.1649 7.93899 17.9463 8.72039C18.7277 9.50179 19.1667 10.5616 19.1667 11.6667C19.1667 12.7717 18.7277 13.8315 17.9463 14.6129C17.1649 15.3943 16.1051 15.8333 15 15.8333C13.8949 15.8333 12.8351 15.3943 12.0537 14.6129C11.2723 13.8315 10.8333 12.7717 10.8333 11.6667C10.8333 10.5616 11.2723 9.50179 12.0537 8.72039C12.8351 7.93899 13.8949 7.5 15 7.5ZM4.33333 15.4167C4.33333 16.5217 4.77232 17.5815 5.55372 18.3629C6.33512 19.1443 7.39493 19.5833 8.5 19.5833C9.38333 19.5833 10.2 19.3 10.8333 18.85V19.1667C10.8333 20.2717 11.2723 21.3315 12.0537 22.1129C12.8351 22.8943 13.8949 23.3333 15 23.3333C16.1051 23.3333 17.1649 22.8943 17.9463 22.1129C18.7277 21.3315 19.1667 20.2717 19.1667 19.1667V18.85C19.8 19.3 20.6167 19.5833 21.5 19.5833C22.6051 19.5833 23.6649 19.1443 24.4463 18.3629C25.2277 17.5815 25.6667 16.5217 25.6667 15.4167C25.6667 13.75 24.6833 12.3333 23.2833 11.6667C24.6833 11 25.6667 9.56667 25.6667 7.91667C25.6667 6.8116 25.2277 5.75179 24.4463 4.97039C23.6649 4.18899 22.6051 3.75 21.5 3.75C20.6167 3.75 19.8 4.01667 19.1667 4.48333V4.16667C19.1667 3.0616 18.7277 2.00179 17.9463 1.22039C17.1649 0.438987 16.1051 0 15 0C13.8949 0 12.8351 0.438987 12.0537 1.22039C11.2723 2.00179 10.8333 3.0616 10.8333 4.16667V4.48333C10.2 4.01667 9.38333 3.75 8.5 3.75C7.39493 3.75 6.33512 4.18899 5.55372 4.97039C4.77232 5.75179 4.33333 6.8116 4.33333 7.91667C4.33333 9.56667 5.31667 11 6.71667 11.6667C5.31667 12.3333 4.33333 13.75 4.33333 15.4167ZM15 35C18.9782 35 22.7936 33.4196 25.6066 30.6066C28.4196 27.7936 30 23.9782 30 20C21.6667 20 15 26.6667 15 35Z" />
</svg>
