<svg width="15" height="15" viewBox="0 0 15 15" fill="none" xmlns="http://www.w3.org/2000/svg">
<path d="M13.2219 0C13.0531 0.08 12.7656 0.21875 12.3719 0.441875C11.8219 0.75375 11.1937 1.18062 10.9375 1.51281C10.8812 1.58562 10.7812 1.8375 10.725 2.05187C10.6875 2.19219 10.6812 2.24 10.6687 2.30969L12.0437 3.68469C12.1125 3.67219 12.1625 3.66594 12.3031 3.62844C12.5187 3.57219 12.7719 3.47219 12.8437 3.41594C13.175 3.15969 13.6031 2.53469 13.9125 1.985C14.1375 1.59062 14.275 1.30344 14.3562 1.13375L13.2219 0ZM12.7719 0.875937L13.4812 1.58312L13.0812 1.98125L12.3719 1.27406L12.7719 0.875937ZM10.3625 2.79719L0.505929 12.6566C0.751554 12.7503 0.995304 12.9159 1.21749 13.1378C1.43905 13.3597 1.60405 13.6034 1.69937 13.8472L11.5562 3.99094L10.3625 2.79719ZM10.1031 3.75656H10.1062C10.2366 3.75843 10.3611 3.81113 10.4531 3.90344C10.5466 3.99717 10.5991 4.12416 10.5991 4.25656C10.5991 4.38896 10.5466 4.51595 10.4531 4.60969C10.4066 4.65646 10.3514 4.69357 10.2905 4.7189C10.2296 4.74423 10.1644 4.75727 10.0984 4.75727C10.0325 4.75727 9.96722 4.74423 9.90635 4.7189C9.84547 4.69357 9.79021 4.65646 9.74374 4.60969C9.65024 4.51595 9.59772 4.38896 9.59772 4.25656C9.59772 4.12416 9.65024 3.99717 9.74374 3.90344C9.79083 3.85623 9.84688 3.81892 9.90859 3.7937C9.97031 3.76847 10.0364 3.75585 10.1031 3.75656ZM8.69374 5.17219C8.82257 5.17403 8.94571 5.22552 9.03749 5.31594C9.08426 5.36241 9.12138 5.41767 9.14671 5.47854C9.17204 5.53941 9.18508 5.60469 9.18508 5.67062C9.18508 5.73656 9.17204 5.80184 9.14671 5.86271C9.12138 5.92358 9.08426 5.97884 9.03749 6.02531C8.94376 6.11882 8.81677 6.17133 8.68437 6.17133C8.55197 6.17133 8.42497 6.11882 8.33124 6.02531C8.28447 5.97884 8.24735 5.92358 8.22203 5.86271C8.1967 5.80184 8.18366 5.73656 8.18366 5.67062C8.18366 5.60469 8.1967 5.53941 8.22203 5.47854C8.24735 5.41767 8.28447 5.36241 8.33124 5.31594C8.37895 5.26891 8.43563 5.23196 8.4979 5.20727C8.56017 5.18257 8.62677 5.17064 8.69374 5.17219ZM7.27812 6.58469C7.40847 6.58655 7.53293 6.63926 7.62499 6.73156C7.7185 6.8253 7.77101 6.95229 7.77101 7.08469C7.77101 7.21709 7.7185 7.34408 7.62499 7.43781C7.53126 7.53132 7.40426 7.58383 7.27187 7.58383C7.13947 7.58383 7.01247 7.53132 6.91874 7.43781C6.82523 7.34408 6.77272 7.21709 6.77272 7.08469C6.77272 6.95229 6.82523 6.8253 6.91874 6.73156C6.96583 6.68436 7.02187 6.64705 7.08359 6.62182C7.14531 6.5966 7.21145 6.58397 7.27812 6.58469ZM5.86249 8.00031H5.86562C5.99488 8.00299 6.11808 8.05563 6.20937 8.14719C6.30287 8.24092 6.35538 8.36791 6.35538 8.50031C6.35538 8.63271 6.30287 8.7597 6.20937 8.85344C6.11563 8.94694 5.98864 8.99946 5.85624 8.99946C5.72384 8.99946 5.59685 8.94694 5.50312 8.85344C5.40961 8.7597 5.3571 8.63271 5.3571 8.50031C5.3571 8.36791 5.40961 8.24092 5.50312 8.14719C5.5502 8.09998 5.60625 8.06267 5.66797 8.03745C5.72968 8.01222 5.79582 7.9996 5.86249 8.00031ZM4.44999 9.41594C4.5799 9.41697 4.70431 9.46853 4.79687 9.55969C4.84364 9.60616 4.88075 9.66142 4.90608 9.72229C4.93141 9.78316 4.94445 9.84844 4.94445 9.91437C4.94445 9.98031 4.93141 10.0456 4.90608 10.1065C4.88075 10.1673 4.84364 10.2226 4.79687 10.2691C4.7504 10.3158 4.69513 10.353 4.63426 10.3783C4.57339 10.4036 4.50811 10.4166 4.44218 10.4166C4.37625 10.4166 4.31097 10.4036 4.2501 10.3783C4.18922 10.353 4.13396 10.3158 4.08749 10.2691C4.04072 10.2226 4.0036 10.1673 3.97828 10.1065C3.95295 10.0456 3.93991 9.98031 3.93991 9.91437C3.93991 9.84844 3.95295 9.78316 3.97828 9.72229C4.0036 9.66142 4.04072 9.60616 4.08749 9.55969C4.1352 9.51266 4.19188 9.47571 4.25415 9.45102C4.31642 9.42632 4.38302 9.41439 4.44999 9.41594ZM0.0856166 13.1316C0.0406166 13.1316 0.0190541 13.1441 0.0153041 13.1472C0.00874157 13.1534 -0.022196 13.2191 0.0287415 13.3816C0.0818665 13.5441 0.212179 13.7597 0.404367 13.9503C0.596554 14.1441 0.810929 14.2753 0.974367 14.3284C1.13562 14.3784 1.20218 14.3472 1.20874 14.3409C1.2153 14.3347 1.24624 14.2659 1.1953 14.1066C1.14249 13.9441 1.01187 13.7284 0.819679 13.5347C0.627492 13.3441 0.413117 13.2128 0.249679 13.1597C0.189367 13.1409 0.142179 13.1347 0.106554 13.1316H0.0856166Z" fill="white"/>
</svg>
