<svg width="17" height="22" viewBox="0 0 17 22" fill="none" xmlns="http://www.w3.org/2000/svg">
<path fill-rule="evenodd" clip-rule="evenodd" d="M13.5003 0.305539C13.6405 0.160287 13.8213 0.0608652 14.0191 0.0203487C14.2169 -0.0201677 14.4223 0.000118285 14.6083 0.0785391L14.7193 0.134539L15.5853 0.634539C15.76 0.735459 15.9002 0.886895 15.9873 1.06894C16.0744 1.25099 16.1044 1.45514 16.0733 1.65454L16.0473 1.77454L15.4803 3.75754C15.4415 3.89303 15.3746 4.0188 15.2838 4.12661C15.1931 4.23442 15.0806 4.32183 14.9537 4.38311C14.8268 4.44439 14.6883 4.47815 14.5475 4.48219C14.4066 4.48623 14.2665 4.46045 14.1363 4.40654L14.0183 4.34854L12.4843 7.00454C13.4043 7.72554 13.8533 8.49754 14.1583 9.21754C14.3813 9.74054 14.5723 10.4225 14.4643 11.1565C14.3593 11.8685 13.9873 12.5185 13.3243 13.0445L13.1353 13.1845C12.7033 13.4885 12.6753 13.7445 12.7773 14.1675L12.9513 14.8175C13.1243 15.5075 13.2903 16.5175 12.9843 17.6745C12.7083 18.7175 12.0413 19.5395 11.2843 20.0855C10.5393 20.6235 9.61828 20.9565 8.74628 20.9115C7.38628 20.8415 5.99728 20.5015 4.15228 19.4365C2.30728 18.3715 1.31828 17.3385 0.578277 16.1965C0.103277 15.4635 -0.0687232 14.4985 0.0242768 13.5845C0.118277 12.6565 0.497277 11.6675 1.26228 10.9075C2.04628 10.1285 2.92228 9.76054 3.59028 9.55554L3.90528 9.46454L4.17728 9.39454C4.70128 9.26054 4.97628 9.16154 5.05728 8.66454L5.07428 8.53054C5.15928 7.57954 5.55228 6.85354 6.16728 6.36554C6.74728 5.90554 7.43528 5.73054 7.99928 5.66154C8.71128 5.57454 9.52028 5.56954 10.4853 5.90454L10.7523 6.00454L12.2863 3.34854C12.1642 3.27804 12.0584 3.18252 11.9758 3.06824C11.8932 2.95396 11.8357 2.82351 11.8071 2.68545C11.7785 2.54739 11.7794 2.40484 11.8097 2.26715C11.8401 2.12947 11.8992 1.99976 11.9833 1.88654L12.0673 1.78654L13.5003 0.305539ZM6.72028 13.9905C6.49925 13.8603 6.2366 13.8199 5.98665 13.8778C5.73671 13.9358 5.5186 14.0876 5.37743 14.3018C5.23627 14.5161 5.18286 14.7764 5.22825 15.0289C5.27363 15.2814 5.41435 15.5069 5.62128 15.6585L5.71928 15.7225L6.58528 16.2225C6.80626 16.3511 7.06809 16.3902 7.31698 16.3317C7.56587 16.2732 7.7829 16.1216 7.92347 15.908C8.06405 15.6945 8.11749 15.4352 8.07282 15.1835C8.02814 14.9317 7.88875 14.7067 7.68328 14.5545L7.58528 14.4905L6.72028 13.9905ZM7.35328 10.8925C7.15786 11.2257 7.09849 11.6214 7.18754 11.9973C7.27659 12.3731 7.50719 12.7001 7.83132 12.9102C8.15545 13.1203 8.54813 13.1972 8.92757 13.125C9.30701 13.0528 9.64397 12.837 9.86828 12.5225L9.95128 12.3925C10.1471 12.0482 10.1987 11.6404 10.0949 11.2581C9.99112 10.8759 9.74035 10.5502 9.39732 10.3521C9.05429 10.1541 8.64684 10.0997 8.2639 10.201C7.88096 10.3022 7.5536 10.5508 7.35328 10.8925Z" fill="white"/>
</svg>
