<svg width="15" height="18" viewBox="0 0 15 18" fill="none" xmlns="http://www.w3.org/2000/svg">
<path d="M6.28949 14.1255L4.40949 1.93546C4.23949 1.90546 4.06449 1.88046 3.90949 1.86046L5.87449 14.6355L6.28949 14.1255ZM7.44449 12.7705L5.83949 2.36046C5.66449 2.28546 5.48449 2.22046 5.29949 2.16046L7.01449 13.2755L7.44449 12.7705ZM8.60449 11.4155L7.35949 3.34546C7.17595 3.17504 6.98045 3.01798 6.77449 2.87546L8.16949 11.9205L8.60449 11.4155ZM9.56449 10.2855L9.75949 10.0555L9.00949 5.18046C8.78869 4.98449 8.58465 4.77041 8.39949 4.54046L9.32949 10.5405L9.56449 10.2855ZM10.9095 8.70546L10.5045 6.05546C10.4198 6.03319 10.3364 6.00649 10.2545 5.97546C10.1535 5.93852 10.0549 5.8951 9.95949 5.84546L10.4595 9.21046L10.9095 8.70546Z" fill="#CDD5DB"/>
<path d="M9.32949 17.5305L9.02949 16.5305C9.00666 16.4544 8.95964 16.3879 8.89558 16.341C8.83151 16.294 8.75389 16.2693 8.67449 16.2705H2.30949C2.23009 16.2693 2.15247 16.294 2.08841 16.341C2.02434 16.3879 1.97733 16.4544 1.95449 16.5305L1.65449 17.5305C1.63798 17.5854 1.63465 17.6435 1.64479 17.6999C1.65492 17.7564 1.67822 17.8097 1.7128 17.8555C1.74738 17.9013 1.79226 17.9383 1.84381 17.9634C1.89536 17.9886 1.95212 18.0013 2.00949 18.0005H8.97449C9.03186 18.0013 9.08862 17.9886 9.14017 17.9634C9.19172 17.9383 9.23661 17.9013 9.27119 17.8555C9.30577 17.8097 9.32907 17.7564 9.3392 17.6999C9.34933 17.6435 9.346 17.5854 9.32949 17.5305Z" fill="white"/>
<path d="M5.21449 16.2955H2.30949C2.23009 16.2943 2.15247 16.319 2.08841 16.366C2.02434 16.4129 1.97733 16.4794 1.95449 16.5555L1.81949 17.0005H9.16449L9.02949 16.5605C9.00666 16.4844 8.95964 16.4179 8.89558 16.371C8.83151 16.324 8.75389 16.2993 8.67449 16.3005L5.21449 16.2955Z" fill="white"/>
<path d="M14.3695 5.92046C14.2904 5.65192 14.1464 5.40698 13.9502 5.20729C13.754 5.0076 13.5116 4.85929 13.2445 4.77546C12.8082 4.63264 12.3569 4.54037 11.8995 4.50046C11.4329 4.49523 10.9755 4.36959 10.5717 4.13571C10.1678 3.90182 9.83124 3.56762 9.59449 3.16546C8.02449 1.04546 5.79449 0.000463746 2.77449 0.000463746H0.964492C0.738759 -0.00662684 0.518019 0.0677908 0.342654 0.210103C0.167289 0.352414 0.0490232 0.553106 0.00949175 0.775464C-0.00916983 0.902579 -0.000245113 1.03222 0.0356593 1.15558C0.0715636 1.27894 0.133606 1.39312 0.217569 1.49037C0.301533 1.58761 0.405448 1.66564 0.522253 1.71915C0.639058 1.77266 0.766014 1.80039 0.894492 1.80046H1.08949L3.11949 14.9505H3.01949C2.94482 14.9502 2.87203 14.9739 2.81176 15.018C2.75149 15.062 2.70689 15.1242 2.68449 15.1955L2.40949 16.1155C2.39389 16.167 2.39056 16.2215 2.39977 16.2745C2.40899 16.3276 2.43049 16.3777 2.46256 16.421C2.49464 16.4642 2.53639 16.4994 2.58447 16.5236C2.63256 16.5478 2.68565 16.5604 2.73949 16.5605H8.23949C8.29333 16.5604 8.34642 16.5478 8.39451 16.5236C8.4426 16.4994 8.48435 16.4642 8.51642 16.421C8.54849 16.3777 8.57 16.3276 8.57921 16.2745C8.58843 16.2215 8.5851 16.167 8.56949 16.1155L8.29449 15.1955C8.27209 15.1242 8.2275 15.062 8.16722 15.018C8.10695 14.9739 8.03416 14.9502 7.95949 14.9505H7.92449L13.6245 8.27546C13.7995 8.06546 14.6545 6.97046 14.3695 5.92046ZM12.1195 7.26546C11.7445 7.76559 11.3422 8.24465 10.9145 8.70046L10.4895 9.20046L9.76449 10.0505L9.56949 10.2805L9.33449 10.5555L8.60949 11.4105L8.17449 11.9105L7.44949 12.7605L6.67949 13.6555L6.29449 14.1105L5.85949 14.6105L5.61449 14.8955C5.60532 14.9081 5.59334 14.9183 5.57949 14.9255H4.76449C4.67731 14.8407 4.61949 14.7304 4.59949 14.6105L2.90949 2.73546C2.89173 2.61904 2.90057 2.5001 2.93534 2.38758C2.9701 2.27505 3.0299 2.17186 3.11024 2.08575C3.19058 1.99963 3.28938 1.93283 3.39923 1.89035C3.50908 1.84787 3.62711 1.83081 3.74449 1.84046H3.88949C4.06449 1.84046 4.23949 1.88546 4.38949 1.91546C4.69076 1.97091 4.98807 2.04607 5.27949 2.14046C5.46449 2.20046 5.64449 2.26546 5.81949 2.34046C6.14653 2.47663 6.45965 2.64407 6.75449 2.84046C6.96045 2.98298 7.15595 3.14004 7.33949 3.31046C7.63225 3.5793 7.89847 3.87566 8.13449 4.19546C8.21449 4.30046 8.29449 4.40546 8.37949 4.50546C8.56464 4.73541 8.76869 4.94949 8.98949 5.14546C9.27691 5.40714 9.5981 5.62912 9.94449 5.80546C10.0399 5.8551 10.1385 5.89852 10.2395 5.93546C10.3214 5.96649 10.4048 5.99319 10.4895 6.01546C10.7186 6.0872 10.9525 6.14234 11.1895 6.18046C11.5145 6.23046 11.9945 6.18046 12.1895 6.51546C12.2524 6.63364 12.2793 6.76766 12.2668 6.90095C12.2544 7.03424 12.2032 7.16097 12.1195 7.26546Z" fill="white"/>
<path d="M12.2145 6.22046C11.9995 5.91546 11.5395 5.94046 11.2145 5.89046C10.9774 5.8507 10.7434 5.79389 10.5145 5.72046L10.2645 5.64546L9.96449 5.50046C9.61774 5.32882 9.29637 5.11008 9.00949 4.85046C8.78951 4.65544 8.58553 4.44309 8.39949 4.21546C8.31449 4.11546 8.23449 4.01046 8.15449 3.90546C7.91949 3.57871 7.65324 3.27561 7.35949 3.00046C7.1759 2.83163 6.98039 2.67623 6.77449 2.53546C6.47966 2.33907 6.16653 2.17163 5.83949 2.03546C5.66449 1.96046 5.48449 1.89546 5.29949 1.83546C4.50808 1.59647 3.68619 1.47353 2.85949 1.47046C2.21449 1.47046 1.53949 1.43046 0.894492 1.47046C0.894492 1.47046 0.0794917 1.52046 0.00949175 0.775464C-0.00916983 0.902579 -0.000245113 1.03222 0.0356593 1.15558C0.0715636 1.27894 0.133606 1.39312 0.217569 1.49037C0.301533 1.58761 0.405448 1.66564 0.522253 1.71915C0.639058 1.77266 0.766014 1.80039 0.894492 1.80046H1.08949L1.33449 3.38046H2.99949L2.90949 2.73546C2.89332 2.62831 2.89966 2.51896 2.9281 2.41439C2.95654 2.30982 3.00646 2.21233 3.07467 2.12812C3.14288 2.04391 3.22789 1.97485 3.32428 1.92532C3.42067 1.87579 3.52632 1.84689 3.63449 1.84046H3.88949C4.06449 1.84046 4.23949 1.88546 4.38949 1.91546C4.69076 1.97091 4.98807 2.04607 5.27949 2.14046C5.46449 2.20046 5.64449 2.26546 5.81949 2.34046C6.14653 2.47663 6.45965 2.64407 6.75449 2.84046C6.96045 2.98298 7.15595 3.14004 7.33949 3.31046C7.63225 3.5793 7.89847 3.87566 8.13449 4.19546C8.21449 4.30046 8.29449 4.40546 8.37949 4.50546C8.56464 4.73541 8.76869 4.94949 8.98949 5.14546C9.27691 5.40714 9.5981 5.62912 9.94449 5.80546C10.0399 5.8551 10.1385 5.89852 10.2395 5.93546C10.3214 5.96649 10.4048 5.99319 10.4895 6.01546C10.7186 6.0872 10.9525 6.14234 11.1895 6.18046C11.5145 6.23046 11.9945 6.18046 12.1895 6.51546C12.2424 6.63124 12.262 6.75946 12.2461 6.88576C12.2302 7.01205 12.1794 7.13142 12.0995 7.23046C12.2113 7.08975 12.2813 6.92049 12.3016 6.74193C12.322 6.56338 12.2918 6.3827 12.2145 6.22046Z" fill="white"/>
</svg>
