<svg width="28" height="49" viewBox="0 0 28 49" xmlns="http://www.w3.org/2000/svg">
<path d="M13.5172 0L10.1379 6.75862L13.5172 11.8276L16.8966 6.75862L13.5172 0ZM6.75862 10.1379L0 13.5172L6.75862 16.8966L11.8276 13.5172L6.75862 10.1379ZM20.2759 10.1379L15.2069 13.5172L20.2759 16.8966L27.0345 13.5172L20.2759 10.1379ZM13.5172 13.5172C10.1379 27.0345 6.75862 33.7931 0 40.5517C1.68966 40.5517 5.06897 40.5517 6.75862 38.8621C6.75862 40.5517 5.06897 43.931 3.37931 45.6207C5.06897 45.6207 8.44828 45.6207 10.1379 43.931C11.8276 45.6207 11.8276 45.6207 13.5172 49C15.2069 45.6207 15.2069 45.6207 16.8966 43.931C18.6757 45.205 21.9655 45.6207 23.6552 45.6207C21.9655 43.931 20.2759 40.5517 20.2759 38.8621C21.9655 40.5517 25.3448 40.5517 27.0345 40.5517C20.2759 33.7931 16.8966 27.0345 13.5172 13.5172Z"/>
</svg>
