<svg width="25" height="25" viewBox="0 0 25 25" fill="none" xmlns="http://www.w3.org/2000/svg">
<path d="M20.7006 24.75L16.9469 18.2325C16.9469 15.8538 15.4756 14.3275 13.6881 14.3275C12.4506 14.3275 11.3781 15.015 10.8281 16.0325C11.2819 15.7712 11.8181 15.6337 12.3819 15.6337C14.1694 15.6337 15.6269 17.0912 15.6269 18.8787C15.6269 20.68 14.1831 22.1513 12.3819 22.1513H16.9194V24.75H5.21813C4.88813 24.75 4.54437 24.6262 4.29688 24.365C4.05338 24.1202 3.91669 23.789 3.91669 23.4437C3.91669 23.0985 4.05338 22.7673 4.29688 22.5225L4.98438 21.835C4.51687 21.6287 4.13188 21.3125 3.74687 20.9825C3.44437 21.67 2.75688 22.1513 1.95938 22.1513C1.43972 22.1513 0.941342 21.9448 0.573888 21.5774C0.206434 21.2099 0 20.7115 0 20.1919C0 19.6722 0.206434 19.1738 0.573888 18.8064C0.941342 18.4389 1.43972 18.2325 1.95938 18.2325L2.60562 18.3425V15.6337C2.60381 14.7774 2.77116 13.929 3.09805 13.1375C3.42494 12.3459 3.90495 11.6267 4.51052 11.0211C5.11608 10.4156 5.83529 9.93557 6.62684 9.60867C7.4184 9.28178 8.26673 9.11444 9.12313 9.11625H9.15062C12.0656 9.13 14.3344 10.2712 14.3344 8.47C14.3344 7.19125 14.6094 6.6825 15.0769 5.9675C14.0731 5.5 12.9319 5.21125 11.7356 5.21125C11.0069 5.21125 10.4294 4.63375 10.4294 3.905C10.4294 3.31375 10.8144 2.81875 11.3506 2.65375L10.4294 2.59875C9.71437 2.59875 9.12313 2.02125 9.12313 1.30625C9.12313 0.5775 9.71437 0 10.4294 0H11.7356C14.6231 0 17.1531 1.58125 18.5144 3.91875L18.8994 3.905C19.8756 3.905 20.7831 4.22125 21.5256 4.74375L22.1444 5.26625C25.1281 7.9475 24.7569 9.7625 24.7569 9.77625C24.7569 11.5363 23.2994 12.98 21.5256 12.98L20.8519 12.9113V13.0213C20.8519 14.5475 20.1919 15.9088 19.1606 16.8713L23.7119 24.75H20.7006ZM20.8519 6.5175C20.1231 6.5175 19.5456 7.095 19.5456 7.81C19.5456 8.53875 20.1231 9.11625 20.8519 9.11625C21.5669 9.11625 22.1581 8.53875 22.1581 7.81C22.1581 7.095 21.5669 6.5175 20.8519 6.5175Z" />
</svg>
