<svg width="32" height="35" viewBox="0 0 32 35" fill="none" xmlns="http://www.w3.org/2000/svg">
<path d="M31.6873 25.3499V28.5186H30.103V30.103H28.5186V31.6873H25.3499V33.2717H22.1811V34.8561H12.6749V33.2717H9.5062V31.6873H6.33747V30.103H4.7531V28.5186H3.16873V25.3499H1.58437V22.1811H0V12.6749H1.58437V9.5062H3.16873V6.33747H4.7531V4.7531H6.33747V3.16873H9.5062V1.58437H12.6749V0H20.5968V1.58437H17.428V3.16873H14.2593V4.7531H12.6749V7.92183H11.0906V11.0906H9.5062V17.428H11.0906V20.5968H12.6749V23.7655H14.2593V25.3499H17.428V26.9342H20.5968V28.5186H26.9342V26.9342H30.103V25.3499H31.6873Z" />
</svg>
