<svg width="34" height="32" viewBox="0 0 34 32" fill="none" xmlns="http://www.w3.org/2000/svg">
<path d="M24.8472 0C26.5995 0 27.9446 1.33562 28.9412 2.77264L29.2787 3.28122L29.5876 3.78822C29.6859 3.95405 29.7799 4.11671 29.8697 4.27621C31.1166 6.50541 32.2018 9.41589 32.9196 12.2915C33.6325 15.145 34.027 18.1252 33.7751 20.4684C33.5216 22.8212 32.3096 25.3499 29.6003 25.3499C27.1699 25.3499 25.2544 24.0507 23.6985 22.7816L21.9399 21.3066C20.4775 20.1088 18.8773 19.0124 16.9254 19.0124C14.9734 19.0124 13.3716 20.1088 11.9124 21.3066L10.1538 22.78C8.59478 24.0507 6.67928 25.3499 4.25045 25.3499C1.53959 25.3499 0.327554 22.8212 0.0756394 20.4684C-0.174691 18.1236 0.218232 15.145 0.931197 12.2915C1.64892 9.41589 2.73421 6.50541 3.9811 4.27621L4.26312 3.78664L4.57207 3.28122L4.90954 2.77264C5.90611 1.33562 7.25124 0 9.00355 0C9.81157 0 10.6148 0.196461 11.4039 0.427779L12.3434 0.716134C12.4987 0.763665 12.6529 0.809083 12.806 0.85239C14.1765 1.24531 15.5787 1.58437 16.9254 1.58437C18.2721 1.58437 19.6743 1.24531 21.0447 0.85239L22.4469 0.429363C23.2359 0.196461 24.0392 0 24.8472 0ZM11.3801 6.33747C10.3296 6.33747 9.32212 6.75478 8.5793 7.49759C7.83649 8.24041 7.41918 9.24788 7.41918 10.2984C7.41918 11.3489 7.83649 12.3564 8.5793 13.0992C9.32212 13.842 10.3296 14.2593 11.3801 14.2593C12.4306 14.2593 13.4381 13.842 14.1809 13.0992C14.9237 12.3564 15.341 11.3489 15.341 10.2984C15.341 9.24788 14.9237 8.24041 14.1809 7.49759C13.4381 6.75478 12.4306 6.33747 11.3801 6.33747ZM22.4707 6.33747C22.0505 6.33747 21.6475 6.50439 21.3503 6.80152C21.0532 7.09864 20.8863 7.50163 20.8863 7.92183V8.71402H20.0941C19.6739 8.71402 19.2709 8.88094 18.9738 9.17807C18.6767 9.47519 18.5097 9.87818 18.5097 10.2984C18.5097 10.7186 18.6767 11.1216 18.9738 11.4187C19.2709 11.7158 19.6739 11.8828 20.0941 11.8828H20.8863V12.6749C20.8863 13.0951 21.0532 13.4981 21.3503 13.7953C21.6475 14.0924 22.0505 14.2593 22.4707 14.2593C22.8909 14.2593 23.2939 14.0924 23.591 13.7953C23.8881 13.4981 24.055 13.0951 24.055 12.6749V11.8828H24.8472C25.2674 11.8828 25.6704 11.7158 25.9675 11.4187C26.2647 11.1216 26.4316 10.7186 26.4316 10.2984C26.4316 9.87818 26.2647 9.47519 25.9675 9.17807C25.6704 8.88094 25.2674 8.71402 24.8472 8.71402H24.055V7.92183C24.055 7.50163 23.8881 7.09864 23.591 6.80152C23.2939 6.50439 22.8909 6.33747 22.4707 6.33747ZM11.3801 9.5062C11.5902 9.5062 11.7917 9.58966 11.9403 9.73822C12.0888 9.88679 12.1723 10.0883 12.1723 10.2984C12.1723 10.5085 12.0888 10.71 11.9403 10.8585C11.7917 11.0071 11.5902 11.0906 11.3801 11.0906C11.17 11.0906 10.9685 11.0071 10.8199 10.8585C10.6714 10.71 10.5879 10.5085 10.5879 10.2984C10.5879 10.0883 10.6714 9.88679 10.8199 9.73822C10.9685 9.58966 11.17 9.5062 11.3801 9.5062Z" />
</svg>
