<svg width="35" height="35" viewBox="0 0 35 35" fill="none" xmlns="http://www.w3.org/2000/svg">
<path d="M3.16873 34.8561H9.5062V31.6873H25.3499V34.8561H31.6873V31.6873H34.8561V15.8437H31.6873V12.6749H28.5186V9.5062H19.0124V3.16873H15.8437V9.5062H6.33747V12.6749H3.16873V15.8437H0V31.6873H3.16873V34.8561ZM9.5062 25.3499V22.1811H6.33747V19.0124H9.5062V15.8437H12.6749V19.0124H15.8437V22.1811H12.6749V25.3499H9.5062ZM22.1811 25.3499V22.1811H19.0124V19.0124H22.1811V15.8437H25.3499V19.0124H28.5186V22.1811H25.3499V25.3499H22.1811ZM22.1811 22.1811H25.3499V19.0124H22.1811V22.1811ZM12.6749 3.16873H15.8437V0H12.6749V3.16873Z" />
</svg>
