<svg width="40" height="28" viewBox="0 0 40 28" xmlns="http://www.w3.org/2000/svg">
<path d="M0 13.9092V2.89746C0 1.2971 1.2971 0 2.89746 0H14.0537C15.654 5.36053e-05 16.9512 1.29714 16.9512 2.89746C16.9512 4.49778 15.654 5.79487 14.0537 5.79492H5.79492V13.9092C5.79468 15.5093 4.49767 16.8066 2.89746 16.8066C1.29726 16.8066 0.000244294 15.5093 0 13.9092Z" />
<path d="M33.7584 13.9089C33.7584 12.3086 35.0555 11.0115 36.6558 11.0115C38.2562 11.0115 39.5533 12.3086 39.5533 13.9089V24.9206C39.5531 26.5208 38.256 27.818 36.6558 27.8181H25.4996C23.8994 27.8181 22.6024 26.5208 22.6021 24.9206C22.6021 23.3203 23.8992 22.0222 25.4996 22.0222H33.7584V13.9089Z" />
<path d="M16.8071 13.9808C16.8071 12.3404 18.1368 11.0106 19.7772 11.0106C21.4176 11.0106 22.7473 12.3404 22.7473 13.9808C22.7473 15.6211 21.4176 16.9509 19.7772 16.9509C18.1368 16.9509 16.8071 15.6211 16.8071 13.9808Z" />
<path d="M22.6018 13.9803C22.6016 12.4202 21.3369 11.1552 19.7767 11.1552C18.2167 11.1554 16.9518 12.4203 16.9516 13.9803C16.9516 15.5405 18.2166 16.8052 19.7767 16.8054L19.7772 16.9509L19.6244 16.947C18.055 16.8675 16.8071 15.5699 16.8071 13.9808C16.8071 12.3404 18.1368 11.0106 19.7772 11.0106C21.4176 11.0106 22.7473 12.3404 22.7473 13.9808L22.7434 14.1336C22.6639 15.7029 21.3663 16.9509 19.7772 16.9509L19.7767 16.8054C21.337 16.8054 22.6018 15.5406 22.6018 13.9803Z" />
<path d="M8.69336 13.9807C8.69336 12.3404 10.0231 11.0106 11.6635 11.0106C13.3039 11.0106 14.6336 12.3404 14.6336 13.9807C14.6336 15.6211 13.3039 16.9509 11.6635 16.9509C10.0231 16.9509 8.69336 15.6211 8.69336 13.9807Z" />
<path d="M14.4881 13.9802C14.4879 12.4201 13.2232 11.1551 11.663 11.1551C10.103 11.1553 8.83811 12.4203 8.83789 13.9802C8.83789 15.5404 10.1029 16.8051 11.663 16.8054L11.6635 16.9509L11.5107 16.947C9.94134 16.8675 8.69336 15.5698 8.69336 13.9807C8.69336 12.3404 10.0231 11.0106 11.6635 11.0106C13.3039 11.0106 14.6336 12.3404 14.6336 13.9807L14.6297 14.1336C14.5502 15.7028 13.2526 16.9509 11.6635 16.9509L11.663 16.8054C13.2233 16.8054 14.4881 15.5406 14.4881 13.9802Z" />
<path d="M24.9206 13.9808C24.9206 12.3404 26.2503 11.0106 27.8907 11.0106C29.5311 11.0106 30.8609 12.3404 30.8609 13.9808C30.8609 15.6211 29.5311 16.9509 27.8907 16.9509C26.2503 16.9509 24.9206 15.6211 24.9206 13.9808Z" />
<path d="M30.7154 13.9803C30.7151 12.4202 29.4504 11.1552 27.8902 11.1552C26.3302 11.1554 25.0653 12.4203 25.0651 13.9803C25.0651 15.5405 26.3301 16.8052 27.8902 16.8054L27.8907 16.9509L27.7379 16.947C26.1685 16.8675 24.9206 15.5699 24.9206 13.9808C24.9206 12.3404 26.2503 11.0106 27.8907 11.0106C29.5311 11.0106 30.8609 12.3404 30.8609 13.9808L30.857 14.1336C30.7774 15.7029 29.4798 16.9509 27.8907 16.9509L27.8902 16.8054C29.4505 16.8054 30.7154 15.5406 30.7154 13.9803Z" />
</svg>
