<svg width="38" height="36" viewBox="0 0 38 36" fill="none" xmlns="http://www.w3.org/2000/svg">
<path d="M37.2083 0V24.4792C37.2083 26.297 36.4862 28.0404 35.2008 29.3258C33.9154 30.6112 32.172 31.3333 30.3542 31.3333C28.5363 31.3333 26.7929 30.6112 25.5075 29.3258C24.2221 28.0404 23.5 26.297 23.5 24.4792C23.5 22.6613 24.2221 20.9179 25.5075 19.6325C26.7929 18.3471 28.5363 17.625 30.3542 17.625C31.4117 17.625 32.4104 17.86 33.2917 18.2908V6.79542L13.7083 10.9667V28.3958C13.7083 30.2137 12.9862 31.9571 11.7008 33.2425C10.4154 34.5279 8.672 35.25 6.85417 35.25C5.03633 35.25 3.29294 34.5279 2.00754 33.2425C0.722133 31.9571 0 30.2137 0 28.3958C0 26.578 0.722133 24.8346 2.00754 23.5492C3.29294 22.2638 5.03633 21.5417 6.85417 21.5417C7.91167 21.5417 8.91042 21.7767 9.79167 22.2075V5.875L37.2083 0Z" />
</svg>
