<svg width="36" height="36" viewBox="0 0 36 36"  xmlns="http://www.w3.org/2000/svg">
<path d="M20.5403 0.252625C19.5764 0.0876088 18.6004 0.00310847 17.6224 0C14.4038 0.000475995 11.2468 0.882288 8.49383 2.54978C5.74087 4.21727 3.49707 6.60677 2.00585 9.45906C0.514625 12.3114 -0.167086 15.5175 0.0346657 18.7298C0.236418 21.9421 1.31393 25.0377 3.15032 27.681C4.36057 25.9088 7.15902 24.675 10.3961 24.675C12.6228 24.675 14.6379 25.2586 16.0694 26.2064L20.5403 0.252625ZM29.9051 5.00158C32.9561 11.7304 30.2791 15.3338 30.2791 15.3338C28.2189 9.11996 22.2382 8.20542 22.2382 8.20542C22.2382 8.20542 18.2824 29.4122 18.2824 29.6883C18.2824 31.9776 15.8501 33.9164 12.5346 34.5C15.1674 35.292 17.9488 35.4575 20.6569 34.9831C23.3649 34.5088 25.9245 33.4078 28.1313 31.768C30.338 30.1283 32.1308 27.9952 33.3664 25.5392C34.6019 23.0832 35.2461 20.3723 35.2474 17.623C35.2493 15.2684 34.7773 12.9375 33.8595 10.7691C32.9417 8.60077 31.5968 6.6393 29.9051 5.00158Z" />
</svg>
