<svg width="44" height="43" viewBox="0 0 44 43" fill="none" xmlns="http://www.w3.org/2000/svg">
<path d="M18.9252 0.000230535C13.3489 -0.0273085 7.81633 2.41284 4.08048 7.11926C-2.38184 15.2598 -1.02123 27.0974 7.11923 33.5597C7.70737 34.0269 8.35683 34.4707 8.9805 34.8568C2.34194 28.1828 1.57598 17.4426 7.5716 9.89061C13.5669 2.33802 24.2003 0.647123 32.2062 5.59856C31.6894 5.07898 31.1091 4.54711 30.521 4.08023C27.0867 1.35387 22.9943 0.0202423 18.9252 0.000230535ZM22.6696 6.24352C21.0932 6.22791 19.5059 6.613 17.9894 7.49086L18.0014 7.51261L17.6425 7.69162C20.6244 13.6641 21.6999 20.5927 21.1267 27.6634C19.6185 25.6754 16.992 24.0714 14.288 23.6813C10.551 23.1424 8.08255 25.126 8.77469 28.1118C9.46703 31.0977 13.0576 33.9551 16.7945 34.494C19.8528 34.9351 22.06 33.6862 22.3822 31.5817C23.1606 26.7019 23.2097 21.8009 22.435 17.1259C27.896 17.0218 32.5485 24.8748 29.0411 32.8289C36.4522 25.6143 29.6617 12.0277 21.5799 13.2295C21.4084 12.6073 21.2203 11.9897 21.0159 11.3774C28.0252 9.32698 36.1853 18.17 33.3539 28.8974C40.4051 19.6279 31.7137 6.33403 22.6696 6.24352ZM33.6696 7.55291C40.512 14.0174 41.6108 24.7287 35.8524 32.4632C30.0945 40.198 19.5183 42.2182 11.3628 37.5177C11.8956 38.0208 12.4919 38.5344 13.0943 38.9828C21.4316 45.1892 33.2215 43.4623 39.4278 35.1247C45.6344 26.7875 43.9073 14.9977 35.57 8.79116C34.9678 8.34255 34.3049 7.91936 33.6696 7.55291Z" />
</svg>
