<svg width="36" height="36" viewBox="0 0 36 36"  xmlns="http://www.w3.org/2000/svg">
<path d="M21.455 0.00405239C19.1353 -0.0512603 16.837 0.46039 14.7598 1.4946C12.6826 2.5288 10.8892 4.05432 9.53516 5.93874C11.4438 5.22578 13.5604 4.94208 15.729 5.21018C22.881 6.0947 27.9757 12.6302 27.0919 19.7896C26.6537 23.3544 24.8045 26.4068 22.1829 28.4714C25.4679 28.2254 28.5664 26.8497 30.9519 24.5779C33.3374 22.3061 34.8627 19.2784 35.2687 16.0094C35.7327 12.2573 34.6876 8.4745 32.3632 5.49277C30.0388 2.51104 26.6254 0.574437 22.8736 0.108769C22.4028 0.050288 21.9293 0.015339 21.455 0.00405239ZM3.13779 5.44858C3.43486 6.24324 3.28632 8.17419 3.06426 8.73119C4.63056 9.4293 4.48945 11.3454 4.2518 11.9173C6.56448 12.2886 6.86155 13.0832 6.92839 14.4349C7.91614 13.5511 8.65138 13.2244 10.5229 14.7171C10.7457 14.1601 11.9488 12.6896 13.5085 13.4026C13.7387 12.8456 14.9418 11.3825 15.6919 11.0409C14.3477 9.77836 12.5504 9.63725 11.273 9.74122C10.8274 10.8701 10.0476 11.8578 9.00787 11.3825L9.47575 9.61497L8.72565 9.93432L8.44344 9.14709L7.56708 10.7513C6.51992 10.2834 6.6536 8.99112 7.09177 7.88454C6.28226 6.8448 4.92763 5.58226 3.13779 5.44858ZM22.324 21.0373C19.331 21.0967 16.9099 22.8791 15.3726 24.3867C15.9593 26.3028 15.9593 28.3971 14.0803 28.9913L12.8401 26.2285L12.1939 27.4837L10.9537 26.8301L11.4884 29.8156C9.59458 30.4024 8.42116 28.6794 7.83444 26.7707C5.64876 26.3994 2.53103 26.3399 0 28.1966C1.23803 28.8502 3.05535 31.4272 3.35316 32.3779C6.17457 31.4941 8.02011 34.0563 8.2949 35.0218C11.778 32.868 13.0109 33.5216 14.5408 35.1406C14.8973 32.9349 15.5434 31.6797 19.5984 31.4347C19.3087 30.484 19.3681 27.3203 22.1977 26.4216C21.9006 25.4636 21.9601 22.2924 22.6136 21.0373H22.324Z" />
</svg>
