<svg width="34" height="33" viewBox="0 0 34 33"  xmlns="http://www.w3.org/2000/svg">
<path fill-rule="evenodd" clip-rule="evenodd" d="M0 3.48049C0 1.5575 1.5575 0 3.48049 0H29.9628C31.8858 0 33.4433 1.5575 33.4433 3.48049V21.602C33.4433 23.525 31.8858 25.0825 29.9628 25.0825H20.3455L21.6235 28.6537H23.8881C24.3632 28.6537 24.8189 28.8425 25.1549 29.1785C25.4909 29.5145 25.6797 29.9702 25.6797 30.4453C25.6797 30.9205 25.4909 31.3762 25.1549 31.7122C24.8189 32.0482 24.3632 32.2369 23.8881 32.2369H9.55522C9.08006 32.2369 8.62436 32.0482 8.28837 31.7122C7.95237 31.3762 7.76362 30.9205 7.76362 30.4453C7.76362 29.9702 7.95237 29.5145 8.28837 29.1785C8.62436 28.8425 9.08006 28.6537 9.55522 28.6537H11.8198L13.0978 25.0825H3.48049C3.02342 25.0825 2.57084 24.9924 2.14856 24.8175C1.72629 24.6426 1.3426 24.3862 1.01941 24.063C0.696218 23.7398 0.439847 23.3562 0.264936 22.9339C0.0900255 22.5116 0 22.059 0 21.602V3.48049ZM4.93049 12.0157C4.93049 11.1916 5.59936 10.5227 6.4235 10.5227H8.5137V8.43248C8.5137 8.03651 8.671 7.65676 8.95099 7.37677C9.23098 7.09678 9.61074 6.93948 10.0067 6.93948C10.4027 6.93948 10.7824 7.09678 11.0624 7.37677C11.3424 7.65676 11.4997 8.03651 11.4997 8.43248V10.5227H13.5899C13.9859 10.5227 14.3656 10.68 14.6456 10.96C14.9256 11.24 15.0829 11.6197 15.0829 12.0157C15.0829 12.4117 14.9256 12.7914 14.6456 13.0714C14.3656 13.3514 13.9859 13.5087 13.5899 13.5087H11.4997V15.5989C11.4997 15.9949 11.3424 16.3746 11.0624 16.6546C10.7824 16.9346 10.4027 17.0919 10.0067 17.0919C9.61074 17.0919 9.23098 16.9346 8.95099 16.6546C8.671 16.3746 8.5137 15.9949 8.5137 15.5989V13.5087H6.4235C6.02753 13.5087 5.64778 13.3514 5.36778 13.0714C5.08779 12.7914 4.93049 12.4117 4.93049 12.0157ZM24.1413 9.6866C24.1413 10.241 24.3615 10.7726 24.7535 11.1646C25.1455 11.5566 25.6771 11.7768 26.2315 11.7768C26.7858 11.7768 27.3175 11.5566 27.7095 11.1646C28.1015 10.7726 28.3217 10.241 28.3217 9.6866C28.3217 9.13225 28.1015 8.6006 27.7095 8.20861C27.3175 7.81662 26.7858 7.5964 26.2315 7.5964C25.6771 7.5964 25.1455 7.81662 24.7535 8.20861C24.3615 8.6006 24.1413 9.13225 24.1413 9.6866ZM19.5046 14.3448C19.5046 14.8991 19.7248 15.4308 20.1168 15.8228C20.5088 16.2148 21.0404 16.435 21.5948 16.435C22.1492 16.435 22.6808 16.2148 23.0728 15.8228C23.4648 15.4308 23.685 14.8991 23.685 14.3448C23.685 13.7904 23.4648 13.2588 23.0728 12.8668C22.6808 12.4748 22.1492 12.2546 21.5948 12.2546C21.0404 12.2546 20.5088 12.4748 20.1168 12.8668C19.7248 13.2588 19.5046 13.7904 19.5046 14.3448Z" />
</svg>
