<svg width="39" height="39" viewBox="0 0 39 39" xmlns="http://www.w3.org/2000/svg">
<path fill-rule="evenodd" clip-rule="evenodd" d="M7.7076 9.09126C7.90217 9.94126 8.17157 10.8231 8.51385 11.7193C7.63967 11.8067 6.81092 11.9427 6.04029 12.1258C4.62116 12.4631 3.30449 12.9826 2.25888 13.7357C1.20386 14.4955 0.316807 15.5802 0.0675176 17.0167C-0.181771 18.4531 0.28665 19.7807 1.02228 20.8613C1.75135 21.9323 2.81372 22.878 4.03375 23.6881C4.26166 23.8394 4.49791 23.9879 4.74203 24.1333C7.12502 25.5637 10.269 26.699 13.7337 27.3197C17.6411 28.0197 21.3583 27.645 24.1834 26.8156C24.3379 26.7703 24.4905 26.7233 24.6411 26.6748C24.2262 28.4535 23.9439 30.1499 23.8111 31.6531C23.6814 33.1211 23.684 34.5139 23.9002 35.6559C24.0638 36.5197 24.4724 37.8777 25.6472 38.5627C25.804 38.6588 25.9748 38.7427 26.161 38.8116C27.5772 39.3353 28.877 38.6635 29.6843 38.0604C30.5621 37.4047 31.408 36.4365 32.1912 35.3306C33.774 33.0958 35.3719 29.911 36.6642 26.3034C37.9565 22.6958 38.7473 19.2125 38.9486 16.4669C39.0482 15.1081 39.0128 13.814 38.7552 12.7384C38.5472 11.8699 38.082 10.7129 37.0132 10.089C36.8495 9.98883 36.6713 9.90128 36.4772 9.82951C35.2092 9.36056 33.9964 9.78969 33.1215 10.3378C32.2281 10.8974 31.3857 11.7542 30.6138 12.7545C30.0725 13.456 29.532 14.2725 29.0027 15.1913C28.1374 12.9499 26.7681 10.4272 24.745 7.97748C22.5665 5.33959 20.1298 3.2023 17.7989 1.81396C17.4635 1.61267 17.1302 1.42682 16.8002 1.25716C15.4997 0.588654 14.1624 0.126733 12.885 0.0206983C11.5961 -0.0862918 10.2685 0.211446 9.16875 1.14904C8.08496 2.08205 7.58558 3.42979 7.41101 4.74176C7.23343 6.07629 7.35974 7.5716 7.7076 9.09126ZM15.1111 4.79038C15.3494 4.91287 15.5928 5.04793 15.8404 5.19526C17.6987 6.31163 19.7895 8.11396 21.7328 10.467C22.9615 11.9549 23.9006 13.4639 24.5997 14.878C22.3172 13.6382 19.4476 12.6568 16.3159 12.0957C15.0853 11.8752 13.8708 11.7298 12.6944 11.6571C12.1233 10.4513 11.7145 9.27648 11.4686 8.20247C11.1935 7.00031 11.1399 6.00163 11.2376 5.26741C11.3375 4.51709 11.5644 4.22815 11.6669 4.14078C11.7645 4.05751 12.0154 3.91286 12.6247 3.96344C13.2456 4.01497 14.088 4.26444 15.1111 4.79038ZM14.3501 23.4235C11.2605 22.87 8.59704 21.8802 6.70073 20.7521C6.52727 20.6479 6.36035 20.5425 6.20025 20.4362C5.2404 19.7989 4.60655 19.1823 4.25221 18.6618C3.90445 18.151 3.9023 17.8579 3.92444 17.7303C3.94657 17.6028 4.04725 17.3281 4.54601 16.9689C5.05419 16.6029 5.85735 16.2438 6.97384 15.9785C7.96151 15.7438 9.12063 15.5999 10.402 15.5658C11.0371 16.6172 11.7674 17.6546 12.5899 18.6506C14.5391 21.0109 16.8452 22.6645 19.133 23.689C17.6384 23.7861 16.0157 23.7219 14.3501 23.4235ZM15.6995 15.9919C18.7892 16.5454 21.4528 17.5353 23.3491 18.6634C23.5225 18.7676 23.6893 18.8729 23.8494 18.9792C24.8092 19.6165 25.4431 20.233 25.7974 20.7536C25.8445 20.8228 25.8853 20.8881 25.9206 20.9494C25.7558 20.9862 25.569 21.0165 25.3587 21.0368C24.5645 21.1136 23.5609 21.0327 22.4371 20.7271C20.1931 20.117 17.6346 18.6554 15.548 16.1287C15.4958 16.0655 15.444 16.0021 15.3927 15.9386C15.4947 15.9557 15.597 15.9735 15.6995 15.9919ZM33.7068 15.2076C34.2167 14.5468 34.6554 14.1131 34.9943 13.8547C35.0846 14.3737 35.1176 15.1355 35.0437 16.143C34.8754 18.438 34.1882 21.5605 32.9815 24.9291C31.7748 28.2977 30.3258 31.1386 29.0028 33.0065C28.5034 33.7117 28.0583 34.2261 27.6907 34.5717C27.6206 33.9519 27.6172 33.1002 27.7112 32.0362C27.9279 29.5831 28.6257 26.3871 29.737 23.1775C29.7951 23.0518 29.8468 22.9195 29.8899 22.7806C29.9872 22.5697 30.0549 22.358 30.103 22.1608C31.2561 19.0774 32.5469 16.7107 33.7068 15.2076Z" />
</svg>
