<svg width="38" height="38" viewBox="0 0 38 38"  xmlns="http://www.w3.org/2000/svg">
<path d="M31.542 31.542C27.3854 35.6781 21.7602 38 15.8964 38C10.0326 38 4.40734 35.6781 0.250768 31.542C0.17162 31.4679 0.108525 31.3783 0.0653908 31.2789C0.0222563 31.1794 0 31.0721 0 30.9637C0 30.8553 0.0222563 30.748 0.0653908 30.6486C0.108525 30.5491 0.17162 30.4595 0.250768 30.3854L2.57979 28.0247C2.72787 27.8796 2.92696 27.7983 3.13432 27.7983C3.34167 27.7983 3.54076 27.8796 3.68884 28.0247C5.28676 29.6216 7.18356 30.8881 9.27094 31.7519C11.3583 32.6157 13.5954 33.06 15.8545 33.0592C18.1135 33.0585 20.3503 32.6128 22.4371 31.7476C24.5239 30.8824 26.4199 29.6147 28.0168 28.0168C29.6137 26.4189 30.8802 24.5221 31.744 22.4347C32.6078 20.3473 33.0521 18.1102 33.0513 15.8512C33.0506 13.5921 32.6049 11.3553 31.7397 9.26851C30.8745 7.18169 29.6068 5.28572 28.0089 3.68884C27.8637 3.54076 27.7824 3.34167 27.7824 3.13432C27.7824 2.92696 27.8637 2.72787 28.0089 2.57979L30.3854 0.250768C30.4595 0.17162 30.5491 0.108525 30.6486 0.0653908C30.748 0.0222563 30.8553 0 30.9637 0C31.0721 0 31.1794 0.0222563 31.2789 0.0653908C31.3783 0.108525 31.4679 0.17162 31.542 0.250768C35.6781 4.40734 38 10.0326 38 15.8964C38 21.7602 35.6781 27.3854 31.542 31.542Z" />
<path d="M26.5508 5.24148C26.4052 5.08918 26.2068 4.99846 25.9963 4.98798C25.8772 4.97705 25.7571 4.99269 25.6448 5.03379C25.5325 5.07489 25.4307 5.14041 25.3467 5.22564L5.22527 25.3471C5.14751 25.4232 5.08628 25.5146 5.04539 25.6155C5.0045 25.7163 4.98483 25.8245 4.98761 25.9333C4.99809 26.1438 5.0888 26.3422 5.24111 26.4878C8.10616 29.07 11.8523 30.4551 15.708 30.3579C19.5638 30.2607 23.2354 28.6886 25.9667 25.9654C28.698 23.2422 30.281 19.5753 30.3897 15.7199C30.4984 11.8645 29.1244 8.11421 26.5508 5.24148ZM11.8796 27.2483C11.024 27.2483 10.2952 26.2185 10.2952 24.9352C10.2952 23.6518 10.9765 22.6378 11.8796 22.6378C12.7827 22.6378 13.464 23.6677 13.464 24.9352C13.464 26.2027 12.6718 27.2483 11.8796 27.2483ZM22.178 22.1784C21.5759 22.7804 20.356 22.5269 19.4529 21.6238C18.5498 20.7207 18.3597 19.5642 19.0093 19.0096C19.6588 18.4551 20.8154 18.6452 21.7185 19.5483C22.6216 20.4514 22.8276 21.6238 22.178 22.1784ZM24.8873 13.3693C23.6198 13.3693 22.5899 12.688 22.5899 11.7849C22.5899 10.8818 23.6198 10.2006 24.8873 10.2006C26.1547 10.2006 27.2004 10.8977 27.2004 11.7849C27.2004 12.6722 26.2181 13.4168 24.9348 13.4168L24.8873 13.3693Z" />
</svg>
