<svg width="30" height="32" viewBox="0 0 30 32" fill="none" xmlns="http://www.w3.org/2000/svg">
<path d="M19.1111 12.3429C22 12.3429 23.7778 8 23.7778 5.25714C23.7778 2.97143 22.6667 0.228571 20.4444 0.228571C17.5556 0.228571 15.7778 4.57143 15.7778 7.31428C15.7778 9.6 16.8889 12.3429 19.1111 12.3429ZM10.6667 12.3429C12.8889 12.3429 14 9.6 14 7.31428C14 4.34286 12.2222 0 9.33333 0C7.11111 0 6 2.74286 6 5.02857C5.77778 8 7.55556 12.3429 10.6667 12.3429ZM27.1111 10.0571C24.2222 10.0571 22.2222 14.1714 22.2222 17.1429C22.2222 19.2 23.1111 21.2571 25.1111 21.2571C28 21.2571 30 17.1429 30 14.1714C30 12.1143 28.8889 10.0571 27.1111 10.0571ZM7.77778 17.1429C7.77778 14.1714 5.55556 10.0571 2.88889 10.0571C0.888889 10.0571 0 12.1143 0 14.1714C0 17.1429 2.22222 21.2571 4.88889 21.2571C6.88889 21.2571 7.77778 19.2 7.77778 17.1429ZM14.8889 16.6857C10.4444 16.6857 4.44445 24 4.44445 29.0286C4.44445 31.3143 6 32 7.77778 32C10.4444 32 12.4444 30.1714 14.8889 30.1714C17.1111 30.1714 19.1111 32 21.5556 32C23.3333 32 25.3333 31.5429 25.3333 29.0286C25.3333 24 19.3333 16.6857 14.8889 16.6857Z" />
</svg>
