<svg width="20" height="21" viewBox="0 0 20 21"  xmlns="http://www.w3.org/2000/svg">
<path d="M8.951 14.893C7.94749 15.6193 6.73873 16.007 5.5 16C2.462 16 0 13.761 0 11C0 7.452 3.525 4.911 6.644 2.662C7.92 1.742 9.129 0.872 10 0C10.871 0.871 12.08 1.742 13.356 2.662C16.476 4.911 20 7.452 20 11C20 13.761 17.538 16 14.5 16C13.2613 16.007 12.0525 15.6193 11.049 14.893C11.333 16.539 12.058 17.713 12.843 18.985L13.212 19.587C13.596 20.223 13.125 21 12.382 21H7.618C6.875 21 6.404 20.223 6.788 19.587L7.157 18.985C7.942 17.713 8.667 16.539 8.951 14.893Z" />
</svg>
