<svg width="23" height="37" viewBox="0 0 23 37" fill="none" xmlns="http://www.w3.org/2000/svg">
<path d="M23 25.6154C23 31.8959 17.8442 37 11.5 37C5.15583 37 0 31.8959 0 25.6154C0 19.9231 3.83333 19.9231 3.83333 14.2308C3.83333 11.4985 5.27083 8.9559 7.66667 7.58974C8.43333 7.15333 9.23833 6.86872 10.0625 6.71692V4.74359C10.0625 4.04154 9.90917 3.64308 9.64083 3.37744C9.39167 3.1118 8.87417 2.84615 7.66667 2.84615V0C9.35333 0 10.7333 0.43641 11.6725 1.36615C12.6117 2.2959 12.9375 3.56718 12.9375 4.74359V6.71692C13.7617 6.86872 14.5858 7.15333 15.3333 7.58974C17.7292 8.9559 19.1667 11.4985 19.1667 14.2308C19.1667 19.9231 23 19.9231 23 25.6154Z" />
</svg>
