<svg width="33" height="26" viewBox="0 0 33 26" fill="none" xmlns="http://www.w3.org/2000/svg">
<path d="M15.7674 0.371512C15.1602 -0.0928779 14.3354 -0.121902 13.6881 0.284438C13.0408 0.690779 12.7201 1.46863 12.869 2.22326L13.4246 5.04443C12.3134 5.56687 11.311 6.1996 10.4231 6.87296C9.54677 7.54052 8.76203 8.26033 8.09186 8.98013L2.7591 5.82809C2.04311 5.40433 1.13236 5.52043 0.542374 6.11253C-0.047608 6.70462 -0.167896 7.62179 0.238791 8.3532L2.86794 13.0029L0.244519 17.6526C-0.167896 18.384 -0.04188 19.3012 0.548102 19.8933C1.13808 20.4854 2.04311 20.6015 2.76483 20.1777L8.09759 17.0257C8.77349 17.7397 9.55249 18.4653 10.4289 19.1328C11.3167 19.8062 12.3191 20.4389 13.4303 20.9614L12.8747 23.7825C12.7258 24.5372 13.0523 25.3092 13.6938 25.7156C14.3354 26.1219 15.1602 26.0929 15.7731 25.6285L20.218 22.2501C23.3627 22.0179 26.0319 20.6827 28.0768 19.127C30.3222 17.4204 31.926 15.3713 32.7508 13.9317C33.0831 13.357 33.0831 12.643 32.7508 12.0683C31.926 10.6287 30.3164 8.57959 28.0768 6.87296C26.0262 5.31726 23.3627 3.98214 20.218 3.74994L15.7674 0.371512ZM21.9994 13.0029C21.9994 11.9754 22.8185 11.1453 23.8324 11.1453C24.8462 11.1453 25.6653 11.9754 25.6653 13.0029C25.6653 14.0304 24.8462 14.8605 23.8324 14.8605C22.8185 14.8605 21.9994 14.0304 21.9994 13.0029Z" />
</svg>
