<svg width="29" height="33" viewBox="0 0 29 33" fill="none" xmlns="http://www.w3.org/2000/svg">
<path d="M20.0633 0C20.4415 7.96955e-09 20.8042 0.150232 21.0716 0.417645C21.339 0.685059 21.4892 1.04775 21.4892 1.42593C21.4892 1.80411 21.339 2.1668 21.0716 2.43421C20.8042 2.70163 20.4415 2.85186 20.0633 2.85186C18.4789 2.85186 17.3081 3.84209 16.527 5.49141C18.5217 4.6517 20.6574 4.36176 22.5698 4.87351C25.1871 5.57539 27.1834 7.05994 28.1261 9.57908C29.0276 11.9873 28.8708 15.1006 27.8536 18.9015C27.0377 21.9482 25.5626 24.5989 23.56 26.3401C21.5209 28.1114 18.9305 28.9274 16.1277 28.178C15.5153 28.0116 14.9221 27.7811 14.358 27.4903C13.7944 27.781 13.2017 28.0115 12.5898 28.178C9.78709 28.9274 7.19665 28.1114 5.15916 26.3401C3.15493 24.5973 1.68147 21.9482 0.865523 18.9015C-0.153225 15.1006 -0.308493 11.9857 0.591427 9.58066C1.53571 7.06152 3.53201 5.57539 6.14939 4.8751C7.30914 4.56456 8.5497 4.54713 9.79343 4.77053C8.48157 3.55849 7.97458 1.88381 8.1441 1.58437C8.35166 1.22788 10.7789 0.722471 12.753 1.86163C13.4581 2.26881 14.0094 2.83285 14.4166 3.40322C15.5463 1.54634 17.3683 0 20.0633 0Z" />
</svg>
