<svg width="36" height="36" viewBox="0 0 36 36" fill="none" xmlns="http://www.w3.org/2000/svg">
<path d="M10.5554 35.25L0 24.6946C0 26.8292 0.0783334 28.8071 0.391667 30.6087C0.685417 32.4104 0.979167 33.4875 1.39042 33.8596C1.7625 34.2708 2.82 34.5646 4.60208 34.8779C6.38417 35.1912 8.36208 35.25 10.5554 35.25ZM24.4792 13.4929L13.4929 24.4792L10.7708 21.7571L21.7571 10.7708L24.4792 13.4929ZM0.567917 19.74L15.51 34.6821C20.9542 33.7029 25.2625 31.6271 28.4546 28.4546C31.6271 25.2625 33.7029 20.9542 34.6821 15.51L19.74 0.567917C14.2958 1.54708 9.9875 3.62292 6.79542 6.79542C3.60333 9.96792 1.54708 14.2958 0.567917 19.74ZM24.6946 0L35.25 10.5554C35.25 8.42083 35.1717 6.44292 34.8779 4.64125C34.5646 2.83958 34.2708 1.7625 33.8596 1.39042C33.4875 0.979167 32.43 0.685417 30.6479 0.391667C28.8658 0.0979168 26.8879 0 24.6946 0Z" />
</svg>
