<svg width="30" height="30" viewBox="0 0 30 30"  xmlns="http://www.w3.org/2000/svg">
<path d="M15 25C15.3315 25 15.6495 25.1317 15.8839 25.3661C16.1183 25.6005 16.25 25.9185 16.25 26.25V28.75C16.25 29.0815 16.1183 29.3995 15.8839 29.6339C15.6495 29.8683 15.3315 30 15 30C14.6685 30 14.3505 29.8683 14.1161 29.6339C13.8817 29.3995 13.75 29.0815 13.75 28.75V26.25C13.75 25.9185 13.8817 25.6005 14.1161 25.3661C14.3505 25.1317 14.6685 25 15 25ZM6.16125 22.0712C6.27656 21.9519 6.41449 21.8566 6.56699 21.7911C6.7195 21.7256 6.88352 21.6911 7.0495 21.6897C7.21547 21.6882 7.38007 21.7199 7.53369 21.7827C7.68731 21.8456 7.82688 21.9384 7.94424 22.0558C8.06161 22.1731 8.15443 22.3127 8.21728 22.4663C8.28013 22.6199 8.31176 22.7845 8.31031 22.9505C8.30887 23.1165 8.27439 23.2805 8.20888 23.433C8.14337 23.5855 8.04814 23.7234 7.92875 23.8387L6.16125 25.6063C5.9255 25.8339 5.60974 25.9599 5.282 25.9571C4.95425 25.9542 4.64074 25.8228 4.40898 25.591C4.17722 25.3593 4.04576 25.0457 4.04291 24.718C4.04006 24.3903 4.16605 24.0745 4.39375 23.8387L6.16125 22.0712ZM22.0712 22.0712C22.3057 21.8369 22.6235 21.7053 22.955 21.7053C23.2865 21.7053 23.6043 21.8369 23.8387 22.0712L25.6063 23.8387C25.8339 24.0745 25.9599 24.3903 25.9571 24.718C25.9542 25.0457 25.8228 25.3593 25.591 25.591C25.3593 25.8228 25.0457 25.9542 24.718 25.9571C24.3903 25.9599 24.0745 25.8339 23.8387 25.6063L22.0712 23.8387C21.8369 23.6043 21.7053 23.2865 21.7053 22.955C21.7053 22.6235 21.8369 22.3057 22.0712 22.0712ZM15 7.5C16.9891 7.5 18.8968 8.29018 20.3033 9.6967C21.7098 11.1032 22.5 13.0109 22.5 15C22.5 16.9891 21.7098 18.8968 20.3033 20.3033C18.8968 21.7098 16.9891 22.5 15 22.5C13.0109 22.5 11.1032 21.7098 9.6967 20.3033C8.29018 18.8968 7.5 16.9891 7.5 15C7.5 13.0109 8.29018 11.1032 9.6967 9.6967C11.1032 8.29018 13.0109 7.5 15 7.5ZM3.75 13.75C4.08152 13.75 4.39946 13.8817 4.63388 14.1161C4.8683 14.3505 5 14.6685 5 15C5 15.3315 4.8683 15.6495 4.63388 15.8839C4.39946 16.1183 4.08152 16.25 3.75 16.25H1.25C0.918479 16.25 0.600537 16.1183 0.366117 15.8839C0.131696 15.6495 0 15.3315 0 15C0 14.6685 0.131696 14.3505 0.366117 14.1161C0.600537 13.8817 0.918479 13.75 1.25 13.75H3.75ZM28.75 13.75C29.0815 13.75 29.3995 13.8817 29.6339 14.1161C29.8683 14.3505 30 14.6685 30 15C30 15.3315 29.8683 15.6495 29.6339 15.8839C29.3995 16.1183 29.0815 16.25 28.75 16.25H26.25C25.9185 16.25 25.6005 16.1183 25.3661 15.8839C25.1317 15.6495 25 15.3315 25 15C25 14.6685 25.1317 14.3505 25.3661 14.1161C25.6005 13.8817 25.9185 13.75 26.25 13.75H28.75ZM4.39375 4.39375C4.62816 4.15941 4.94604 4.02777 5.2775 4.02777C5.60896 4.02777 5.92684 4.15941 6.16125 4.39375L7.92875 6.16125C8.04814 6.27656 8.14337 6.41449 8.20888 6.56699C8.27439 6.7195 8.30887 6.88352 8.31031 7.0495C8.31176 7.21547 8.28013 7.38007 8.21728 7.53369C8.15443 7.68731 8.06161 7.82688 7.94424 7.94424C7.82688 8.06161 7.68731 8.15443 7.53369 8.21728C7.38007 8.28013 7.21547 8.31176 7.0495 8.31031C6.88352 8.30887 6.7195 8.27439 6.56699 8.20888C6.41449 8.14337 6.27656 8.04814 6.16125 7.92875L4.39375 6.16125C4.15941 5.92684 4.02777 5.60896 4.02777 5.2775C4.02777 4.94604 4.15941 4.62816 4.39375 4.39375ZM23.8387 4.39375C24.0745 4.16605 24.3903 4.04006 24.718 4.04291C25.0457 4.04576 25.3593 4.17722 25.591 4.40898C25.8228 4.64074 25.9542 4.95425 25.9571 5.282C25.9599 5.60974 25.8339 5.9255 25.6063 6.16125L23.8387 7.92875C23.7234 8.04814 23.5855 8.14337 23.433 8.20888C23.2805 8.27439 23.1165 8.30887 22.9505 8.31031C22.7845 8.31176 22.6199 8.28013 22.4663 8.21728C22.3127 8.15443 22.1731 8.06161 22.0558 7.94424C21.9384 7.82688 21.8456 7.68731 21.7827 7.53369C21.7199 7.38007 21.6882 7.21547 21.6897 7.0495C21.6911 6.88352 21.7256 6.7195 21.7911 6.56699C21.8566 6.41449 21.9519 6.27656 22.0712 6.16125L23.8387 4.39375ZM15 0C15.3315 0 15.6495 0.131696 15.8839 0.366117C16.1183 0.600537 16.25 0.918479 16.25 1.25V3.75C16.25 4.08152 16.1183 4.39946 15.8839 4.63388C15.6495 4.8683 15.3315 5 15 5C14.6685 5 14.3505 4.8683 14.1161 4.63388C13.8817 4.39946 13.75 4.08152 13.75 3.75V1.25C13.75 0.918479 13.8817 0.600537 14.1161 0.366117C14.3505 0.131696 14.6685 0 15 0Z" />
</svg>
