<svg width="42" height="42" viewBox="0 0 42 42"  xmlns="http://www.w3.org/2000/svg">
<path d="M39.7561 9.64411C39.1475 8.2637 38.3486 6.97533 37.3826 5.81655L32.2626 10.9366C33.4612 11.646 34.8732 11.9055 36.2457 11.6686C37.6182 11.4318 38.8616 10.7141 39.7532 9.64411M30.1828 8.8598L35.3029 3.73974C34.145 2.77398 32.8576 1.97506 31.4782 1.36624C30.4075 2.25797 29.6893 3.5019 29.4525 4.87508C29.2156 6.24825 29.4756 7.66089 30.1858 8.8598M26.4375 5.8753C26.4375 7.7788 27.0426 9.5413 28.0678 10.9807L25.7031 13.3454L15.4571 3.09642C17.2983 1.75884 19.4004 0.823799 21.6267 0.352113C23.8531 -0.119572 26.1538 -0.117337 28.3792 0.358674C27.1229 1.92291 26.4379 3.86901 26.4375 5.8753ZM27.7799 15.4222L30.1446 13.0575C31.584 14.0856 33.3465 14.6878 35.25 14.6878C37.2559 14.6882 39.202 14.0043 40.7666 12.749C41.0036 13.8496 41.123 14.9855 41.125 16.1565C41.125 19.7109 39.9764 23.0009 38.0289 25.6711L27.7799 15.4222ZM36.0843 27.8801L25.7031 17.499L23.9259 19.2762C26.9809 22.7585 28.8554 27.1183 29.281 31.7312C31.866 31.0174 34.1925 29.672 36.0843 27.8801ZM9.39119 11.8443C10.105 9.2593 11.4474 6.9328 13.2393 5.04105L23.6263 15.4222L21.8491 17.1994C18.3668 14.1444 14.004 12.2699 9.39119 11.8443ZM4.40625 14.6878C3.23764 14.6878 2.11689 15.152 1.29056 15.9784C0.464229 16.8047 0 17.9254 0 19.094V22.0315C0 27.0955 2.01166 31.9521 5.59243 35.5329C9.1732 39.1136 14.0298 41.1253 19.0938 41.1253H22.0312C23.1999 41.1253 24.3206 40.6611 25.1469 39.8347C25.9733 39.0084 26.4375 37.8877 26.4375 36.7191V33.7816C26.4375 28.7176 24.4258 23.861 20.8451 20.2802C17.2643 16.6995 12.4077 14.6878 7.34375 14.6878H4.40625ZM9.97575 24.6635C10.1122 24.5268 10.2743 24.4183 10.4527 24.3442C10.6311 24.2702 10.8224 24.232 11.0156 24.232C11.2088 24.232 11.4001 24.2702 11.5785 24.3442C11.757 24.4183 11.9191 24.5268 12.0555 24.6635L16.4618 29.0698C16.5983 29.2064 16.7066 29.3685 16.7805 29.5469C16.8544 29.7253 16.8925 29.9166 16.8925 30.1097C16.8925 30.3028 16.8544 30.494 16.7805 30.6725C16.7066 30.8509 16.5983 31.013 16.4618 31.1495C16.3252 31.2861 16.1631 31.3944 15.9847 31.4683C15.8062 31.5422 15.615 31.5803 15.4219 31.5803C15.2288 31.5803 15.0375 31.5422 14.8591 31.4683C14.6807 31.3944 14.5186 31.2861 14.382 31.1495L9.97575 26.7433C9.83897 26.6069 9.73045 26.4448 9.65641 26.2663C9.58236 26.0879 9.54425 25.8966 9.54425 25.7034C9.54425 25.5102 9.58236 25.3189 9.65641 25.1405C9.73045 24.9621 9.83897 24.8 9.97575 24.6635Z" />
</svg>
