<svg width="16" height="17" viewBox="0 0 16 17"  xmlns="http://www.w3.org/2000/svg">
<path d="M8.75166 0C9.30479 0 9.75166 0.446875 9.75166 1C9.75166 1.55313 9.30479 2 8.75166 2C8.19854 2 7.75166 1.55313 7.75166 1C7.75166 0.446875 8.19854 0 8.75166 0ZM4.75166 1.75C4.75166 1.19687 5.19854 0.75 5.75166 0.75C6.30479 0.75 6.75166 1.19687 6.75166 1.75C6.75166 2.30312 6.30479 2.75 5.75166 2.75C5.19854 2.75 4.75166 2.30312 4.75166 1.75ZM0.751664 10C0.751664 8.89688 1.64854 8 2.75166 8H7.00166V4.99375L0.957914 6.72188C0.561039 6.83438 0.145414 6.60625 0.0297889 6.20625C-0.0858361 5.80625 0.145414 5.39375 0.545414 5.27812L14.5454 1.27813C14.9423 1.16563 15.3579 1.39375 15.4735 1.79375C15.5892 2.19375 15.3579 2.60625 14.9579 2.72187L8.50166 4.56563V8H12.7517C13.8548 8 14.7517 8.89688 14.7517 10V15C14.7517 16.1031 13.8548 17 12.7517 17H2.75166C1.64854 17 0.751664 16.1031 0.751664 15V10ZM3.25166 10C2.97666 10 2.75166 10.225 2.75166 10.5V12.5C2.75166 12.775 2.97666 13 3.25166 13H5.00166V10H3.25166ZM9.00166 13V10H6.50166V13H9.00166ZM10.5017 13H12.2517C12.5267 13 12.7517 12.775 12.7517 12.5V10.5C12.7517 10.225 12.5267 10 12.2517 10H10.5017V13Z" />
</svg>
