<svg width="40" height="44" viewBox="0 0 40 44"  xmlns="http://www.w3.org/2000/svg">
<path d="M34.6233 2.91353C30.0408 -1.66897 21.6592 -0.748553 15.9213 4.98936C12.7879 8.1227 10.9862 12.5681 10.9471 15.6819C10.9079 18.776 11.4562 23.2998 8.30333 26.4527L0 34.756L2.78083 37.5369L11.0842 29.2335C14.2371 26.0806 18.7608 26.6289 21.855 26.5898C24.9492 26.5506 29.4142 24.7489 32.5475 21.6156C38.2658 15.8777 39.2058 7.49603 34.6233 2.91353ZM16.6067 20.9106C13.6104 17.9144 14.5504 11.8827 18.6825 7.75061C22.8146 3.61853 28.8267 2.67853 31.8425 5.67478C34.8388 8.67103 33.8988 14.7027 29.7667 18.8348C25.6346 22.9669 19.6225 23.9069 16.6067 20.9106ZM31.6467 31.3289C32.6846 31.3289 33.6833 31.7402 34.4079 32.4844C35.9354 34.0119 35.9354 36.4989 34.4079 38.0264C33.6833 38.751 32.6846 39.1623 31.6467 39.1623C30.6088 39.1623 29.61 38.751 28.8854 38.0069C27.3579 36.4794 27.3579 33.9923 28.8854 32.4648C29.61 31.7402 30.6088 31.3289 31.6467 31.3289ZM31.6467 27.4123C30.0956 27.4092 28.5787 27.8668 27.2881 28.7272C25.9976 29.5875 24.9916 30.8118 24.3979 32.2447C23.8042 33.6776 23.6495 35.2545 23.9533 36.7755C24.2572 38.2964 25.0059 39.6929 26.1046 40.7877C27.6321 42.3152 29.6492 43.0789 31.6467 43.0789C33.1977 43.082 34.7147 42.6244 36.0052 41.7641C37.2958 40.9037 38.3017 39.6795 38.8954 38.2466C39.4891 36.8137 39.6439 35.2367 39.34 33.7158C39.0362 32.1948 38.2874 30.7983 37.1888 29.7035C36.4607 28.9763 35.5966 28.3997 34.6457 28.0065C33.6947 27.6134 32.6757 27.4115 31.6467 27.4123Z" />
</svg>
