<svg width="18" height="19" viewBox="0 0 18 19" fill="none" xmlns="http://www.w3.org/2000/svg">
<path d="M3 19V18.5L4.5 17H0V15H1V4H0V2H4V0H14V2H18V4H17V15H18V17H13.5L15 18.5V19H13L11 17H7L5 19H3ZM10 8H15V5H10V8ZM3 8H8V5H3V8ZM9 14C9.41667 14 9.771 13.8543 10.063 13.563C10.355 13.2717 10.5007 12.9173 10.5 12.5C10.4993 12.0827 10.3537 11.7287 10.063 11.438C9.77233 11.1473 9.418 11.0013 9 11C8.582 10.9987 8.228 11.1447 7.938 11.438C7.648 11.7313 7.502 12.0853 7.5 12.5C7.498 12.9147 7.644 13.269 7.938 13.563C8.232 13.857 8.586 14.0027 9 14Z" fill="white"/>
</svg>
