<svg width="21" height="27" viewBox="0 0 21 27" fill="none" xmlns="http://www.w3.org/2000/svg">
<path d="M14.6876 26.0279C14.8812 26.1272 15.1063 26.1456 15.3134 26.0789C15.416 26.0459 15.511 25.9931 15.5931 25.9234C15.6752 25.8536 15.7428 25.7684 15.792 25.6726C15.8412 25.5767 15.871 25.4721 15.8798 25.3648C15.8885 25.2574 15.8761 25.1493 15.8431 25.0468C15.8101 24.9442 15.7572 24.8492 15.6875 24.7671C15.6178 24.685 15.5325 24.6174 15.4367 24.5682L14.6876 26.0279ZM15.4367 24.5682C12.8979 23.2651 11.8639 21.5373 11.427 19.6285C10.9676 17.6194 11.1654 15.466 11.1654 13.1691H9.52482C9.52482 15.2551 9.31295 17.7451 9.82763 19.9941C10.3648 22.3435 11.6895 24.4894 14.6876 26.0279L15.4367 24.5682Z" />
<path d="M10.3395 6.71163C10.2504 4.38569 9.85857 1.96131 8.33888 0.688189C6.2267 -1.07994 3.02138 0.820377 3.47513 3.42756C0.531383 3.12006 -1.4533 7.09319 1.51201 8.96538C2.92201 9.85413 4.36576 10.1335 6.05888 10.2094C4.34607 10.3051 2.8892 10.6069 1.46513 11.5051C-1.49924 13.3763 0.484509 17.3494 3.4292 17.0419C2.97451 19.6491 6.09451 21.4416 8.29201 19.7813C9.64857 18.7557 10.1389 16.9885 10.2964 15.1266C10.4726 16.9885 10.9836 18.7557 12.3401 19.7813C14.5376 21.4416 17.6567 19.6501 17.2029 17.0419C20.1467 17.3494 22.1314 13.3763 19.1661 11.5051C17.7542 10.6144 16.2842 10.3098 14.5676 10.2113C16.2833 10.1391 17.7411 9.86444 19.1661 8.96444C22.1314 7.09413 20.1476 3.12006 17.2029 3.42756C17.6567 0.821314 14.4514 -1.07994 12.3401 0.688189C10.8204 1.96131 10.4276 4.38569 10.3395 6.71163Z" />
</svg>
