<svg width="21" height="22" viewBox="0 0 21 22"  xmlns="http://www.w3.org/2000/svg">
<path fill-rule="evenodd" clip-rule="evenodd" d="M8.83396 0.750801C8.96555 0.522555 9.15494 0.332994 9.38306 0.201193C9.61119 0.069392 9.87 0 10.1335 0C10.3969 0 10.6557 0.069392 10.8839 0.201193C11.112 0.332994 11.3014 0.522555 11.433 0.750801L20.067 15.7048C20.1986 15.9328 20.2679 16.1915 20.2679 16.4548C20.2679 16.7181 20.1986 16.9768 20.067 17.2048C19.9353 17.4328 19.746 17.6222 19.518 17.7538C19.2899 17.8855 19.0313 17.9548 18.768 17.9548H1.49996C1.23666 17.9548 0.977999 17.8855 0.749975 17.7538C0.521952 17.6222 0.3326 17.4328 0.200952 17.2048C0.0693043 16.9768 -1.67225e-06 16.7181 0 16.4548C1.67231e-06 16.1915 0.0693109 15.9328 0.200962 15.7048L8.83496 0.750801H8.83396ZM10.134 2.5008L2.36596 15.9548H17.902L10.134 2.5008Z" />
</svg>
