<svg width="30" height="28" viewBox="0 0 30 28" xmlns="http://www.w3.org/2000/svg">
<path d="M23.3696 20.3257C23.3116 20.3288 23.2431 20.3139 23.1914 20.2881C23.1361 20.2605 23.0806 20.2114 23.0448 20.1612C23.005 20.1054 22.9751 20.0295 22.9633 19.962C22.9499 19.8854 22.9545 19.7936 22.9726 19.7179C22.9931 19.6316 23.0373 19.5371 23.088 19.4641C23.1455 19.3813 23.2299 19.2985 23.3123 19.2401C23.4052 19.1743 23.5255 19.1175 23.6348 19.0851C23.7568 19.0489 23.9042 19.0309 24.0314 19.0342C24.1723 19.0378 24.3337 19.0682 24.467 19.1139C24.6135 19.1641 24.7727 19.2481 24.8979 19.3389C25.0345 19.4379 25.1739 19.5758 25.276 19.7098C25.3867 19.8552 25.4886 20.0413 25.5533 20.2119C25.6231 20.396 25.6717 20.6193 25.6868 20.8155C25.703 21.026 25.6859 21.2706 25.6427 21.4774C25.5965 21.6983 25.5064 21.9446 25.4009 22.1444C25.2885 22.3571 25.1241 22.583 24.9576 22.7571C24.7808 22.9418 24.5474 23.1253 24.3269 23.2553C24.0936 23.3928 23.8032 23.5131 23.5412 23.5828C23.265 23.6563 22.9357 23.6964 22.6497 23.6932C22.3489 23.6899 22.0039 23.6381 21.715 23.5547C21.4118 23.4671 21.0775 23.3184 20.8089 23.1535C20.5276 22.9807 20.2322 22.7378 20.0073 22.4968C19.7723 22.245 19.5426 21.9185 19.3834 21.6136C19.2174 21.2954 19.0773 20.9039 19.0021 20.5534C18.9237 20.1883 18.8917 19.7566 18.9134 19.384C18.936 18.9964 19.0232 18.5548 19.148 18.187C19.2776 17.8051 19.4868 17.3866 19.7132 17.0522C19.9479 16.7055 20.2722 16.3437 20.5906 16.0708C20.9203 15.7881 21.3436 15.5147 21.7365 15.3283C22.143 15.1355 22.6403 14.9771 23.0835 14.8974C23.5414 14.815 24.0804 14.7914 24.5441 14.8315C25.0227 14.8729 25.566 14.9946 26.017 15.1595C26.482 15.3296 26.9896 15.5968 27.3934 15.8822C27.8096 16.1762 28.2417 16.5783 28.5658 16.9704C28.8995 17.3742 29.2197 17.8894 29.4354 18.366C29.6573 18.8562 29.8357 19.4535 29.9208 19.9843C30.0083 20.53 30.0238 21.1702 29.9647 21.7196C29.904 22.2839 29.7465 22.9228 29.5396 23.4516C29.3271 23.9945 28.9987 24.5854 28.6511 25.0542C28.2944 25.5351 27.8101 26.0327 27.3396 26.4042C26.8572 26.7851 26.244 27.1486 25.6784 27.3911C25.0989 27.6395 24.3947 27.836 23.7701 27.9255C23.1306 28.0171 22.3818 28.0243 21.7404 27.9468C21.084 27.8676 20.3423 27.676 19.7294 27.4293C19.1026 27.177 18.4215 26.7912 17.8825 26.3851C17.3314 25.97 16.7626 25.4088 16.3394 24.8653C15.9069 24.3098 15.496 23.6057 15.224 22.9573C14.9461 22.2952 14.7293 21.4922 14.6345 20.7809C14.5462 20.19 14.355 19.5241 14.1145 18.9766C13.88 18.4428 13.5295 17.8645 13.1629 17.4102C12.8058 16.9675 12.3281 16.5125 11.867 16.1781C11.418 15.8525 10.8526 15.5457 10.3337 15.3482C9.82877 15.1561 9.21929 15.0111 8.68143 14.957C8.15851 14.9045 7.54961 14.9227 7.0311 15.0081C6.52743 15.0911 5.96126 15.2622 5.49709 15.4735C5.04659 15.6786 4.55999 15.982 4.17936 16.2975C3.81031 16.6033 3.43265 17.0103 3.15725 17.4017C2.89047 17.7809 2.64156 18.2569 2.48433 18.6924C2.33218 19.1139 2.2215 19.6213 2.18619 20.0677C2.15206 20.4993 2.17859 21.0005 2.25993 21.4258C2.33847 21.8364 2.49136 22.2965 2.67598 22.672C2.85401 23.0341 3.11391 23.4235 3.38177 23.7261C3.63972 24.0174 3.98074 24.3134 4.30696 24.5266C4.62069 24.7316 5.01271 24.9198 5.3698 25.035C5.71274 25.1454 6.12385 25.2205 6.48396 25.2366C6.82913 25.2521 7.22831 25.2174 7.5652 25.1411C7.88751 25.0679 8.24683 24.935 8.53792 24.7791C8.81586 24.6302 9.11252 24.4168 9.34037 24.1995C9.55745 23.9924 9.77512 23.7212 9.92838 23.4638C10.0741 23.2192 10.2039 22.9155 10.278 22.6409C10.3482 22.3805 10.3887 22.0703 10.3856 21.8007C10.3826 21.5457 10.3395 21.253 10.267 21.0085C10.1987 20.7781 10.0841 20.5235 9.95504 20.3204C9.83381 20.1296 9.66433 19.9289 9.495 19.7787C9.33655 19.6381 9.13198 19.5011 8.9405 19.4097C8.76216 19.3247 8.54333 19.2548 8.34814 19.2229C8.16715 19.1933 7.9541 19.188 7.77211 19.2106C7.60438 19.2316 7.41454 19.2826 7.26001 19.3508C7.11836 19.4132 6.96547 19.5083 6.84853 19.6093C6.74213 19.7013 6.63499 19.825 6.56136 19.9445C6.49488 20.0525 6.43683 20.1884 6.40741 20.3116C6.38101 20.4218 6.37025 20.5539 6.38117 20.6667C6.39082 20.7668 6.42077 20.881 6.46414 20.9719C6.50236 21.052 6.56258 21.1373 6.62747 21.1982C6.68435 21.2515 6.76201 21.3014 6.83543 21.3282C6.90006 21.3518 6.98116 21.364 7.04971 21.3576C7.11126 21.3519 7.18176 21.3287 7.23345 21.2949C7.2819 21.2632 7.32903 21.2116 7.35538 21.1603C7.38167 21.1089 7.42885 21.0573 7.47731 21.0256C7.52894 20.9918 7.59945 20.9686 7.66105 20.9629C7.72959 20.9565 7.81065 20.9687 7.87527 20.9923C7.94869 21.0191 8.02641 21.069 8.08329 21.1223C8.14818 21.1831 8.2084 21.2685 8.24662 21.3486C8.28998 21.4395 8.31988 21.5536 8.32958 21.6538C8.34045 21.7667 8.32969 21.8987 8.30334 22.0089C8.27387 22.1321 8.21582 22.268 8.14934 22.3759C8.07576 22.4955 7.96857 22.6192 7.86217 22.7112C7.74523 22.8122 7.59234 22.9073 7.45075 22.9697C7.29616 23.0378 7.10638 23.0889 6.9386 23.1098C6.75666 23.1325 6.54355 23.1272 6.36262 23.0976C6.16737 23.0657 5.94859 22.9958 5.77021 22.9107C5.57873 22.8194 5.37421 22.6824 5.21575 22.5418C5.04638 22.3916 4.87695 22.1909 4.75571 22.0001C4.62663 21.797 4.51201 21.5424 4.44368 21.312C4.37116 21.0674 4.32811 20.7747 4.32515 20.5198C4.32202 20.2502 4.36247 19.94 4.43276 19.6796C4.50687 19.4049 4.63659 19.1013 4.78232 18.8566C4.93563 18.5993 5.1533 18.3281 5.37039 18.121C5.59818 17.9037 5.89484 17.6903 6.17283 17.5414C6.46387 17.3855 6.82324 17.2525 7.14556 17.1794C7.4824 17.1031 7.88158 17.0684 8.22679 17.0839C8.58691 17.0999 8.99796 17.1751 9.3409 17.2856C9.69804 17.4007 10.09 17.5889 10.4037 17.7939C10.73 18.0071 11.071 18.3031 11.329 18.5944C11.5968 18.897 11.8567 19.2863 12.0348 19.6485C12.2194 20.024 12.3722 20.4841 12.4508 20.8947C12.5321 21.32 12.5587 21.8212 12.5245 22.2528C12.4892 22.6992 12.3786 23.2066 12.2264 23.628C12.0692 24.0636 11.8203 24.5396 11.5535 24.9188C11.2781 25.3102 10.9004 25.7172 10.5313 26.023C10.1507 26.3384 9.66417 26.6419 9.21367 26.847C8.74949 27.0583 8.18327 27.2294 7.6796 27.3124C7.16114 27.3978 6.55219 27.416 6.02928 27.3635C5.49142 27.3094 4.88199 27.1644 4.37704 26.9723C3.85809 26.7748 3.29271 26.468 2.84376 26.1424C2.38263 25.808 1.90497 25.353 1.5478 24.9103C1.18121 24.456 0.830723 23.8777 0.59625 23.3439C0.35575 22.7964 0.164519 22.1305 0.0761737 21.5396C-0.0143924 20.9338 -0.0244011 20.224 0.0472237 19.6157C0.120598 18.9925 0.301539 18.2879 0.535922 17.7053C0.775903 17.1088 1.14402 16.4604 1.53218 15.9468C1.9294 15.4213 2.46708 14.8783 2.98839 14.4739C3.52159 14.0603 4.19813 13.6667 4.82134 13.4056C5.45844 13.1386 6.23157 12.9294 6.91665 12.8367C7.61668 12.7421 8.43545 12.7403 9.13606 12.8302C9.85172 12.9221 10.6595 13.1369 11.3264 13.4109C11.8853 13.6303 12.5609 13.7985 13.158 13.8652C13.7402 13.9302 14.419 13.9175 14.998 13.829C15.5621 13.7428 16.1973 13.559 16.7191 13.3292C17.2272 13.1053 17.7771 12.7718 18.2086 12.4237C18.6284 12.085 19.0594 11.6327 19.3754 11.1966C19.6826 10.7726 19.9713 10.2391 20.1561 9.74992C20.3356 9.27473 20.4698 8.70165 20.5178 8.19626C20.5644 7.70578 20.5434 7.13508 20.459 6.64961C20.3771 6.1789 20.2115 5.65021 20.0082 5.21735C19.8114 4.79798 19.5213 4.34566 19.2205 3.9925C18.9295 3.65077 18.5429 3.30178 18.1717 3.04813C17.8129 2.80297 17.3631 2.57521 16.9521 2.43263C16.5552 2.29494 16.078 2.19653 15.6586 2.16775C15.2541 2.14003 14.7851 2.16912 14.3877 2.2485C14.0049 2.32494 13.5766 2.47058 13.2278 2.64494C12.8924 2.81256 12.5324 3.05599 12.2537 3.30599C11.9859 3.54604 11.7149 3.86246 11.5209 4.1645C11.3349 4.45404 11.1654 4.81506 11.0635 5.14334C10.966 5.45745 10.9022 5.83338 10.8924 6.16198C10.8831 6.47572 10.9207 6.8379 10.996 7.14272C11.0678 7.43321 11.1952 7.75623 11.3427 8.01694C11.483 8.26473 11.6825 8.52829 11.8847 8.72943C12.0763 8.92014 12.3263 9.11011 12.5627 9.2422C12.7862 9.36707 13.0627 9.4764 13.3119 9.53623C13.5468 9.59257 13.8258 9.62119 14.0673 9.6116C14.2941 9.60259 14.5536 9.55704 14.7691 9.48631C14.9708 9.42015 15.1924 9.31252 15.3677 9.19334C15.531 9.08228 15.7012 8.92873 15.8266 8.77661C15.9429 8.63561 16.054 8.45481 16.1252 8.28676C16.1909 8.13185 16.2413 7.94288 16.2593 7.77568C16.2757 7.6225 16.2694 7.44333 16.2399 7.29216C16.2129 7.15453 16.1587 7.0004 16.0915 6.87722C16.0307 6.766 15.9413 6.64808 15.8488 6.56116C15.7659 6.48331 15.6563 6.40798 15.5526 6.36096C15.4605 6.31922 15.3462 6.28791 15.2453 6.27984C15.1564 6.27267 15.052 6.28185 14.9666 6.30731C14.8916 6.3296 14.8093 6.37156 14.7493 6.42137C14.6964 6.46523 14.6453 6.52896 14.6166 6.59121C14.5908 6.64708 14.5757 6.7194 14.5793 6.78076C14.5827 6.83832 14.604 6.90473 14.6356 6.95307C14.6672 7.00146 14.6886 7.06782 14.692 7.12544C14.6955 7.18679 14.6804 7.25911 14.6547 7.31498C14.626 7.37718 14.5748 7.44091 14.5219 7.48477C14.4619 7.53463 14.3796 7.57654 14.3047 7.59888C14.2193 7.62429 14.1148 7.63352 14.026 7.62635C13.9251 7.61823 13.8107 7.58697 13.7186 7.54517C13.6149 7.49815 13.5053 7.42288 13.4225 7.34503C13.3299 7.25811 13.2406 7.14014 13.1798 7.02897C13.1125 6.90579 13.0583 6.75161 13.0314 6.61403C13.0018 6.46281 12.9955 6.28364 13.0119 6.13046C13.0299 5.96331 13.0803 5.77435 13.146 5.61943C13.2172 5.45139 13.3284 5.27053 13.4446 5.12953C13.5701 4.97741 13.7403 4.82391 13.9036 4.71285C14.0788 4.59362 14.3005 4.48598 14.5021 4.41983C14.7177 4.34914 14.9772 4.30355 15.2039 4.29459C15.4454 4.28499 15.7244 4.31356 15.9593 4.36997C16.2085 4.42979 16.485 4.53906 16.7085 4.66399C16.9449 4.79608 17.1949 4.98605 17.3866 5.17676C17.5887 5.3779 17.7883 5.64141 17.9285 5.88926C18.076 6.14991 18.2034 6.47298 18.2752 6.76342C18.3506 7.06824 18.3881 7.43042 18.3788 7.74421C18.369 8.07281 18.3052 8.44869 18.2077 8.7628C18.1058 9.09108 17.9364 9.45215 17.7503 9.74164C17.5563 10.0437 17.2853 10.3602 17.0176 10.6002C16.7388 10.8502 16.3789 11.0936 16.0434 11.2612C15.6946 11.4356 15.2663 11.5813 14.8836 11.6577C14.4862 11.7371 14.0171 11.7662 13.6127 11.7384C13.1933 11.7097 12.7161 11.6112 12.3192 11.4736C11.9081 11.3309 11.4583 11.1032 11.0995 10.858C10.7283 10.6044 10.3418 10.2554 10.0507 9.91364C9.74994 9.56047 9.45986 9.10816 9.26297 8.68884C9.05977 8.25598 8.89411 7.72729 8.81226 7.25653C8.72786 6.77106 8.70687 6.20035 8.75347 5.70988C8.8015 5.20454 8.93557 4.63141 9.11512 4.15622C9.29997 3.66701 9.58857 3.13358 9.89583 2.70957C10.2118 2.27344 10.6428 1.82118 11.0626 1.48246C11.4941 1.1343 12.044 0.800849 12.5521 0.577038C13.0739 0.347165 13.7091 0.163363 14.2732 0.0771275C14.8522 -0.0113743 15.5311 -0.0240782 16.1133 0.0409144C16.7104 0.107594 17.3859 0.275848 17.9448 0.495284C18.5177 0.720202 19.141 1.06646 19.635 1.43227C20.1411 1.80705 20.6643 2.31519 21.0545 2.8083C21.454 3.31322 21.8347 3.95439 22.088 4.54544C22.3471 5.15025 22.5511 5.88472 22.6427 6.53581C22.7364 7.20181 22.7409 7.98115 22.6568 8.64836C22.5707 9.33044 22.3664 10.1008 22.1045 10.7371C21.837 11.3872 21.4291 12.0931 21.0005 12.6515C20.5627 13.2218 19.9717 13.81 19.3996 14.2473C18.9291 14.6188 18.4447 15.1164 18.0881 15.5973C17.7404 16.0661 17.412 16.657 17.1996 17.1998C16.9926 17.7287 16.8351 18.3676 16.7744 18.9319C16.7153 19.4813 16.7308 20.1215 16.8183 20.6672C16.9034 21.198 17.0819 21.7953 17.3037 22.2855C17.5194 22.762 17.8397 23.2773 18.1733 23.6811C18.4974 24.0732 18.9295 24.4753 19.3457 24.7693C19.7496 25.0547 20.2572 25.3219 20.7222 25.492C21.1731 25.6569 21.7164 25.7786 22.195 25.82C22.6587 25.8601 23.1977 25.8365 23.6557 25.7541C24.0989 25.6744 24.5961 25.516 25.0026 25.3232C25.3955 25.1368 25.8188 24.8634 26.1485 24.5807C26.4669 24.3077 26.7913 23.946 27.026 23.5993C27.2524 23.2649 27.4615 22.8464 27.5912 22.4645C27.7159 22.0967 27.8032 21.6551 27.8257 21.2675C27.8475 20.8949 27.8154 20.4632 27.7371 20.0981C27.6619 19.7476 27.5218 19.3561 27.3557 19.0379C27.1965 18.733 26.9668 18.4065 26.7318 18.1547C26.507 17.9137 26.2115 17.6707 25.9302 17.498C25.6616 17.3331 25.3274 17.1843 25.0242 17.0968C24.7353 17.0134 24.3902 16.9616 24.0894 16.9583C23.8035 16.9551 23.4742 16.9952 23.1979 17.0687C22.9359 17.1384 22.6455 17.2587 22.4123 17.3962C22.1918 17.5262 21.9583 17.7096 21.7816 17.8943C21.615 18.0685 21.4506 18.2944 21.3382 18.5071C21.2327 18.7069 21.1426 18.9532 21.0964 19.1741C21.0532 19.3808 21.0361 19.6255 21.0524 19.836C21.0675 20.0321 21.116 20.2555 21.1858 20.4396C21.2505 20.6102 21.3524 20.7963 21.4632 20.9417C21.5653 21.0757 21.7046 21.2136 21.8413 21.3126C21.9665 21.4034 22.1257 21.4874 22.2722 21.5376C22.4054 21.5833 22.5668 21.6137 22.7077 21.6173C22.835 21.6205 22.9824 21.6026 23.1044 21.5664C23.2136 21.534 23.334 21.4772 23.4268 21.4114C23.5092 21.353 23.5936 21.2702 23.6511 21.1874C23.7018 21.1144 23.746 21.0198 23.7666 20.9336C23.7846 20.8579 23.7892 20.7661 23.7759 20.6895C23.764 20.622 23.7341 20.5461 23.6943 20.4903C23.6585 20.4401 23.603 20.391 23.5478 20.3634C23.496 20.3376 23.4275 20.3227 23.3696 20.3257Z" />
</svg>
