<svg width="18" height="18" viewBox="0 0 18 18" fill="none" xmlns="http://www.w3.org/2000/svg">
<path fill-rule="evenodd" clip-rule="evenodd" d="M7.60259 0.917961C6.39559 -0.289039 4.50759 -0.316039 3.29359 0.897961C2.86983 1.32444 2.57786 1.86394 2.45259 2.45196C1.8646 2.57811 1.32502 2.86994 0.897589 3.29296C-0.316411 4.50796 -0.288411 6.39596 0.917589 7.60296C1.88759 8.57096 3.29359 8.78096 4.43959 8.19796L5.91859 9.55296C5.86044 9.90422 5.83366 10.26 5.83859 10.616C5.85259 11.876 6.23059 13.191 6.84859 14.342C6.91542 14.4665 7.00788 14.5754 7.11988 14.6616C7.23187 14.7478 7.36086 14.8092 7.49834 14.8419C7.63582 14.8746 7.77867 14.8778 7.91747 14.8512C8.05627 14.8247 8.18786 14.7691 8.30359 14.688C8.84059 14.311 9.30159 14.191 9.67359 14.19C10.0506 14.189 10.4036 14.31 10.7216 14.522C11.3126 14.917 11.5886 15.624 11.1736 16.57C11.1057 16.7251 11.0784 16.8949 11.0941 17.0635C11.1098 17.232 11.1681 17.3939 11.2634 17.5338C11.3588 17.6737 11.4881 17.7871 11.6392 17.8634C11.7904 17.9397 11.9584 17.9764 12.1276 17.97C13.5646 17.915 14.8866 17.167 16.0276 16.027C17.2106 14.842 17.7906 13.429 17.7026 11.956C17.6156 10.503 16.8896 9.12896 15.7286 7.96796C14.5486 6.78796 13.0116 6.01296 11.4736 5.79996C10.8959 5.71751 10.3092 5.72122 9.73259 5.81096L8.22559 4.38396C8.77359 3.24896 8.55559 1.87096 7.60259 0.917961ZM7.69459 6.63596L6.22859 5.24596C6.13172 5.15414 6.05422 5.04386 6.00065 4.92161C5.94707 4.79937 5.91851 4.66763 5.91665 4.53418C5.91478 4.40072 5.93965 4.26824 5.98979 4.14455C6.03993 4.02086 6.11433 3.90845 6.20859 3.81396C6.62359 3.39896 6.63359 2.77796 6.18859 2.33296C5.74359 1.88796 5.12259 1.89796 4.70859 2.31296C4.44259 2.57696 4.34859 2.95396 4.40759 3.20296C4.44703 3.36903 4.4433 3.54242 4.39677 3.70664C4.35024 3.87086 4.26245 4.02044 4.14176 4.14113C4.02107 4.26182 3.87149 4.34961 3.70727 4.39614C3.54305 4.44268 3.36965 4.4464 3.20359 4.40696C2.95359 4.34796 2.57759 4.44196 2.31259 4.70696C1.89759 5.12196 1.88759 5.74396 2.33259 6.18896C2.77759 6.63396 3.39859 6.62396 3.81359 6.20896C3.99582 6.0267 4.24139 5.92184 4.49907 5.91625C4.75674 5.91066 5.00662 6.00477 5.19659 6.17896L6.72659 7.58196C6.84526 7.42196 6.97726 7.26863 7.12259 7.12196C7.30392 6.94129 7.49459 6.77929 7.69459 6.63596Z" fill="white"/>
</svg>
