<svg width="44" height="37" viewBox="0 0 44 37"  xmlns="http://www.w3.org/2000/svg">
<path d="M44 20.1667V27.5C44 27.9862 43.8068 28.4525 43.463 28.7964C43.1192 29.1402 42.6529 29.3333 42.1667 29.3333C41.6804 29.3333 41.2141 29.1402 40.8703 28.7964C40.5265 28.4525 40.3333 27.9862 40.3333 27.5C40.3333 27.5 40.5533 25.6667 36.6667 25.6667H33V34.8333C33 35.3196 32.8068 35.7859 32.463 36.1297C32.1192 36.4735 31.6529 36.6667 31.1667 36.6667H1.83333C1.3471 36.6667 0.880788 36.4735 0.536971 36.1297C0.193155 35.7859 0 35.3196 0 34.8333V20.1667C0 19.6804 0.193155 19.2141 0.536971 18.8703C0.880788 18.5265 1.3471 18.3333 1.83333 18.3333H31.1667C31.6529 18.3333 32.1192 18.5265 32.463 18.8703C32.8068 19.2141 33 19.6804 33 20.1667V22H36.6667C40.5533 22 40.3333 20.1667 40.3333 20.1667C40.3333 19.6804 40.5265 19.2141 40.8703 18.8703C41.2141 18.5265 41.6804 18.3333 42.1667 18.3333C42.6529 18.3333 43.1192 18.5265 43.463 18.8703C43.8068 19.2141 44 19.6804 44 20.1667ZM7.33333 3.66667C5.38841 3.66667 3.52315 4.43928 2.14788 5.81455C0.772616 7.18982 0 9.05508 0 11C0 12.9449 0.772616 14.8102 2.14788 16.1854C3.52315 17.5607 5.38841 18.3333 7.33333 18.3333C9.27825 18.3333 11.1435 17.5607 12.5188 16.1854C13.894 14.8102 14.6667 12.9449 14.6667 11C14.6667 9.05508 13.894 7.18982 12.5188 5.81455C11.1435 4.43928 9.27825 3.66667 7.33333 3.66667ZM7.33333 14.6667C6.36087 14.6667 5.42824 14.2804 4.74061 13.5927C4.05297 12.9051 3.66667 11.9725 3.66667 11C3.66667 10.0275 4.05297 9.09491 4.74061 8.40728C5.42824 7.71964 6.36087 7.33333 7.33333 7.33333C8.30579 7.33333 9.23842 7.71964 9.92606 8.40728C10.6137 9.09491 11 10.0275 11 11C11 11.9725 10.6137 12.9051 9.92606 13.5927C9.23842 14.2804 8.30579 14.6667 7.33333 14.6667ZM23.8333 0C21.4022 0 19.0706 0.965771 17.3515 2.68485C15.6324 4.40394 14.6667 6.73551 14.6667 9.16667C14.6667 11.5978 15.6324 13.9294 17.3515 15.6485C19.0706 17.3676 21.4022 18.3333 23.8333 18.3333C26.2645 18.3333 28.5961 17.3676 30.3151 15.6485C32.0342 13.9294 33 11.5978 33 9.16667C33 6.73551 32.0342 4.40394 30.3151 2.68485C28.5961 0.965771 26.2645 0 23.8333 0ZM23.8333 14.6667C22.3746 14.6667 20.9757 14.0872 19.9442 13.0558C18.9128 12.0243 18.3333 10.6254 18.3333 9.16667C18.3333 7.70798 18.9128 6.30903 19.9442 5.27758C20.9757 4.24613 22.3746 3.66667 23.8333 3.66667C25.292 3.66667 26.691 4.24613 27.7224 5.27758C28.7539 6.30903 29.3333 7.70798 29.3333 9.16667C29.3333 10.6254 28.7539 12.0243 27.7224 13.0558C26.691 14.0872 25.292 14.6667 23.8333 14.6667Z" />
</svg>
