<svg width="24" height="20" viewBox="0 0 24 20" fill="none" xmlns="http://www.w3.org/2000/svg">
<path d="M22.94 7.27H23C23.2652 7.27 23.5196 7.16464 23.7071 6.97711C23.8946 6.78957 24 6.53522 24 6.27V5.27C24 5.00478 23.8946 4.75043 23.7071 4.56289C23.5196 4.37536 23.2652 4.27 23 4.27H21.65C21.4163 4.27116 21.1861 4.32692 20.9777 4.43283C20.7694 4.53874 20.5887 4.69186 20.45 4.88C20.4352 4.88989 20.4178 4.89517 20.4 4.89517C20.3822 4.89517 20.3648 4.88989 20.35 4.88C20.334 4.87398 20.3195 4.86463 20.3074 4.85255C20.2954 4.84048 20.286 4.82598 20.28 4.81L19.8 2.41C19.6637 1.73054 19.2964 1.11921 18.7605 0.679887C18.2245 0.24056 17.553 0.000326007 16.86 0H7.14C6.44276 0.00169001 5.76789 0.246187 5.23136 0.69147C4.69483 1.13675 4.33015 1.75502 4.2 2.44L3.72 4.84C3.71398 4.85598 3.70463 4.87048 3.69255 4.88256C3.68048 4.89463 3.66598 4.90398 3.65 4.91C3.6352 4.91989 3.6178 4.92517 3.6 4.92517C3.5822 4.92517 3.5648 4.91989 3.55 4.91C3.41133 4.72187 3.23062 4.56874 3.02227 4.46283C2.81393 4.35692 2.58372 4.30116 2.35 4.3H1C0.734784 4.3 0.48043 4.40536 0.292893 4.59289C0.105357 4.78043 0 5.03478 0 5.3V6.3C0 6.56522 0.105357 6.81957 0.292893 7.00711C0.48043 7.19464 0.734784 7.3 1 7.3H1.06C1.10993 7.30065 1.15853 7.31624 1.19952 7.34475C1.24051 7.37327 1.27203 7.41341 1.29 7.46C1.31472 7.50069 1.3278 7.54739 1.3278 7.595C1.3278 7.64261 1.31472 7.68931 1.29 7.73C0.483379 8.5386 0.0210784 9.62806 0 10.77V14.77C4.93311e-05 15.0535 0.0809935 15.3312 0.233328 15.5703C0.385662 15.8094 0.603062 16.0001 0.86 16.12C0.90142 16.1427 0.936149 16.1759 0.960716 16.2163C0.985284 16.2567 0.998829 16.3028 1 16.35V17.77C1 18.1678 1.15804 18.5494 1.43934 18.8307C1.72064 19.112 2.10218 19.27 2.5 19.27H4.5C4.89782 19.27 5.27936 19.112 5.56066 18.8307C5.84196 18.5494 6 18.1678 6 17.77V16.53C5.99995 16.4627 6.02597 16.3981 6.07258 16.3496C6.1192 16.3011 6.18279 16.2726 6.25 16.27H17.75C17.8172 16.2726 17.8808 16.3011 17.9274 16.3496C17.974 16.3981 18 16.4627 18 16.53V17.77C18 18.1678 18.158 18.5494 18.4393 18.8307C18.7206 19.112 19.1022 19.27 19.5 19.27H21.5C21.8978 19.27 22.2794 19.112 22.5607 18.8307C22.842 18.5494 23 18.1678 23 17.77V16.35C23.0012 16.3028 23.0147 16.2567 23.0393 16.2163C23.0639 16.1759 23.0986 16.1427 23.14 16.12C23.3969 16.0001 23.6143 15.8094 23.7667 15.5703C23.919 15.3312 24 15.0535 24 14.77V10.77C23.9974 9.62326 23.5491 8.52244 22.75 7.7C22.7253 7.65931 22.7122 7.61261 22.7122 7.565C22.7122 7.51739 22.7253 7.47069 22.75 7.43C22.765 7.38909 22.7904 7.3528 22.8237 7.32473C22.857 7.29667 22.8971 7.2778 22.94 7.27ZM3.25 15.27H1.5C1.36739 15.27 1.24021 15.2173 1.14645 15.1236C1.05268 15.0298 1 14.9026 1 14.77V14.27C1 14.1374 1.05268 14.0102 1.14645 13.9164C1.24021 13.8227 1.36739 13.77 1.5 13.77H3.25C3.44983 13.7726 3.64058 13.8539 3.78095 13.9961C3.92132 14.1383 4.00002 14.3302 4 14.53C3.99737 14.7272 3.91719 14.9154 3.77683 15.0539C3.63646 15.1924 3.44719 15.27 3.25 15.27ZM5.37 11.18C5.34776 11.209 5.31893 11.2323 5.28588 11.248C5.25284 11.2636 5.21654 11.2712 5.18 11.27H4C3.51619 11.2751 3.04692 11.1047 2.67918 10.7902C2.31143 10.4758 2.07013 10.0387 2 9.56C1.99499 9.52431 1.99776 9.48796 2.00812 9.45344C2.01848 9.41891 2.03617 9.38704 2.06 9.36C2.10924 9.30646 2.17738 9.27418 2.25 9.27H4.5C4.64151 9.27691 4.77733 9.32784 4.88849 9.41569C4.99964 9.50354 5.08058 9.62391 5.12 9.76L5.42 10.96C5.42949 10.998 5.42991 11.0377 5.42123 11.076C5.41254 11.1142 5.39499 11.1498 5.37 11.18ZM16 10.93L15.46 12.57C15.2939 13.0666 14.9754 13.4981 14.55 13.8033C14.1245 14.1085 13.6136 14.2718 13.09 14.27H10.94C10.4164 14.2718 9.90552 14.1085 9.48004 13.8033C9.05456 13.4981 8.73612 13.0666 8.57 12.57L8 10.93C7.97209 10.8559 7.96297 10.776 7.97344 10.6975C7.98391 10.6189 8.01365 10.5442 8.06 10.48C8.10762 10.4159 8.16937 10.3635 8.24048 10.3271C8.31158 10.2907 8.39012 10.2712 8.47 10.27H15.47C15.5499 10.2712 15.6284 10.2907 15.6995 10.3271C15.7706 10.3635 15.8324 10.4159 15.88 10.48C15.9366 10.5387 15.9772 10.6107 15.9982 10.6895C16.0192 10.7682 16.0198 10.851 16 10.93ZM18.45 6.18C18.4268 6.2079 18.3977 6.2304 18.3649 6.24594C18.3321 6.26149 18.2963 6.26969 18.26 6.27H5.77C5.73369 6.26969 5.69789 6.26149 5.66508 6.24594C5.63227 6.2304 5.60323 6.2079 5.58 6.18C5.56337 6.14929 5.55466 6.11492 5.55466 6.08C5.55466 6.04508 5.56337 6.01071 5.58 5.98L6.21 2.83C6.25675 2.60072 6.38242 2.3951 6.56514 2.24893C6.74786 2.10275 6.97605 2.02528 7.21 2.03H16.93C17.1639 2.02528 17.3921 2.10275 17.5749 2.24893C17.7576 2.3951 17.8832 2.60072 17.93 2.83L18.56 5.98C18.5604 6.02377 18.5471 6.06658 18.522 6.10243C18.4969 6.13829 18.4613 6.16541 18.42 6.18H18.45ZM18.85 11.27C18.8135 11.2712 18.7772 11.2636 18.7441 11.248C18.7111 11.2323 18.6822 11.209 18.66 11.18C18.635 11.1498 18.6175 11.1142 18.6088 11.076C18.6001 11.0377 18.6005 10.998 18.61 10.96L18.91 9.76C18.9494 9.62391 19.0304 9.50354 19.1415 9.41569C19.2527 9.32784 19.3885 9.27691 19.53 9.27H21.76C21.8326 9.27418 21.9008 9.30646 21.95 9.36C21.9738 9.38704 21.9915 9.41891 22.0019 9.45344C22.0122 9.48796 22.015 9.52431 22.01 9.56C21.9399 10.0387 21.6986 10.4758 21.3308 10.7902C20.9631 11.1047 20.4938 11.2751 20.01 11.27H18.85ZM23.03 14.27V14.77C23.03 14.9026 22.9773 15.0298 22.8836 15.1236C22.7898 15.2173 22.6626 15.27 22.53 15.27H20.75C20.5528 15.27 20.3635 15.1924 20.2232 15.0539C20.0828 14.9154 20.0026 14.7272 20 14.53C20 14.3302 20.0787 14.1383 20.2191 13.9961C20.3594 13.8539 20.5502 13.7726 20.75 13.77H22.5C22.6326 13.77 22.7598 13.8227 22.8536 13.9164C22.9473 14.0102 23 14.1374 23 14.27H23.03Z" fill="white"/>
</svg>
