<svg width="24" height="18" viewBox="0 0 24 18" fill="none" xmlns="http://www.w3.org/2000/svg">
<path d="M22.3483 6.93569H21.308L18.632 0.915126C18.5109 0.642733 18.3134 0.411305 18.0634 0.24888C17.8134 0.086455 17.5217 3.56822e-06 17.2236 0H5.89534C5.59724 3.56822e-06 5.30554 0.086455 5.05557 0.24888C4.80561 0.411305 4.60811 0.642733 4.48701 0.915126L1.81099 6.93569H0.770633C0.566248 6.93569 0.370235 7.01688 0.225713 7.16141C0.0811914 7.30593 0 7.50194 0 7.70633C0 7.91071 0.0811914 8.10672 0.225713 8.25125C0.370235 8.39577 0.566248 8.47696 0.770633 8.47696H1.54127V16.1833C1.54127 16.5921 1.70365 16.9841 1.99269 17.2731C2.28173 17.5622 2.67376 17.7245 3.08253 17.7245H5.39443C5.8032 17.7245 6.19522 17.5622 6.48427 17.2731C6.77331 16.9841 6.93569 16.5921 6.93569 16.1833V15.4127H16.1833V16.1833C16.1833 16.5921 16.3457 16.9841 16.6347 17.2731C16.9238 17.5622 17.3158 17.7245 17.7245 17.7245H20.0364C20.4452 17.7245 20.8372 17.5622 21.1263 17.2731C21.4153 16.9841 21.5777 16.5921 21.5777 16.1833V8.47696H22.3483C22.5527 8.47696 22.7487 8.39577 22.8933 8.25125C23.0378 8.10672 23.119 7.91071 23.119 7.70633C23.119 7.50194 23.0378 7.30593 22.8933 7.16141C22.7487 7.01688 22.5527 6.93569 22.3483 6.93569ZM6.93569 11.5595H4.6238C4.41941 11.5595 4.2234 11.4783 4.07888 11.3338C3.93435 11.1893 3.85316 10.9932 3.85316 10.7889C3.85316 10.5845 3.93435 10.3885 4.07888 10.2439C4.2234 10.0994 4.41941 10.0182 4.6238 10.0182H6.93569C7.14008 10.0182 7.33609 10.0994 7.48061 10.2439C7.62513 10.3885 7.70633 10.5845 7.70633 10.7889C7.70633 10.9932 7.62513 11.1893 7.48061 11.3338C7.33609 11.4783 7.14008 11.5595 6.93569 11.5595ZM18.4952 11.5595H16.1833C15.9789 11.5595 15.7829 11.4783 15.6384 11.3338C15.4938 11.1893 15.4127 10.9932 15.4127 10.7889C15.4127 10.5845 15.4938 10.3885 15.6384 10.2439C15.7829 10.0994 15.9789 10.0182 16.1833 10.0182H18.4952C18.6996 10.0182 18.8956 10.0994 19.0401 10.2439C19.1846 10.3885 19.2658 10.5845 19.2658 10.7889C19.2658 10.9932 19.1846 11.1893 19.0401 11.3338C18.8956 11.4783 18.6996 11.5595 18.4952 11.5595ZM3.49771 6.93569L5.89534 1.54127H17.2236L19.6213 6.93569H3.49771Z" fill="white"/>
</svg>
